<?xml version="1.0" encoding="utf-8"?>
<!-- Generator: Adobe Illustrator 22.0.1, SVG Export Plug-In . SVG Version: 6.00 Build 0)  -->
<svg version="1.1" id="Layer_1" xmlns="http://www.w3.org/2000/svg" xmlns:xlink="http://www.w3.org/1999/xlink" x="0px" y="0px"
	 viewBox="0 0 722 359" style="enable-background:new 0 0 722 359;" xml:space="preserve">
<style type="text/css">
	.st0{fill:#FFFFFF;}
	.st1{opacity:0.1;fill:#0C496C;}
	.st2{fill:#231F20;}
	.st3{opacity:0.5;fill:url(#XMLID_46_);}
	.st4{opacity:0.3;fill:#0C496C;}
	.st5{opacity:0.2;fill:#0C496C;}
	.st6{opacity:0.7;}
	.st7{fill:none;stroke:#0C496C;stroke-width:1.4182;stroke-linecap:round;stroke-miterlimit:10;}
	.st8{fill:none;stroke:#0C496C;stroke-width:1.4182;stroke-linecap:round;stroke-miterlimit:10;stroke-dasharray:0.706,7.0603;}
	.st9{opacity:0.5;}
	.st10{fill:none;stroke:#0C496C;stroke-width:1.4182;stroke-linecap:round;stroke-miterlimit:10;stroke-dasharray:0.7061,7.061;}
	.st11{fill:none;stroke:#0C496C;stroke-width:1.6173;stroke-linecap:round;stroke-miterlimit:10;}
	.st12{fill:none;stroke:#0C496C;stroke-width:1.6173;stroke-linecap:round;stroke-miterlimit:10;stroke-dasharray:0.8051,8.0514;}
	.st13{fill:none;stroke:#0C496C;stroke-width:1.6173;stroke-linecap:round;stroke-miterlimit:10;stroke-dasharray:0.8052,8.0522;}
	.st14{fill:none;stroke:#0C496C;stroke-width:1.8443;stroke-linecap:round;stroke-miterlimit:10;}
	.st15{fill:none;stroke:#0C496C;stroke-width:1.8443;stroke-linecap:round;stroke-miterlimit:10;stroke-dasharray:0.9182,9.1817;}
	.st16{fill:none;stroke:#0C496C;stroke-width:1.8443;stroke-linecap:round;stroke-miterlimit:10;stroke-dasharray:0.9183,9.1825;}
	.st17{fill:none;stroke:#0C496C;stroke-width:2.1032;stroke-linecap:round;stroke-miterlimit:10;}
	.st18{fill:none;stroke:#0C496C;stroke-width:2.1032;stroke-linecap:round;stroke-miterlimit:10;stroke-dasharray:1.047,10.4705;}
	.st19{fill:none;stroke:#0C496C;stroke-width:2.1032;stroke-linecap:round;stroke-miterlimit:10;stroke-dasharray:1.0472,10.4715;}
	.st20{fill:#0C496C;}
	.st21{fill:none;stroke:#BFCF90;stroke-width:4.9623;stroke-miterlimit:10;}
	.st22{fill:none;stroke:#EA6A6C;stroke-width:7.4434;stroke-miterlimit:10;}
	.st23{fill:#EA6A6C;}
	.st24{opacity:0.8;}
	.st25{fill:none;stroke:#BAC98D;stroke-width:3.3294;stroke-linecap:round;stroke-miterlimit:10;}
	.st26{fill:#BAC98D;}
	.st27{opacity:0.5;fill:none;stroke:#00A6AA;stroke-width:3.3294;stroke-linecap:round;stroke-miterlimit:10;}
	.st28{opacity:0.9;}
	.st29{opacity:0.7;fill:#FFFFFF;}
	.st30{clip-path:url(#SVGID_10_);}
	.st31{opacity:0.4;fill:#FFFFFF;}
	.st32{fill:#231F20;stroke:#231F20;stroke-width:1.3119;stroke-miterlimit:10;}
	.st33{fill:none;stroke:#0C496C;stroke-width:0.3956;stroke-linecap:round;stroke-linejoin:round;stroke-miterlimit:10;}
	.st34{fill:none;stroke:#0C496C;stroke-width:0.7631;stroke-linecap:round;stroke-linejoin:round;stroke-miterlimit:10;}
	.st35{opacity:0.5;fill:#0C496C;}
</style>
<g>
	<path class="st0" d="M371.6,208.9v1H368h-2.3h-3.5v-1c0-0.5,0.3-0.8,1-0.9c0.1,0,0.2,0,0.3,0c0.1,0,0.4,0,0.8,0
		c0.4,0,0.9,0,1.5-0.1V176c-0.4,0-0.8,0-1.2,0c-0.4,0-0.6,0-0.7,0c-0.1,0-0.3,0-0.4,0c-0.1,0-0.2,0-0.3,0c-0.6,0-1-0.3-1-0.9v-1h3.5
		h2.3v33.8c0.4,0,0.8,0,1.2,0c0.4,0,0.6,0,0.7,0c0.1,0,0.3,0,0.4,0c0.1,0,0.2,0,0.3,0C371.2,208,371.6,208.3,371.6,208.9"/>
	<path class="st0" d="M396.6,208.9v1h-3.2h-0.9h0c-0.5,0-0.8-0.2-0.9-0.7l-0.3-3.1c-0.7,0.7-1.3,1.2-2,1.8c-0.7,0.5-1.4,1-2.1,1.3
		c-0.7,0.4-1.5,0.6-2.3,0.8c-0.8,0.2-1.8,0.3-2.8,0.3c-0.8,0-1.6-0.1-2.4-0.4c-0.8-0.2-1.5-0.6-2.1-1.1c-0.6-0.5-1.1-1.2-1.5-2
		c-0.4-0.8-0.6-1.7-0.6-2.9c0-1,0.3-2,0.9-2.9c0.6-0.9,1.5-1.7,2.8-2.3c1.3-0.7,2.9-1.2,4.8-1.6c2-0.4,4.3-0.6,7.1-0.7v-2.6
		c0-2.3-0.5-4-1.5-5.2c-1-1.2-2.4-1.8-4.3-1.8c-1.2,0-2.2,0.2-3,0.5c-0.8,0.3-1.5,0.7-2.1,1.1c-0.6,0.4-1,0.8-1.4,1.1
		c-0.4,0.3-0.7,0.5-0.9,0.5c-0.3,0-0.6-0.1-0.7-0.4l-0.4-0.7c1.3-1.3,2.6-2.2,4-2.9c1.4-0.7,3-1,4.8-1c1.3,0,2.5,0.2,3.4,0.6
		c1,0.4,1.8,1,2.4,1.8c0.6,0.8,1.1,1.7,1.5,2.8c0.3,1.1,0.5,2.3,0.5,3.7v14c0.4,0,0.8,0,1.1,0c0.4,0,0.6,0,0.8,0c0.2,0,0.3,0,0.4,0
		C396.2,208,396.6,208.3,396.6,208.9 M391,198c-2.3,0.1-4.3,0.2-6,0.5c-1.7,0.3-3.1,0.7-4.2,1.2c-1.1,0.5-1.9,1.1-2.4,1.8
		c-0.5,0.7-0.8,1.5-0.8,2.3c0,0.8,0.1,1.5,0.4,2.1c0.3,0.6,0.6,1.1,1.1,1.5c0.4,0.4,1,0.7,1.5,0.8c0.6,0.2,1.2,0.3,1.8,0.3
		c0.9,0,1.8-0.1,2.6-0.3c0.8-0.2,1.5-0.5,2.2-0.9c0.7-0.4,1.3-0.8,1.9-1.3c0.6-0.5,1.2-1.1,1.7-1.6V198z"/>
	<path class="st0" d="M433.6,208.9v1h-3.2h-0.9h0c-0.5,0-0.8-0.2-0.9-0.7l-0.3-3.1c-0.7,0.7-1.3,1.2-2,1.8c-0.7,0.5-1.4,1-2.1,1.3
		c-0.7,0.4-1.5,0.6-2.3,0.8c-0.8,0.2-1.8,0.3-2.8,0.3c-0.8,0-1.6-0.1-2.4-0.4c-0.8-0.2-1.5-0.6-2.1-1.1c-0.6-0.5-1.1-1.2-1.5-2
		c-0.4-0.8-0.6-1.7-0.6-2.9c0-1,0.3-2,0.9-2.9c0.6-0.9,1.5-1.7,2.8-2.3c1.3-0.7,2.9-1.2,4.8-1.6c2-0.4,4.3-0.6,7.1-0.7v-2.6
		c0-2.3-0.5-4-1.5-5.2c-1-1.2-2.4-1.8-4.3-1.8c-1.2,0-2.2,0.2-3,0.5c-0.8,0.3-1.5,0.7-2.1,1.1c-0.6,0.4-1,0.8-1.4,1.1
		c-0.4,0.3-0.7,0.5-0.9,0.5c-0.3,0-0.6-0.1-0.7-0.4l-0.4-0.7c1.3-1.3,2.6-2.2,4-2.9c1.4-0.7,3-1,4.8-1c1.3,0,2.5,0.2,3.4,0.6
		c1,0.4,1.8,1,2.4,1.8c0.6,0.8,1.1,1.7,1.5,2.8c0.3,1.1,0.5,2.3,0.5,3.7v14c0.4,0,0.8,0,1.1,0c0.4,0,0.6,0,0.8,0c0.2,0,0.3,0,0.4,0
		C433.3,208,433.6,208.3,433.6,208.9 M428.1,198c-2.3,0.1-4.3,0.2-6,0.5c-1.7,0.3-3.1,0.7-4.2,1.2c-1.1,0.5-1.9,1.1-2.4,1.8
		c-0.5,0.7-0.8,1.5-0.8,2.3c0,0.8,0.1,1.5,0.4,2.1c0.3,0.6,0.6,1.1,1.1,1.5c0.4,0.4,1,0.7,1.5,0.8c0.6,0.2,1.2,0.3,1.8,0.3
		c0.9,0,1.8-0.1,2.6-0.3c0.8-0.2,1.5-0.5,2.2-0.9c0.7-0.4,1.3-0.8,1.9-1.3c0.6-0.5,1.2-1.1,1.7-1.6V198z"/>
	<path class="st0" d="M447.6,208.9v1H444h-2.3h-3.6v-1c0-0.5,0.3-0.8,1-0.9c0.1,0,0.2,0,0.3,0c0.1,0,0.4,0,0.8,0
		c0.4,0,0.9,0,1.5-0.1V176c-0.4,0-0.8,0-1.2,0c-0.4,0-0.6,0-0.7,0c-0.1,0-0.3,0-0.4,0c-0.1,0-0.2,0-0.3,0c-0.6,0-1-0.3-1-0.9v-1h3.6
		h2.3v33.8c0.4,0,0.8,0,1.2,0c0.4,0,0.6,0,0.7,0c0.1,0,0.3,0,0.4,0c0.1,0,0.2,0,0.3,0C447.3,208,447.6,208.3,447.6,208.9"/>
	<path class="st0" d="M475.1,209.1v0.7h-3.3l-1.3,0c-0.4,0-0.6-0.2-0.7-0.6l-0.2-3.9c-1.1,1.5-2.4,2.6-3.8,3.5
		c-1.5,0.9-3.1,1.3-4.9,1.3c-3,0-5.3-1-7-3.1c-1.7-2.1-2.5-5.2-2.5-9.4c0-1.8,0.2-3.5,0.7-5c0.5-1.5,1.2-2.9,2.1-4
		c0.9-1.1,2-2,3.3-2.7c1.3-0.7,2.8-1,4.6-1c1.7,0,3.1,0.3,4.3,0.9c1.2,0.6,2.3,1.5,3.1,2.7V176c-0.4,0-0.8,0-1.2,0
		c-0.4,0-0.6,0-0.7,0c-0.1,0-0.3,0-0.4,0c-0.1,0-0.2,0-0.3,0c-0.6,0-1-0.3-1-0.9v-1h3.5h2.3v33.8c0.4,0,0.7,0,1.1,0
		c0.3,0,0.5,0,0.7,0c0.1,0,0.2,0,0.3,0c0.1,0,0.2,0,0.2,0c0.7,0,1,0.3,1,0.9V209.1z M469.5,190.6c-1-1.4-2-2.4-3.1-2.9
		c-1.1-0.6-2.4-0.9-3.9-0.9c-1.4,0-2.7,0.3-3.8,0.8c-1.1,0.5-2,1.3-2.7,2.2c-0.7,1-1.3,2.1-1.6,3.4c-0.4,1.3-0.6,2.8-0.6,4.4
		c0,3.6,0.7,6.3,2,8c1.3,1.7,3.3,2.6,5.8,2.6c1.6,0,3.1-0.4,4.4-1.3c1.3-0.8,2.5-2,3.5-3.5V190.6z"/>
	<path class="st0" d="M493.8,185.7c1.2,0.5,2.2,1.2,3,2.1c0.9,0.9,1.5,2,2,3.4c0.5,1.3,0.7,2.9,0.7,4.6c0,0.4-0.1,0.6-0.2,0.7
		c-0.1,0.1-0.3,0.2-0.5,0.2h-17.7v0.5c0,1.8,0.2,3.4,0.6,4.8c0.4,1.4,1,2.6,1.8,3.5c0.8,0.9,1.7,1.7,2.8,2.1
		c1.1,0.5,2.4,0.7,3.7,0.7c1.2,0,2.3-0.1,3.2-0.4c0.9-0.3,1.7-0.6,2.3-0.9c0.6-0.3,1.1-0.6,1.5-0.9c0.4-0.3,0.6-0.4,0.8-0.4
		c0.2,0,0.4,0.1,0.5,0.2l0.6,0.8c-0.4,0.5-0.9,0.9-1.6,1.4c-0.6,0.4-1.4,0.8-2.2,1.1c-0.8,0.3-1.6,0.5-2.6,0.7
		c-0.9,0.2-1.8,0.3-2.7,0.3c-1.7,0-3.2-0.3-4.6-0.9c-1.4-0.6-2.6-1.4-3.5-2.5c-1-1.1-1.7-2.5-2.3-4.1c-0.5-1.6-0.8-3.5-0.8-5.5
		c0-1.8,0.3-3.4,0.8-4.9c0.5-1.5,1.2-2.8,2.2-3.8c0.9-1.1,2.1-1.9,3.5-2.5c1.4-0.6,2.9-0.9,4.7-0.9
		C491.3,185,492.6,185.2,493.8,185.7 M486.6,187.3c-1,0.4-1.9,1-2.6,1.7c-0.7,0.7-1.3,1.6-1.8,2.7c-0.5,1-0.8,2.2-0.9,3.5h16.1
		c0-1.3-0.2-2.5-0.5-3.5c-0.4-1-0.9-1.9-1.5-2.6c-0.7-0.7-1.4-1.3-2.4-1.7c-0.9-0.4-1.9-0.6-3-0.6
		C488.7,186.7,487.6,186.9,486.6,187.3"/>
	<path class="st0" d="M524.6,208.9v1h-3.2h-0.9h0c-0.5,0-0.8-0.2-0.9-0.7l-0.3-3.1c-0.7,0.7-1.3,1.2-2,1.8c-0.7,0.5-1.4,1-2.1,1.3
		c-0.7,0.4-1.5,0.6-2.3,0.8c-0.8,0.2-1.8,0.3-2.8,0.3c-0.8,0-1.6-0.1-2.4-0.4c-0.8-0.2-1.5-0.6-2.1-1.1c-0.6-0.5-1.1-1.2-1.5-2
		c-0.4-0.8-0.6-1.7-0.6-2.9c0-1,0.3-2,0.9-2.9c0.6-0.9,1.5-1.7,2.8-2.3c1.3-0.7,2.9-1.2,4.8-1.6c2-0.4,4.3-0.6,7.1-0.7v-2.6
		c0-2.3-0.5-4-1.5-5.2c-1-1.2-2.4-1.8-4.3-1.8c-1.2,0-2.2,0.2-3,0.5c-0.8,0.3-1.5,0.7-2.1,1.1c-0.6,0.4-1,0.8-1.4,1.1
		c-0.4,0.3-0.7,0.5-0.9,0.5c-0.3,0-0.6-0.1-0.7-0.4l-0.4-0.7c1.3-1.3,2.6-2.2,4-2.9c1.4-0.7,3-1,4.8-1c1.3,0,2.5,0.2,3.4,0.6
		c1,0.4,1.8,1,2.4,1.8c0.6,0.8,1.1,1.7,1.5,2.8c0.3,1.1,0.5,2.3,0.5,3.7v14c0.4,0,0.8,0,1.1,0c0.4,0,0.6,0,0.8,0c0.2,0,0.3,0,0.4,0
		C524.2,208,524.6,208.3,524.6,208.9 M519,198c-2.3,0.1-4.3,0.2-6,0.5c-1.7,0.3-3.1,0.7-4.2,1.2c-1.1,0.5-1.9,1.1-2.4,1.8
		c-0.5,0.7-0.8,1.5-0.8,2.3c0,0.8,0.1,1.5,0.4,2.1c0.3,0.6,0.6,1.1,1.1,1.5c0.4,0.4,1,0.7,1.5,0.8c0.6,0.2,1.2,0.3,1.8,0.3
		c0.9,0,1.8-0.1,2.6-0.3c0.8-0.2,1.5-0.5,2.2-0.9c0.7-0.4,1.3-0.8,1.9-1.3c0.6-0.5,1.2-1.1,1.7-1.6V198z"/>
	<path class="st0" d="M564.2,209.1v0.7h-3.3l-1.3,0c-0.4,0-0.6-0.2-0.7-0.6l-0.2-3.9c-1.1,1.5-2.4,2.6-3.8,3.5
		c-1.4,0.9-3.1,1.3-4.9,1.3c-3,0-5.3-1-7-3.1c-1.7-2.1-2.5-5.2-2.5-9.4c0-1.8,0.2-3.5,0.7-5c0.5-1.5,1.2-2.9,2.1-4
		c0.9-1.1,2-2,3.3-2.7c1.3-0.7,2.8-1,4.6-1c1.7,0,3.1,0.3,4.3,0.9c1.2,0.6,2.3,1.5,3.1,2.7V176c-0.4,0-0.8,0-1.2,0
		c-0.4,0-0.6,0-0.7,0c-0.1,0-0.3,0-0.4,0c-0.1,0-0.2,0-0.3,0c-0.6,0-1-0.3-1-0.9v-1h3.5h2.3v33.8c0.4,0,0.7,0,1.1,0
		c0.3,0,0.5,0,0.7,0c0.1,0,0.2,0,0.3,0c0.1,0,0.2,0,0.2,0c0.7,0,1,0.3,1,0.9V209.1z M558.5,190.6c-1-1.4-2-2.4-3.1-2.9
		c-1.1-0.6-2.4-0.9-3.9-0.9c-1.4,0-2.7,0.3-3.8,0.8c-1.1,0.5-2,1.3-2.7,2.2c-0.7,1-1.3,2.1-1.6,3.4c-0.4,1.3-0.6,2.8-0.6,4.4
		c0,3.6,0.7,6.3,2,8c1.3,1.7,3.3,2.6,5.8,2.6c1.6,0,3.1-0.4,4.4-1.3c1.3-0.8,2.5-2,3.5-3.5V190.6z"/>
	<path class="st0" d="M582.8,185.7c1.2,0.5,2.2,1.2,3,2.1c0.9,0.9,1.5,2,2,3.4c0.5,1.3,0.7,2.9,0.7,4.6c0,0.4-0.1,0.6-0.2,0.7
		c-0.1,0.1-0.3,0.2-0.5,0.2h-17.7v0.5c0,1.8,0.2,3.4,0.6,4.8c0.4,1.4,1,2.6,1.8,3.5c0.8,0.9,1.7,1.7,2.9,2.1
		c1.1,0.5,2.4,0.7,3.7,0.7c1.2,0,2.3-0.1,3.2-0.4c0.9-0.3,1.7-0.6,2.3-0.9c0.6-0.3,1.1-0.6,1.5-0.9c0.4-0.3,0.6-0.4,0.8-0.4
		c0.2,0,0.4,0.1,0.5,0.2l0.6,0.8c-0.4,0.5-0.9,0.9-1.6,1.4c-0.6,0.4-1.4,0.8-2.2,1.1c-0.8,0.3-1.6,0.5-2.6,0.7
		c-0.9,0.2-1.8,0.3-2.7,0.3c-1.7,0-3.2-0.3-4.6-0.9c-1.4-0.6-2.6-1.4-3.5-2.5c-1-1.1-1.7-2.5-2.3-4.1c-0.5-1.6-0.8-3.5-0.8-5.5
		c0-1.8,0.3-3.4,0.8-4.9c0.5-1.5,1.2-2.8,2.2-3.8c0.9-1.1,2.1-1.9,3.5-2.5c1.4-0.6,2.9-0.9,4.7-0.9
		C580.4,185,581.7,185.2,582.8,185.7 M575.6,187.3c-1,0.4-1.9,1-2.6,1.7c-0.7,0.7-1.3,1.6-1.8,2.7c-0.5,1-0.7,2.2-0.9,3.5h16.1
		c0-1.3-0.2-2.5-0.5-3.5c-0.4-1-0.9-1.9-1.5-2.6c-0.7-0.7-1.4-1.3-2.4-1.7c-0.9-0.4-1.9-0.6-3-0.6
		C577.8,186.7,576.6,186.9,575.6,187.3"/>
	<path class="st0" d="M614.2,208.9v1h-3.5h-2.3h-3.6v-1c0-0.5,0.3-0.8,1-0.9c0.1,0,0.2,0,0.3,0c0.1,0,0.4,0,0.8,0
		c0.4,0,0.9,0,1.5-0.1V176c-0.4,0-0.8,0-1.2,0c-0.4,0-0.6,0-0.7,0c-0.1,0-0.3,0-0.4,0c-0.1,0-0.2,0-0.3,0c-0.6,0-1-0.3-1-0.9v-1h3.6
		h2.3v33.8c0.4,0,0.8,0,1.2,0c0.4,0,0.6,0,0.7,0c0.1,0,0.3,0,0.4,0c0.1,0,0.2,0,0.3,0C613.9,208,614.2,208.3,614.2,208.9"/>
	<path class="st0" d="M633.9,185.9c1.4,0.6,2.6,1.4,3.5,2.5c1,1.1,1.7,2.4,2.2,4c0.5,1.5,0.8,3.3,0.8,5.2c0,1.9-0.2,3.6-0.8,5.2
		c-0.5,1.5-1.2,2.9-2.2,4c-1,1.1-2.1,1.9-3.5,2.5c-1.4,0.6-3,0.9-4.7,0.9c-1.8,0-3.3-0.3-4.7-0.9c-1.4-0.6-2.6-1.4-3.5-2.5
		c-1-1.1-1.7-2.4-2.2-4c-0.5-1.5-0.7-3.3-0.7-5.2c0-1.9,0.3-3.6,0.7-5.2c0.5-1.5,1.2-2.9,2.2-4c1-1.1,2.1-1.9,3.5-2.5
		c1.4-0.6,3-0.9,4.7-0.9C630.9,185,632.5,185.3,633.9,185.9 M633,207.6c1.1-0.5,2-1.2,2.7-2.2c0.7-0.9,1.3-2.1,1.6-3.4
		c0.4-1.3,0.5-2.8,0.5-4.4c0-1.6-0.2-3.1-0.5-4.4c-0.4-1.3-0.9-2.5-1.6-3.4c-0.7-0.9-1.6-1.7-2.7-2.2c-1.1-0.5-2.4-0.8-3.8-0.8
		c-1.5,0-2.7,0.3-3.8,0.8c-1.1,0.5-2,1.2-2.7,2.2c-0.7,0.9-1.3,2.1-1.6,3.4c-0.4,1.3-0.6,2.8-0.6,4.4c0,1.6,0.2,3.1,0.6,4.4
		c0.4,1.3,0.9,2.4,1.6,3.4c0.7,0.9,1.6,1.7,2.7,2.2c1.1,0.5,2.4,0.7,3.8,0.7C630.6,208.3,631.9,208.1,633,207.6"/>
	<path class="st0" d="M661.2,202.7c0,1.1-0.2,2.1-0.6,3c-0.4,0.9-0.9,1.7-1.7,2.4c-0.7,0.7-1.6,1.2-2.7,1.6
		c-1.1,0.4-2.3,0.6-3.6,0.6c-2.4,0-4.9-0.5-7.2-1.4v-6h1.2c0.7,0,1,0.4,1.1,1.2c0,0.1,0,0.3,0.1,0.6c0,0.3,0.1,0.7,0.1,1.3
		c0,0.5,0.1,1.1,0.1,1.7c1.3,0.5,2.9,0.8,4.8,0.8c1,0,1.9-0.1,2.7-0.4c0.8-0.3,1.4-0.7,2-1.2c0.5-0.5,0.9-1.1,1.2-1.7
		c0.3-0.7,0.4-1.4,0.4-2.1c0-0.8-0.2-1.5-0.6-2c-0.4-0.5-0.9-1-1.5-1.4c-0.6-0.4-1.4-0.7-2.2-1c-0.8-0.3-1.6-0.5-2.5-0.8
		c-0.9-0.3-1.7-0.5-2.5-0.9c-0.8-0.3-1.5-0.7-2.2-1.2c-0.6-0.5-1.2-1.1-1.5-1.7c-0.4-0.7-0.6-1.5-0.6-2.5c0-0.9,0.2-1.7,0.6-2.5
		c0.4-0.8,0.9-1.5,1.6-2.1c0.7-0.6,1.5-1.1,2.5-1.4c1-0.4,2.1-0.5,3.4-0.5c1.8,0,3.9,0.4,6.5,1.3v5.8h-1.2c-0.7,0-1-0.4-1.1-1.2
		c0-0.1,0-0.3-0.1-0.6c0-0.3-0.1-0.7-0.1-1.3c0-0.5-0.1-1.1-0.1-1.7c-1.3-0.4-2.6-0.6-3.9-0.6c-0.9,0-1.7,0.1-2.4,0.4
		c-0.7,0.3-1.4,0.6-1.9,1c-0.5,0.4-0.9,0.9-1.2,1.5c-0.3,0.6-0.4,1.2-0.4,1.8c0,0.8,0.2,1.4,0.6,1.9c0.4,0.5,0.9,0.9,1.5,1.3
		c0.6,0.4,1.4,0.7,2.2,0.9c0.8,0.3,1.7,0.5,2.5,0.8c0.9,0.3,1.7,0.6,2.5,0.9c0.8,0.3,1.5,0.7,2.2,1.2c0.6,0.5,1.2,1.1,1.5,1.7
		C661,200.9,661.2,201.7,661.2,202.7"/>
	<path class="st0" d="M379.3,239.1c3.8,1.7,5.7,4.5,5.7,8.5c0,3.4-1.1,6.2-3.3,8.4c-2.3,2.3-5.4,3.4-9.3,3.4c-1.6,0-3.3-0.2-5.1-0.5
		c-1.8-0.3-3.2-0.7-4.2-1l-1.5-0.5V248h2.5c0.6,0,1,0.3,1.1,0.9c0.1,0.2,0.1,1.1,0.2,2.6c0.1,1.5,0.2,2.3,0.2,2.3
		c2.6,1,4.7,1.4,6.4,1.4c1.7,0,2.9-0.2,3.9-0.5c0.9-0.3,1.8-0.8,2.4-1.4c1.3-1.2,2-2.9,2-5c0-2-0.9-3.5-2.8-4.6
		c-0.8-0.5-1.8-0.9-2.9-1.3c-3.3-1-5.5-1.8-6.6-2.3c-1.1-0.5-2-1.1-2.9-1.9c-1.9-1.7-2.8-4-2.8-7c0-2.8,1-5.2,3-7.2
		c2.1-2.1,5-3.2,8.4-3.2c3.4,0,6.9,0.7,10.5,2.2v8.6h-2.5c-0.6,0-1-0.3-1.1-0.9c0-0.1-0.2-1.7-0.4-4.7c-2.3-0.7-4.4-1-6.2-1
		c-2.2,0-3.9,0.6-5.2,1.7c-1.2,1-1.8,2.4-1.8,4.1c0,1.8,0.9,3.3,2.8,4.4c0.8,0.5,1.8,0.9,2.9,1.3C376,237.8,378.2,238.6,379.3,239.1
		L379.3,239.1z"/>
	<path class="st0" d="M405.4,233c1.6,0.7,2.9,1.6,4,2.8c1.1,1.2,1.9,2.6,2.5,4.3c0.6,1.7,0.9,3.6,0.9,5.6c0,2.1-0.3,4-0.9,5.7
		c-0.6,1.7-1.4,3.1-2.5,4.3c-1.1,1.2-2.4,2.1-4,2.7c-1.6,0.6-3.3,0.9-5.3,0.9c-1.9,0-3.7-0.3-5.3-0.9c-1.6-0.6-2.9-1.5-4-2.7
		c-1.1-1.2-1.9-2.6-2.5-4.3c-0.6-1.7-0.9-3.6-0.9-5.7c0-2.1,0.3-4,0.9-5.6c0.6-1.7,1.4-3.1,2.5-4.3c1.1-1.2,2.4-2.1,4-2.8
		c1.6-0.7,3.3-1,5.3-1C402.1,232,403.8,232.3,405.4,233 M400.1,255.8c2.6,0,4.6-0.9,5.9-2.6c1.3-1.8,1.9-4.2,1.9-7.4
		c0-3.2-0.7-5.6-1.9-7.4c-1.3-1.8-3.3-2.6-5.9-2.6c-1.3,0-2.5,0.2-3.5,0.7c-1,0.4-1.8,1.1-2.4,2c-0.7,0.9-1.2,1.9-1.5,3.2
		c-0.3,1.3-0.5,2.7-0.5,4.2c0,1.6,0.2,3,0.5,4.2c0.3,1.2,0.8,2.3,1.5,3.1c0.7,0.8,1.5,1.5,2.4,1.9
		C397.6,255.5,398.8,255.7,400.1,255.8L400.1,255.8z"/>
	<path class="st0" d="M442.5,245.6L442.5,245.6v0.2c0,2.2-0.3,4.1-0.9,5.8c-0.6,1.7-1.4,3.1-2.5,4.3c-1,1.2-2.3,2-3.7,2.6
		c-1.4,0.6-3,0.9-4.6,0.9c-4.7,0-11.7-1.5-11.7-1.5v-0.4v-3.8v-29.5c-0.6-0.1-3-0.5-3.4-0.6c-0.5-0.1-0.8-0.5-0.8-1v-2.3h4.1h0.2
		h4.5v15.9c1.1-1.3,2.4-2.3,3.8-3.1c1.4-0.8,3-1.2,4.9-1.2c1.5,0,2.9,0.3,4.2,0.9c1.2,0.6,2.3,1.4,3.1,2.6c0.9,1.2,1.5,2.6,2,4.2
		C442.1,241.4,442.4,243.4,442.5,245.6L442.5,245.6z M435.6,253.1c0.7-0.8,1.2-1.9,1.5-3.1c0.3-1.2,0.5-2.5,0.5-4v-0.4
		c0-1.7-0.2-3.2-0.5-4.5c-0.3-1.2-0.8-2.3-1.3-3c-0.6-0.8-1.3-1.4-2.1-1.7c-0.8-0.4-1.8-0.5-2.9-0.5c-1.5,0-2.9,0.3-4,1
		c-1.2,0.7-2.2,1.7-3.2,3v6.2v6.6v2.3c0.7,0.2,2.9,0.7,5.2,0.8c0.3,0,0.7,0,1,0h0.3c1-0.1,2-0.3,2.9-0.7c0.9-0.4,1.8-1.1,2.4-1.9
		L435.6,253.1z"/>
	<path class="st0" d="M453.6,237.9c1.9-3.9,4.6-5.9,8.1-5.9c1.4,0,2.6,0.3,3.6,0.9l-0.6,3.5c-0.1,0.4-0.4,0.7-0.7,0.7
		c-0.3,0-0.8-0.1-1.3-0.2c-0.5-0.2-1.2-0.2-2.1-0.2c-3,0-5.3,1.8-6.8,5.5v13.1c0.4,0.1,1.4,0.3,3,0.6c0.5,0.1,0.8,0.4,0.8,1v2.3
		h-12.2v-2.3c0-0.5,0.3-0.9,0.8-1l3-0.6v-18.9c-1.7-0.3-2.7-0.6-3-0.6c-0.5-0.1-0.8-0.4-0.8-1v-2.3h3.8h2.7c0.5,0,0.8,0.1,1,0.3
		c0.2,0.2,0.3,0.5,0.4,1L453.6,237.9L453.6,237.9z"/>
	<path class="st0" d="M478.7,232.1c1.6,0,3.1,0.3,4.4,0.8c1.3,0.5,2.5,1.3,3.5,2.3c1,1,1.7,2.2,2.3,3.7c0.5,1.5,0.8,3.1,0.8,5
		c0,0.7-0.1,1.2-0.2,1.5c-0.2,0.2-0.4,0.4-0.9,0.4h-17.7c0,1.7,0.3,3.1,0.7,4.4c0.4,1.2,1,2.3,1.7,3.1c0.7,0.8,1.6,1.5,2.6,1.9
		c1,0.4,2.1,0.6,3.4,0.6c1.2,0,2.2-0.1,3-0.4c0.8-0.3,1.6-0.6,2.2-0.9c0.6-0.3,1.1-0.6,1.5-0.9c0.4-0.3,0.8-0.4,1.1-0.4
		c0.4,0,0.7,0.2,0.9,0.4l1.3,1.7c-0.6,0.7-1.3,1.3-2.1,1.8c-0.8,0.5-1.7,0.9-2.6,1.3c-0.9,0.3-1.9,0.6-2.8,0.7
		c-1,0.2-1.9,0.2-2.9,0.2c-1.8,0-3.5-0.3-5.1-0.9c-1.5-0.6-2.9-1.5-4-2.8c-1.1-1.2-2-2.7-2.6-4.5c-0.6-1.8-0.9-3.8-0.9-6.1
		c0-1.9,0.3-3.6,0.9-5.2c0.6-1.6,1.4-3,2.5-4.2c1.1-1.2,2.4-2.1,3.9-2.8C475.1,232.4,476.9,232,478.7,232.1L478.7,232.1z
		 M478.8,235.5c-2.3,0-4,0.7-5.3,2c-1.3,1.3-2.1,3.1-2.4,5.4h14.4c0-1.1-0.2-2.1-0.4-3c-0.3-0.9-0.7-1.7-1.3-2.3
		c-0.6-0.7-1.3-1.2-2.1-1.5C480.8,235.7,479.9,235.5,478.8,235.5L478.8,235.5z"/>
	<path class="st0" d="M521.4,232.5v2.3c0,0.5-0.3,0.9-0.8,1c-0.2,0-1,0.2-2.6,0.5l-9.3,22.8h-4.2l-9.3-22.8
		c-0.3-0.1-0.8-0.2-1.4-0.3c-0.7-0.1-1-0.2-1.1-0.2c-0.5-0.1-0.8-0.4-0.8-1v-2.3h11.9v2.3c0,0.6-0.3,0.9-0.8,1
		c-0.3,0.1-1.3,0.3-2.9,0.6l5.6,14.3c0.3,0.8,0.6,2,0.9,3.7c0.4-1.7,0.7-3,1-3.8l5.7-14.2c-0.4-0.1-1.4-0.3-3-0.6
		c-0.5-0.1-0.8-0.4-0.8-1v-2.3h10L521.4,232.5z"/>
	<path class="st0" d="M536.8,256.7v2.3h-12.2v-2.3c0-0.5,0.3-0.9,0.8-1c0.5-0.1,3-0.6,3-0.6v-18.9c0,0-2.5-0.5-3-0.6
		c-0.5-0.1-0.8-0.5-0.8-1v-2.3h8.4v22.7c0,0,2.5,0.5,3,0.6C536.4,255.9,536.8,256.3,536.8,256.7 M528.3,226.4
		c-0.3-0.3-0.6-0.7-0.7-1c-0.2-0.4-0.3-0.8-0.3-1.3c0-0.4,0.1-0.9,0.3-1.3c0.2-0.4,0.4-0.8,0.7-1.1c0.3-0.3,0.7-0.6,1-0.7
		c0.4-0.2,0.8-0.3,1.3-0.3c0.4,0,0.9,0.1,1.3,0.3c0.4,0.2,0.7,0.4,1,0.7c0.3,0.3,0.6,0.7,0.7,1.1c0.2,0.4,0.3,0.9,0.3,1.3
		c0,0.4-0.1,0.9-0.3,1.3c-0.2,0.4-0.4,0.7-0.7,1c-0.3,0.3-0.7,0.6-1,0.7c-0.4,0.2-0.8,0.3-1.3,0.3s-0.9-0.1-1.3-0.3
		C529,227,528.7,226.8,528.3,226.4L528.3,226.4z"/>
	<path class="st0" d="M568.4,232.5v2.3c0,0.5-0.3,0.9-0.8,1c-0.2,0-1,0.2-2.6,0.5l-9.3,22.8h-4.2l-9.3-22.8
		c-0.3-0.1-0.8-0.2-1.4-0.3c-0.7-0.1-1-0.2-1.1-0.2c-0.5-0.1-0.8-0.4-0.8-1v-2.3h11.9v2.3c0,0.6-0.3,0.9-0.8,1
		c-0.3,0.1-1.3,0.3-2.9,0.6l5.6,14.3c0.3,0.8,0.6,2,0.9,3.7c0.4-1.7,0.7-3,1-3.8l5.7-14.2c-0.4-0.1-1.4-0.3-3-0.6
		c-0.5-0.1-0.8-0.4-0.8-1v-2.3h10L568.4,232.5z"/>
	<path class="st0" d="M583.7,256.7v2.3h-12.2v-2.3c0-0.5,0.3-0.9,0.8-1c0.5-0.1,3-0.6,3-0.6v-18.9c0,0-2.5-0.5-3-0.6
		c-0.5-0.1-0.8-0.5-0.8-1v-2.3h8.4v22.7c0,0,2.5,0.5,3,0.6C583.4,255.9,583.7,256.3,583.7,256.7 M575.3,226.4
		c-0.3-0.3-0.6-0.7-0.7-1c-0.2-0.4-0.3-0.8-0.3-1.3c0-0.4,0.1-0.9,0.3-1.3c0.2-0.4,0.4-0.8,0.7-1.1c0.3-0.3,0.7-0.6,1-0.7
		c0.4-0.2,0.8-0.3,1.3-0.3c0.4,0,0.9,0.1,1.3,0.3c0.4,0.2,0.7,0.4,1,0.7c0.3,0.3,0.6,0.7,0.7,1.1c0.2,0.4,0.3,0.9,0.3,1.3
		c0,0.4-0.1,0.9-0.3,1.3c-0.2,0.4-0.4,0.7-0.7,1c-0.3,0.3-0.7,0.6-1,0.7c-0.4,0.2-0.8,0.3-1.3,0.3c-0.4,0-0.9-0.1-1.3-0.3
		C576,227,575.7,226.8,575.3,226.4L575.3,226.4z"/>
	<path class="st0" d="M598.5,232.1c1.6,0,3.1,0.3,4.4,0.8c1.3,0.5,2.5,1.3,3.5,2.3c1,1,1.7,2.2,2.3,3.7c0.5,1.5,0.8,3.1,0.8,5
		c0,0.7-0.1,1.2-0.2,1.5c-0.2,0.2-0.4,0.4-0.9,0.4h-17.7c0,1.7,0.3,3.1,0.7,4.4c0.4,1.2,1,2.3,1.7,3.1c0.7,0.8,1.6,1.5,2.6,1.9
		c1,0.4,2.1,0.6,3.4,0.6c1.2,0,2.2-0.1,3-0.4c0.8-0.3,1.6-0.6,2.2-0.9c0.6-0.3,1.1-0.6,1.5-0.9c0.4-0.3,0.8-0.4,1.1-0.4
		c0.4,0,0.7,0.2,0.9,0.4l1.3,1.7c-0.6,0.7-1.3,1.3-2.1,1.8c-0.8,0.5-1.7,0.9-2.6,1.3c-0.9,0.3-1.9,0.6-2.8,0.7
		c-1,0.2-1.9,0.2-2.9,0.2c-1.8,0-3.5-0.3-5.1-0.9c-1.5-0.6-2.9-1.5-4-2.8c-1.1-1.2-2-2.7-2.6-4.5c-0.6-1.8-0.9-3.8-0.9-6.1
		c0-1.9,0.3-3.6,0.9-5.2c0.6-1.6,1.4-3,2.5-4.2c1.1-1.2,2.4-2.1,3.9-2.8C594.9,232.4,596.7,232,598.5,232.1L598.5,232.1z
		 M598.6,235.5c-2.3,0-4,0.7-5.3,2c-1.3,1.3-2.1,3.1-2.4,5.4h14.4c0-1.1-0.2-2.1-0.4-3c-0.3-0.9-0.7-1.7-1.3-2.3
		c-0.6-0.7-1.3-1.2-2.1-1.5C600.6,235.7,599.7,235.5,598.6,235.5L598.6,235.5z"/>
	<path class="st0" d="M620.8,236.3c2.6-2.9,5.5-4.3,8.8-4.3c2.9,0,5.1,0.9,6.6,2.8c1.5,1.8,2.3,4.2,2.3,7.3v13.1
		c1.7,0.3,2.7,0.5,3,0.6c0.6,0.1,0.8,0.4,0.8,1v2.3h-8.5v-16.9c0-4.2-1.9-6.3-5.6-6.3c-2.6,0-5,1.2-7.2,3.7v15.7
		c0.1,0,1.1,0.2,3,0.6c0.6,0.1,0.8,0.4,0.8,1v2.3h-12.2v-2.3c0-0.5,0.3-0.9,0.8-1l3-0.6v-18.9c-1.7-0.3-2.7-0.6-3-0.6
		c-0.5-0.1-0.8-0.4-0.8-1v-2.3h3.8h2.8c0.7,0,1.1,0.3,1.3,1L620.8,236.3L620.8,236.3z"/>
	<path class="st0" d="M650.2,257.7c-1.1-1.2-1.7-2.9-1.7-5.1v-16.3h-3.2c-0.3,0-0.5-0.1-0.7-0.2c-0.2-0.2-0.3-0.4-0.3-0.8v-1.9
		l4.4-0.5l1.1-8.2c0-0.3,0.1-0.5,0.3-0.6c0.2-0.2,0.4-0.2,0.7-0.2h2.4v9.1h7.6v3.4h-7.6v15.9c0,1.1,0.3,2,0.8,2.5
		c0.6,0.6,1.3,0.8,2.1,0.8c0.5,0,0.9-0.1,1.3-0.2c0.4-0.1,0.7-0.3,0.9-0.4c0.3-0.2,0.5-0.3,0.7-0.4c0.2-0.1,0.3-0.2,0.5-0.2
		c0.2,0,0.4,0.2,0.6,0.4l1.4,2.2c-0.8,0.8-1.8,1.3-2.9,1.8c-1.1,0.4-2.3,0.6-3.5,0.6C653,259.4,651.4,258.8,650.2,257.7"/>
	<path class="st0" d="M676.2,232.1c1.6,0,3.1,0.3,4.4,0.8c1.3,0.5,2.5,1.3,3.5,2.3c1,1,1.7,2.2,2.3,3.7c0.6,1.5,0.8,3.1,0.8,5
		c0,0.7-0.1,1.2-0.2,1.5c-0.2,0.2-0.4,0.4-0.9,0.4h-17.7c0,1.7,0.3,3.1,0.7,4.4c0.4,1.2,1,2.3,1.7,3.1c0.7,0.8,1.6,1.5,2.6,1.9
		c1,0.4,2.1,0.6,3.4,0.6c1.2,0,2.2-0.1,3-0.4c0.8-0.3,1.6-0.6,2.2-0.9c0.6-0.3,1.1-0.6,1.5-0.9c0.4-0.3,0.8-0.4,1.1-0.4
		c0.4,0,0.7,0.2,0.9,0.4l1.3,1.7c-0.6,0.7-1.3,1.3-2.1,1.8c-0.8,0.5-1.7,0.9-2.6,1.3c-0.9,0.3-1.9,0.6-2.8,0.7
		c-1,0.2-1.9,0.2-2.9,0.2c-1.8,0-3.5-0.3-5.1-0.9c-1.5-0.6-2.9-1.5-4-2.8c-1.1-1.2-2-2.7-2.6-4.5c-0.6-1.8-0.9-3.8-0.9-6.1
		c0-1.9,0.3-3.6,0.9-5.2c0.6-1.6,1.4-3,2.5-4.2c1.1-1.2,2.4-2.1,3.9-2.8C672.6,232.4,674.3,232,676.2,232.1L676.2,232.1z
		 M676.3,235.5c-2.3,0-4,0.7-5.3,2c-1.3,1.3-2.1,3.1-2.4,5.4H683c0-1.1-0.2-2.1-0.4-3c-0.3-0.9-0.7-1.7-1.3-2.3
		c-0.6-0.7-1.3-1.2-2.1-1.5C678.3,235.7,677.3,235.5,676.3,235.5L676.3,235.5z"/>
	<path class="st0" d="M700.6,232.1c1.8,0,4.1,0.5,6.9,1.4v1.9v5h-2.1c-0.5,0-0.8-0.2-0.9-0.7c0-0.1-0.1-1.2-0.3-3.5
		c-1.6-0.4-3-0.6-4.1-0.6h-0.1c-1.5,0-2.7,0.4-3.6,1.1c-0.9,0.7-1.4,1.5-1.4,2.4c0,0.9,0.2,1.6,0.6,2c0.7,0.8,1.7,1.4,3,1.8
		c1.3,0.4,2.4,0.7,3.3,1c0.9,0.3,1.7,0.6,2.5,0.9c0.8,0.3,1.5,0.8,2.2,1.3c1.4,1.2,2.1,2.7,2.1,4.7c0,2.5-0.9,4.6-2.6,6.1
		c-1.8,1.6-4.1,2.4-7,2.4c-2.9,0-5.7-0.4-8.6-1.4V251h1.9c0.4,0,0.7,0.2,0.8,0.7c0,0.2,0.1,1.3,0.3,3.4c1.5,0.7,3.3,1,5.4,1
		c1.7,0,3.1-0.4,4.1-1.3c0.9-0.8,1.3-1.7,1.3-2.7s-0.2-1.7-0.6-2.2c-0.4-0.5-0.9-0.9-1.6-1.2c-0.7-0.3-1.4-0.6-2.2-0.9
		c-2.3-0.7-3.9-1.3-4.9-1.7c-0.9-0.4-1.7-0.9-2.4-1.4c-1.4-1.2-2.1-2.8-2.1-4.9c0-2.1,0.8-3.9,2.5-5.4
		C695,232.8,697.5,232,700.6,232.1L700.6,232.1z"/>
	<path class="st0" d="M377.6,97.9c-2-6-5.3-11.6-9.6-16.3c-2.1-2.3-4.6-4.5-7.4-6.4c-2.6-1.7-5.6-3.2-8.8-4.3
		c-6.3-2.1-13.1-2.6-19.4-1.3l-2.4,0.5l-1.1,0.3l-2.4,0.8l-1.1,0.4c-0.6,0.2-1.1,0.4-1.6,0.7c-0.2,0.1-0.4,0.2-0.7,0.3
		c-1.2,0.6-2.8,1.4-4.2,2.4c-0.6,0.4-1.3,0.8-1.8,1.3l-0.2,0.1c-0.3,0.2-0.6,0.4-0.8,0.6l-1.2,0.9l-0.8,0.7l-2.1,2.1
		c-0.2,0.2-0.4,0.4-0.6,0.6c-1,1.2-2,2.5-2.9,4c-0.4,0.7-0.8,1.4-1.1,2l-0.2,0.3c-0.3,0.7-0.7,1.4-0.9,2.1c-0.6,1.6-1.1,3.1-1.5,4.6
		c-3.1,12.9,2.8,27,13.7,32.9c5.4,2.9,11.9,3.7,17.8,2.2c2.9-0.7,5.6-1.9,8.1-3.7l0.9-0.6l0.8-0.6l0,0c0.1,0,0.2-0.2,0.3-0.2
		l1.3-1.2l0.2-0.2c0.4-0.5,0.9-1,1.3-1.5l0.7-0.9c0.1-0.1,0.1-0.2,0.2-0.2c0.1-0.2,0.3-0.4,0.5-0.7c1.5-2.4,2.4-5.2,2.8-8
		c0.4-2.7,0.1-5.6-0.6-8.2c-0.7-2.5-2-5-3.7-7l-0.1-0.2c0,0,0-0.1-0.2-0.2l-1-1.1c-0.2-0.1-0.3-0.3-0.5-0.4l-0.4-0.4
		c-0.2-0.2-0.4-0.3-0.6-0.5c-0.1-0.1-0.3-0.2-0.4-0.3c-0.4-0.3-0.8-0.6-1.2-0.8l-0.8-0.4l-0.9-0.4c-0.5-0.2-1-0.4-1.4-0.5l-0.3-0.1
		c-0.3-0.1-0.6-0.2-0.8-0.2l-2.2-0.4c-0.3,0-0.5-0.1-0.8-0.1l-0.4,0c-0.4,0-0.9,0-1.3,0c-2.4,0.1-4.7,0.7-6.8,1.8
		c-0.3,0.2-0.7,0.4-1,0.6c-0.1,0.1-0.3,0.2-0.4,0.3l-0.1,0.1c-0.3,0.2-0.6,0.4-0.9,0.6l-0.4,0.3c-0.1,0-0.2,0.2-0.2,0.2l-0.5,0.5
		c-0.2,0.2-0.4,0.3-0.6,0.6l-0.5,0.6c-0.1,0.2-0.3,0.3-0.4,0.5l-0.1,0.2c-0.8,1-1.3,2.1-1.6,3l-0.3,0.8c0,0.1-0.1,0.2-0.1,0.3
		l-0.2,1.1l-0.1,0.8c-0.1,0.4-0.1,0.8-0.1,1.2l0,0.4c0,0.4,0,0.8,0,1.2l0,0.4c0.2,1.2,0.4,2.1,0.7,2.9c0.6,1.8,1.6,3.4,2.9,4.7
		c1.1,1.1,2.4,1.9,3.9,2.5l0.1,0c0.2,0.1,0.4,0.1,0.6,0.1c0,0,0.1,0,0.1,0l0.1,0c0.4-0.1,0.8-0.3,1-0.6c0-0.1,0.1-0.1,0.1-0.2
		c0,0,0,0,0,0l0,0c0.1-0.2,0.1-0.4,0.1-0.6c0-0.7-0.5-1.3-1.2-1.4c-1-0.4-1.9-1-2.6-1.7c-1-1.1-1.7-2.3-2.2-3.7
		c-0.2-0.6-0.3-1.3-0.5-2.2l0-0.3c0-0.3,0-0.6,0-0.8l0-0.4c0-0.3,0-0.5,0.1-0.8l0.1-0.6l0.2-0.9c0,0,0-0.1,0-0.1l0.3-0.7
		c0.4-0.9,0.8-1.6,1.2-2.1c0.1-0.1,0.1-0.2,0.2-0.2c0.1-0.1,0.1-0.2,0.2-0.2l0.5-0.6c0.1-0.1,0.2-0.2,0.3-0.3l1-0.8
		c0.2-0.2,0.4-0.3,0.7-0.5c0.1-0.1,0.3-0.2,0.4-0.3c0.2-0.1,0.5-0.3,0.7-0.4c1.6-0.8,3.5-1.3,5.4-1.3c0.3,0,0.6,0,0.9,0
		c0.2,0,0.3,0,0.5,0c0.1,0,0.3,0,0.4,0l0.9,0.1l0.9,0.2c0.1,0,0.3,0.1,0.4,0.1l0.4,0.1c0.3,0.1,0.7,0.2,1,0.4l1.4,0.7
		c0.3,0.1,0.5,0.3,0.8,0.6c0.1,0.1,0.3,0.2,0.4,0.3c0.1,0.1,0.2,0.1,0.3,0.2c0.1,0.1,0.2,0.1,0.2,0.2l0.2,0.2
		c0.1,0.1,0.2,0.2,0.3,0.3l0.8,0.9l0.2,0.3c1.3,1.7,2.3,3.6,2.8,5.7c0.6,2.1,0.7,4.4,0.4,6.5c-0.3,2.2-1.1,4.4-2.4,6.3l-0.1,0.1
		c-0.1,0.1-0.2,0.2-0.2,0.3c-0.1,0.1-0.1,0.2-0.2,0.3l-0.5,0.7c-0.3,0.3-0.5,0.6-0.8,0.9l-0.3,0.3l-0.7,0.6l-1.3,1.1l-0.8,0.5
		c-2,1.4-4.3,2.3-6.6,2.9c-4.8,1.1-10.1,0.4-14.4-2.1c-2.2-1.2-4.2-2.9-5.8-4.9c-0.8-1-1.6-2.1-2.2-3.2c-0.7-1.1-1.2-2.3-1.7-3.6
		c-1.9-4.9-2.3-10.5-0.9-15.7c0.3-1.2,0.8-2.5,1.3-3.8c0.2-0.5,0.5-1,0.8-1.6l0.2-0.4c0.3-0.5,0.6-1,0.9-1.5
		c0.8-1.2,1.6-2.3,2.5-3.2c0.1-0.2,0.3-0.3,0.4-0.4c0.1-0.1,0.2-0.2,0.3-0.3l0.3-0.3l1.9-1.7l1-0.7c0.2-0.2,0.4-0.3,0.7-0.5l0.2-0.2
		c0.5-0.4,1-0.7,1.5-1c1.2-0.8,2.5-1.4,3.6-1.9c0.2-0.1,0.5-0.2,0.7-0.3c0.4-0.2,0.8-0.4,1.2-0.5l0.9-0.3l1-0.3l1.9-0.5l1-0.2l1-0.2
		c5.3-0.9,10.9-0.4,16.1,1.4c2.7,1,5.1,2.2,7.2,3.7c2.3,1.6,4.3,3.4,6,5.3c3.5,4.1,6.2,8.9,7.9,14c1.6,5,2.2,10.3,1.8,15.5
		c-0.4,5-1.8,10-4,14.5c-1.1,2.2-2.4,4.3-3.8,6.2l-1.1,1.4l-1.2,1.4c-0.2,0.3-0.5,0.5-0.8,0.8c-0.2,0.2-0.3,0.3-0.5,0.5l-1.2,1.2
		c-0.1,0.1-0.2,0.2-0.3,0.2c-0.1,0.1-0.2,0.2-0.4,0.3l-1.5,1.2l-1.5,1.2l-2.6,1.9l-2.2,1.4l-2.2,1.2l-1.9,0.9l-1.8,0.8l-3.2,1.2
		c-2,0.6-4,1.3-6.2,1.7c-0.7,0.2-1.5,0.3-2.3,0.4l-0.8,0.1c-0.3,0.1-0.6,0.1-0.9,0.1c-0.2,0-0.3,0-0.5,0.1l-0.6,0.1
		c-0.3,0-0.6,0.1-0.9,0.1c-1.7,0.1-3.8,0.2-5.8,0.1c-3.6-0.1-7.1-0.6-10.6-1.5c-3-0.7-6-1.8-8.9-3.1c-2.4-1.1-4.6-2.4-6.9-3.8
		c-0.3-0.2-0.7-0.5-1-0.7c-0.6-0.4-1.2-0.9-1.8-1.3l-0.9-0.7l-0.6-0.5c-0.4-0.5-0.8-0.9-1.2-1.3c-2-2.1-4-4.4-6.2-6.4
		c-4.2-4.3-8.9-8.2-13.8-12c-1.3-0.9-2.5-1.8-3.8-2.8l-1.9-1.4l-2-1.3c-1.3-0.9-2.7-1.7-4-2.6c-1.4-0.8-2.8-1.6-4.2-2.4l-0.6-0.3
		c1.2-0.2,2.4-0.5,3.6-0.8c0.1,0,0.2-0.1,0.4-0.1c3.8-1,7.5-2.4,11.1-4.2c1.6-0.8,3.4-1.8,5.6-3.2c0.3-0.2,0.6-0.4,0.9-0.6l0.9-0.6
		c0.3-0.2,0.7-0.5,1-0.7l0.5-0.4c0.7-0.5,1.4-1.1,2.1-1.7c1.9-1.6,3.6-3.3,5.1-4.9l1.8-2l1.2-1.6l2.1-2.8l1.5-2.4l1.4-2.5l0.7-1.4
		c0.2-0.4,0.4-0.8,0.6-1.2l0.8-1.7l1.1-2.7c0.1-0.2,0.2-0.4,0.2-0.7l0.1-0.3c0.5-1.4,0.8-2.7,1.1-3.9l0.4-2l0.3-2
		c0.4-2.7,0.5-5.5,0.4-8.2c-0.2-5.6-1.5-11.3-3.8-16.5c-2.3-5.3-5.8-10.3-10-14.3c-4.3-4.1-9.4-7.4-15-9.5c-2.8-1.1-5.8-1.8-8.9-2.1
		c-2.9-0.3-6-0.2-9.2,0.2c-6.2,1-12,3.5-16.8,7.3l-1.8,1.5l-0.8,0.8l-1.6,1.7l-0.7,0.8c-0.4,0.4-0.7,0.8-1,1.2
		c-0.1,0.2-0.3,0.4-0.5,0.6c-0.7,1-1.7,2.4-2.5,3.8c-0.4,0.6-0.7,1.2-1,1.9l-0.1,0.2c-0.2,0.3-0.3,0.6-0.4,0.9l-0.6,1.3l-0.4,1
		l-0.8,2.6c-0.1,0.3-0.1,0.5-0.2,0.7c-0.3,1.4-0.6,2.9-0.7,4.6c-0.1,0.7-0.1,1.5-0.1,2.2l0,0.3c0,0.7,0,1.4,0.1,2.1
		c0.1,1.6,0.4,3.1,0.7,4.5c2.9,12.1,13.9,21.3,25.6,21.5c5.8,0.1,11.5-2,15.8-5.8c2.1-1.8,3.8-4,5.1-6.5l0.5-0.9l0.4-0.9l0-0.1
		c0-0.1,0.1-0.3,0.1-0.3l0.5-1.5l0.1-0.3c0.2-0.6,0.3-1.2,0.4-1.8l0.2-1.1c0-0.1,0-0.2,0-0.3c0-0.2,0.1-0.5,0.1-0.8
		c0.2-2.6-0.2-5.3-1.1-7.8c-0.9-2.4-2.3-4.7-4-6.5c-1.7-1.8-3.8-3.3-6-4.2l-0.2-0.1c0,0-0.1,0-0.2-0.1l-1.3-0.5
		c-0.2-0.1-0.4-0.1-0.6-0.2l-0.5-0.1c-0.2-0.1-0.5-0.1-0.7-0.1c-0.1,0-0.3,0-0.4-0.1c-0.4-0.1-0.9-0.1-1.3-0.1l-0.8,0l-0.9,0
		c-0.5,0-1,0.1-1.4,0.2l-0.3,0.1c-0.3,0-0.5,0.1-0.8,0.2l-2,0.6c-0.2,0.1-0.5,0.2-0.7,0.3L250,41c-0.4,0.2-0.8,0.4-1.1,0.6
		c-1.9,1.1-3.6,2.7-4.9,4.5c-0.2,0.3-0.4,0.6-0.6,0.9c-0.1,0.1-0.2,0.3-0.3,0.4l0,0.1c-0.2,0.3-0.3,0.6-0.4,0.9l-0.2,0.4
		c0,0.1-0.1,0.2-0.1,0.3l-0.2,0.7c-0.1,0.2-0.2,0.5-0.2,0.7l-0.2,0.7c-0.1,0.2-0.1,0.4-0.1,0.6l0,0.2c-0.2,1.2-0.1,2.3,0,3.2
		l0.1,0.8c0,0.1,0,0.2,0.1,0.3l0.2,1l0.2,0.7c0.1,0.4,0.3,0.7,0.4,1l0.2,0.3c0.2,0.3,0.3,0.6,0.5,0.9l0.2,0.3
		c0.6,0.9,1.2,1.6,1.8,2.1c1.3,1.2,2.8,2.1,4.5,2.7c1.4,0.4,2.9,0.6,4.4,0.5l0,0c0.6-0.1,1.1-0.6,1.2-1.2c0,0,0,0,0,0c0,0,0,0,0,0
		c0,0,0,0,0-0.1c0-0.1,0-0.2,0-0.3c0-0.1,0-0.1-0.1-0.2c0-0.1-0.1-0.2-0.1-0.2c0,0,0-0.1-0.1-0.1c0,0-0.1-0.1-0.1-0.1l-0.1,0
		c-0.2-0.2-0.6-0.4-0.9-0.4c0,0-0.1,0-0.1,0l0,0c-1.1,0.1-2.2,0-3.2-0.3c-1.3-0.5-2.4-1.2-3.4-2.1c-0.4-0.4-0.8-0.9-1.3-1.6
		l-0.1-0.2c-0.1-0.2-0.3-0.5-0.4-0.7l-0.1-0.3c-0.1-0.2-0.2-0.5-0.3-0.7l-0.2-0.5l-0.2-0.8c0,0,0-0.1,0-0.1l-0.1-0.7
		c-0.1-0.9,0-1.6,0.1-2.3c0-0.1,0-0.2,0-0.3c0-0.1,0-0.2,0.1-0.3l0.2-0.7c0-0.1,0.1-0.2,0.1-0.4l0.5-1.1c0.1-0.2,0.2-0.5,0.4-0.7
		c0.1-0.1,0.2-0.3,0.3-0.4c0.1-0.2,0.3-0.5,0.4-0.7c1-1.4,2.4-2.6,3.9-3.5c0.2-0.1,0.5-0.3,0.8-0.4c0.1-0.1,0.3-0.1,0.4-0.2
		c0.1-0.1,0.2-0.1,0.4-0.1l0.8-0.3l0.9-0.2c0.1,0,0.2-0.1,0.4-0.1l0.4-0.1c0.3,0,0.7-0.1,1-0.1l1.5,0c0.3,0,0.6,0.1,0.9,0.1
		c0.2,0,0.3,0.1,0.5,0.1c0.1,0,0.2,0,0.3,0.1c0.1,0,0.2,0.1,0.3,0.1l0.3,0.1c0.1,0,0.3,0.1,0.4,0.1l1.1,0.4l0.3,0.1
		c1.8,0.8,3.5,2,4.8,3.5c1.4,1.5,2.5,3.3,3.1,5.3c0.7,2,0.9,4.2,0.7,6.3l0,0.1c0,0.1,0,0.3-0.1,0.4c0,0.1,0,0.2,0,0.3l-0.1,0.8
		c-0.1,0.4-0.2,0.7-0.3,1.1l-0.1,0.4l-0.3,0.8l-0.6,1.5l-0.4,0.8c-1.1,2-2.6,3.8-4.3,5.2c-3.5,3-8.2,4.7-12.9,4.5
		c-2.4-0.1-4.7-0.6-6.9-1.6c-1.1-0.5-2.2-1.1-3.3-1.7c-1-0.7-2-1.4-3-2.2c-3.7-3.3-6.4-7.8-7.5-12.6c-0.3-1.2-0.4-2.4-0.5-3.7
		c0-0.5,0-1.1-0.1-1.6l0-0.4c0-0.6,0-1.1,0.1-1.7c0.1-1.4,0.3-2.6,0.7-3.7c0-0.2,0.1-0.4,0.2-0.5c0-0.1,0.1-0.2,0.1-0.4l0.1-0.4
		l0.9-2.2l0.5-1c0.1-0.2,0.2-0.4,0.3-0.7l0.1-0.2c0.3-0.5,0.5-1,0.8-1.5c0.7-1.2,1.5-2.3,2.1-3.1c0.2-0.2,0.3-0.4,0.5-0.5
		c0.3-0.3,0.5-0.6,0.8-0.9l0.6-0.7l0.7-0.7l1.4-1.3l0.8-0.6l0.8-0.6c4-3.1,8.9-5.1,14.1-5.8c2.6-0.3,5.2-0.3,7.6,0
		c2.6,0.3,5.1,1,7.3,1.9c4.7,1.9,9.1,4.8,12.6,8.3c3.5,3.4,6.3,7.7,8.2,12.2c1.8,4.4,2.8,9.1,2.9,13.8c0,2.3-0.1,4.6-0.5,6.8
		l-0.3,1.7l-0.4,1.7c-0.1,0.3-0.2,0.7-0.3,1c-0.1,0.2-0.1,0.4-0.2,0.6l-0.5,1.5c0,0.1-0.1,0.2-0.1,0.3c0,0.1-0.1,0.3-0.2,0.4
		l-0.7,1.7l-0.8,1.6l-1.4,2.7l-1.2,2.1l-1.3,2l-1.2,1.6l-1.1,1.4l-2.1,2.4c-1.4,1.4-2.8,2.8-4.4,4.1c-0.5,0.5-1.1,0.9-1.7,1.3
		l-0.6,0.4c-0.2,0.2-0.5,0.3-0.7,0.5c-0.1,0.1-0.3,0.2-0.4,0.3l-0.4,0.3c-0.2,0.2-0.5,0.3-0.7,0.5c-1.4,0.8-3.1,1.8-4.8,2.6
		c-3,1.5-6.2,2.6-9.5,3.4c-2.9,0.7-5.8,1.1-8.7,1.2c-2.4,0.1-4.9,0-7.4-0.2c-0.4-0.1-0.7-0.1-1.1-0.2c-0.7-0.1-1.4-0.2-2.1-0.3
		l-1-0.2l-1.8-0.4c0,0-0.1,0-0.1,0c-0.5-0.2-0.9-0.4-1.4-0.5c-1.6-0.5-3.2-1.1-4.8-1.6l-1.8-0.6l-0.5-0.2l-0.3-0.1l-2.3-0.7
		l-2.3-0.7c-0.8-0.2-1.7-0.4-2.5-0.6c-3.5-0.9-6.9-1.5-10.4-2c-1.7-0.2-3.5-0.4-5.2-0.6c-1.8-0.1-3.5-0.3-5.3-0.4
		c-0.5,0-1,0-1.4-0.1c0.4-0.3,0.8-0.7,1.2-1c0.1-0.1,0.2-0.1,0.3-0.2c2.7-2.4,5.2-5.2,7.4-8.2c1-1.4,2-2.9,3.2-5
		c0.2-0.3,0.3-0.6,0.5-0.9l0.5-0.9c0.2-0.3,0.4-0.7,0.5-1l0.3-0.6c0.4-0.7,0.7-1.5,1-2.3c0.9-2.1,1.6-4.3,2.1-6.2l0.6-2.4l0.4-1.8
		l0.5-3.2l0.2-2.6l0.1-2.6l0-1.4c0-0.4,0-0.8,0-1.2l-0.1-1.8l-0.3-2.6c0-0.2-0.1-0.4-0.1-0.7l0-0.3c-0.2-1.3-0.5-2.6-0.7-3.7
		l-0.5-1.8l-0.6-1.8c-0.8-2.4-1.9-4.8-3.2-7c-2.6-4.5-6.1-8.7-10.2-12c-4.2-3.4-9.2-6-14.3-7.5c-5.3-1.6-10.9-2.1-16.4-1.4
		c-2.7,0.3-5.5,1-8.3,2.1c-2.6,1-5.1,2.4-7.5,4.1c-4.7,3.5-8.4,8-10.7,13.2l-0.8,2l-0.3,1l-0.6,2.1l-0.2,1c-0.1,0.5-0.2,1-0.3,1.5
		c0,0.2-0.1,0.4-0.1,0.7c-0.2,1.2-0.4,2.7-0.4,4.2c0,0.7,0,1.3,0,2l0,0.2c0,0.3,0,0.6,0,0.9l0.1,1.3l0.1,1l0.4,2.5
		c0.1,0.2,0.1,0.5,0.2,0.7c0.3,1.3,0.8,2.7,1.4,4.1c0.3,0.6,0.6,1.2,0.9,1.8l0.1,0.3c0.3,0.6,0.6,1.2,1,1.7c0.8,1.2,1.7,2.4,2.5,3.4
		c7.6,8.7,20.6,11.7,30.3,6.9c4.8-2.4,8.7-6.6,10.6-11.6c0.9-2.4,1.4-4.9,1.5-7.6l0-1l-0.1-0.9l0-0.1c0-0.1,0-0.3,0-0.3l-0.2-1.5
		l-0.1-0.3c-0.1-0.6-0.3-1.1-0.4-1.7l-0.3-0.9c0-0.1-0.1-0.2-0.1-0.2c-0.1-0.2-0.1-0.4-0.3-0.7c-1-2.3-2.4-4.3-4.2-6
		c-1.8-1.6-3.9-2.9-6.1-3.7c-2.2-0.8-4.5-1.1-6.8-0.9l-0.2,0c0,0-0.1,0-0.2,0l-1.3,0.2c-0.2,0-0.4,0.1-0.6,0.1l-0.5,0.1
		c-0.2,0-0.4,0.1-0.7,0.2c-0.1,0-0.3,0.1-0.4,0.1c-0.4,0.1-0.8,0.3-1.2,0.5l-0.7,0.3l-0.7,0.4c-0.4,0.2-0.8,0.5-1.1,0.7l-0.2,0.2
		c-0.2,0.1-0.4,0.3-0.6,0.4l-1.4,1.4c-0.2,0.2-0.3,0.3-0.4,0.5l-0.2,0.3c-0.2,0.3-0.5,0.6-0.7,1c-1.1,1.7-1.8,3.7-2.1,5.8
		c0,0.3-0.1,0.7-0.1,1c0,0.1,0,0.3,0,0.4l0,0.1c0,0.3,0,0.6,0,0.9l0,0.4c0,0.1,0,0.2,0,0.3l0.1,0.6c0,0.2,0.1,0.4,0.1,0.7l0.2,0.6
		c0,0.2,0.1,0.4,0.2,0.5l0.1,0.2c0.3,1.1,0.9,2,1.3,2.6l0.4,0.6c0.1,0.1,0.1,0.1,0.2,0.2l0.6,0.7l0.5,0.5c0.3,0.3,0.6,0.5,0.8,0.7
		l0.3,0.2c0.3,0.2,0.6,0.4,0.8,0.5l0.3,0.2c0.9,0.5,1.7,0.8,2.4,1c1.6,0.4,3.2,0.6,4.8,0.3c1.3-0.2,2.5-0.7,3.6-1.4
		c0.5-0.2,0.8-0.6,0.8-1.2c0-0.7-0.6-1.3-1.3-1.3c-0.3,0-0.5,0.1-0.7,0.2l-0.1,0c-0.9,0.6-1.8,1-2.8,1.1c-1.2,0.2-2.5,0.1-3.7-0.3
		c-0.5-0.1-1.1-0.4-1.8-0.8l-0.2-0.1c-0.2-0.1-0.4-0.3-0.6-0.4l-0.3-0.2c-0.2-0.2-0.4-0.3-0.5-0.5l-0.4-0.4l-0.5-0.6
		c0,0,0-0.1-0.1-0.1l-0.4-0.6c-0.4-0.7-0.7-1.3-0.9-1.9c0-0.1-0.1-0.2-0.1-0.3c0-0.1-0.1-0.2-0.1-0.3l-0.1-0.6c0-0.1,0-0.2-0.1-0.4
		l-0.1-1.1c0-0.2,0-0.5,0-0.7c0-0.1,0-0.3,0-0.4c0-0.3,0-0.5,0.1-0.7c0.2-1.6,0.8-3.1,1.8-4.5c0.1-0.2,0.3-0.4,0.5-0.7
		c0.1-0.1,0.2-0.2,0.3-0.3c0.1-0.1,0.2-0.2,0.2-0.3l0.6-0.6l0.6-0.5c0.1-0.1,0.2-0.2,0.3-0.2l0.3-0.2c0.3-0.2,0.5-0.4,0.8-0.5
		l1.2-0.6c0.2-0.1,0.5-0.2,0.8-0.3c0.1,0,0.3-0.1,0.5-0.2c0.1,0,0.2-0.1,0.3-0.1c0.1,0,0.2,0,0.2-0.1l0.3-0.1c0.1,0,0.2-0.1,0.4-0.1
		l1.1-0.1l0.3,0c1.9-0.1,3.8,0.2,5.5,0.8c1.8,0.7,3.5,1.7,4.8,3c1.4,1.4,2.6,3,3.3,4.9l0,0.1c0.1,0.1,0.1,0.2,0.1,0.3
		c0,0.1,0.1,0.2,0.1,0.3l0.2,0.7c0.1,0.4,0.2,0.7,0.2,1.1l0.1,0.4l0.1,0.8l0.1,1.5l0,0.8c-0.1,2.1-0.5,4.2-1.3,6.2
		c-1.6,4-4.8,7.4-8.7,9.2c-2,0.9-4.1,1.5-6.4,1.6c-1.2,0.1-2.3,0-3.4,0c-1.1-0.1-2.3-0.3-3.4-0.6c-4.5-1.1-8.6-3.7-11.6-7.2
		c-0.7-0.8-1.4-1.8-2-2.9c-0.3-0.4-0.5-0.9-0.7-1.3l-0.2-0.4c-0.2-0.5-0.4-0.9-0.6-1.4c-0.5-1.2-0.8-2.3-1.1-3.4
		c0-0.2-0.1-0.3-0.1-0.5c0-0.1,0-0.2-0.1-0.3l-0.1-0.4l-0.3-2.2l0-1.1c0-0.2,0-0.5,0-0.7l0-0.2c0-0.5,0-1.1,0.1-1.6
		c0.1-1.3,0.3-2.5,0.4-3.5c0-0.2,0.1-0.4,0.1-0.6c0.1-0.4,0.2-0.8,0.3-1.1l0.2-0.8l0.3-0.9l0.6-1.7l0.4-0.9l0.4-0.8
		c2-4.3,5.2-8,9.1-10.8c2-1.4,4.1-2.5,6.3-3.3c2.3-0.8,4.6-1.4,6.8-1.6c4.7-0.4,9.5,0.1,14,1.5c4.3,1.4,8.5,3.6,11.9,6.6
		c3.4,2.8,6.2,6.3,8.3,10.2c1,1.9,1.9,3.8,2.5,5.8l0.5,1.5l0.4,1.5c0.1,0.3,0.1,0.6,0.2,0.9c0,0.2,0.1,0.4,0.1,0.6l0.2,1.5
		c0,0.1,0,0.2,0,0.3c0,0.1,0,0.3,0.1,0.4l0.2,1.7l0.1,1.7l0,2.8l-0.1,2.3l-0.2,2.2l-0.3,1.8l-0.3,1.6l-0.7,2.9
		c-0.5,1.7-1.1,3.5-1.9,5.2c-0.3,0.6-0.6,1.2-0.9,1.8l-0.3,0.6c-0.1,0.3-0.3,0.5-0.4,0.7c-0.1,0.1-0.1,0.3-0.2,0.4l-0.2,0.4
		c-0.1,0.2-0.3,0.5-0.4,0.7c-0.8,1.3-1.7,2.8-2.8,4.2c-1.9,2.5-4,4.8-6.4,6.8c-2.1,1.8-4.3,3.4-6.7,4.7c-2,1.1-4,2.1-6.2,3
		c-0.3,0.1-0.6,0.2-0.9,0.3c-0.7,0.1-1.5,0.2-2.2,0.3c-12.3,1.6-24.6,5.3-36.1,10.9c0.1-0.3,0.2-0.5,0.3-0.8c0-0.1,0.1-0.2,0.1-0.3
		c1.2-3.2,2.1-6.5,2.6-9.9c0.3-1.6,0.4-3.2,0.5-5.5c0-0.3,0-0.6,0-1l0-0.9c0-0.3,0-0.7,0-1l0-0.6c0-0.8-0.1-1.5-0.1-2.3
		c-0.2-2.1-0.5-4.2-0.9-6l-0.5-2.3l-0.5-1.7l-1-2.8l-0.9-2.2l-1-2.2l-0.6-1.2c-0.2-0.3-0.3-0.6-0.5-1l-0.8-1.4l-1.3-2.1
		c-0.1-0.2-0.2-0.3-0.4-0.5l-0.2-0.2c-0.7-1-1.5-1.9-2.2-2.8l-1.2-1.3l-1.2-1.2c-1.7-1.6-3.6-3.1-5.6-4.4c-4-2.6-8.7-4.5-13.4-5.5
		c-4.9-1-10.1-1-15-0.1c-5,1-9.9,3-14.1,5.8c-2.1,1.4-4.1,3.2-5.9,5.2c-1.7,1.9-3.2,4.1-4.4,6.6c-2.4,4.8-3.5,10.1-3.2,15.4l0.2,2
		l0.1,1l0.3,2l0.2,0.9c0.1,0.5,0.2,0.9,0.4,1.3c0.1,0.2,0.1,0.4,0.2,0.6c0.3,1,0.8,2.4,1.4,3.6c0.2,0.6,0.5,1.1,0.8,1.6l0.1,0.1
		c0.1,0.3,0.3,0.5,0.4,0.8l0.6,1l0.5,0.8l1.4,1.9c0.1,0.2,0.3,0.4,0.4,0.5c0.8,0.9,1.8,1.9,2.9,2.8c0.5,0.4,1,0.8,1.5,1.1l0.2,0.2
		c0.5,0.3,1,0.7,1.6,1c1.2,0.7,2.4,1.3,3.5,1.7c9.9,3.9,21.9,0.8,27.8-7.3c2.9-4,4.3-9.1,3.8-14c-0.3-2.4-0.9-4.7-2-6.8L116,75
		l-0.4-0.7l0,0c0,0-0.1-0.2-0.1-0.2l-0.8-1.1l-0.2-0.2c-0.3-0.4-0.7-0.8-1-1.2l-0.7-0.6c-0.1,0-0.1-0.1-0.2-0.2
		c-0.1-0.1-0.3-0.3-0.5-0.4c-1.8-1.4-3.8-2.5-6-3.1c-2.1-0.6-4.4-0.7-6.6-0.4c-2.1,0.3-4.2,1-6,2.1l-0.2,0.1c0,0-0.1,0-0.2,0.1
		l-1,0.7c-0.1,0.1-0.3,0.2-0.4,0.3l-0.4,0.3c-0.1,0.1-0.3,0.3-0.5,0.4c-0.1,0.1-0.2,0.2-0.3,0.3c-0.3,0.3-0.5,0.6-0.8,0.9l-0.4,0.6
		L89,73.2c-0.2,0.4-0.4,0.7-0.6,1.1l-0.1,0.3c-0.1,0.2-0.2,0.4-0.3,0.6l-0.6,1.7c-0.1,0.2-0.1,0.4-0.1,0.6l-0.1,0.3
		c-0.1,0.4-0.1,0.7-0.1,1.1c-0.2,1.9,0.1,3.9,0.7,5.6c0.1,0.3,0.2,0.6,0.3,0.8c0.1,0.1,0.1,0.3,0.2,0.4l0,0.1
		c0.1,0.3,0.3,0.5,0.4,0.8l0.2,0.3c0,0.1,0.1,0.2,0.1,0.2l0.3,0.5c0.1,0.2,0.2,0.3,0.4,0.5l0.4,0.5c0.1,0.1,0.2,0.3,0.4,0.4l0.1,0.1
		c0.7,0.7,1.6,1.2,2.2,1.6l0.6,0.3c0.1,0,0.2,0.1,0.3,0.1l0.8,0.3l0.6,0.2c0.3,0.1,0.7,0.2,1,0.2l0.3,0.1c0.3,0,0.6,0.1,0.9,0.1
		l0.3,0c0.9,0,1.7-0.1,2.4-0.2c1.5-0.3,2.9-0.9,4.1-1.8c1-0.7,1.9-1.7,2.5-2.8l0.2-0.3c0.2-0.2,0.4-0.5,0.4-0.9
		c0-0.7-0.6-1.2-1.2-1.2c-0.5,0-0.9,0.3-1.1,0.6l0,0l-0.3,0.6c-0.5,0.8-1.1,1.6-1.8,2.1c-0.9,0.7-2,1.1-3.2,1.3
		c-0.5,0.1-1,0.1-1.8,0.1l-0.2,0c-0.2,0-0.5,0-0.6-0.1l-0.3-0.1c-0.2,0-0.4-0.1-0.7-0.2L95.5,89l-0.7-0.3c0,0-0.1,0-0.1,0l-0.6-0.3
		c-0.7-0.4-1.2-0.8-1.5-1.2c-0.1-0.1-0.1-0.1-0.2-0.2c-0.1-0.1-0.1-0.1-0.2-0.2l-0.4-0.5c-0.1-0.1-0.1-0.2-0.2-0.3l-0.5-0.9
		c-0.1-0.2-0.2-0.4-0.3-0.6c-0.1-0.1-0.1-0.3-0.2-0.4c-0.1-0.2-0.2-0.4-0.3-0.6c-0.5-1.4-0.6-2.9-0.5-4.5c0-0.2,0.1-0.5,0.1-0.8
		c0-0.1,0.1-0.2,0.1-0.4c0-0.1,0.1-0.2,0.1-0.3l0.2-0.7l0.3-0.7c0-0.1,0.1-0.2,0.2-0.3l0.2-0.3c0.1-0.3,0.3-0.5,0.4-0.8l0.7-1
		c0.1-0.2,0.3-0.4,0.5-0.6c0.1-0.1,0.2-0.2,0.3-0.3c0.1-0.1,0.1-0.1,0.2-0.2c0.1-0.1,0.1-0.1,0.2-0.1l0.2-0.2
		c0.1-0.1,0.2-0.1,0.3-0.2l0.8-0.6l0.2-0.1c1.5-0.9,3.2-1.4,4.9-1.6c1.7-0.2,3.6-0.1,5.3,0.4c1.7,0.5,3.4,1.4,4.8,2.6l0.1,0.1
		c0.1,0.1,0.2,0.1,0.2,0.2c0.1,0.1,0.1,0.1,0.2,0.2l0.5,0.5c0.2,0.3,0.4,0.5,0.6,0.8l0.2,0.3l0.4,0.6l0.7,1.2l0.3,0.7
		c0.8,1.8,1.4,3.7,1.5,5.6c0.4,4-0.8,8.1-3.3,11.3c-1.2,1.6-2.8,3-4.5,4.1c-0.9,0.5-1.9,1-2.8,1.4c-1,0.4-2,0.7-3,1
		c-4.2,1-8.6,0.6-12.6-1c-0.9-0.4-1.9-0.9-2.9-1.5c-0.4-0.2-0.8-0.5-1.2-0.8l-0.3-0.2c-0.4-0.3-0.8-0.6-1.1-0.9
		c-0.9-0.8-1.6-1.5-2.3-2.3c-0.1-0.1-0.2-0.2-0.3-0.4c-0.1-0.1-0.1-0.2-0.2-0.2L80,93l-1.2-1.7l-0.5-0.9c-0.1-0.2-0.2-0.4-0.3-0.6
		L78,89.7c-0.2-0.4-0.4-0.9-0.6-1.3c-0.5-1.1-0.9-2.2-1.1-3.1c-0.1-0.2-0.1-0.4-0.2-0.6c-0.1-0.4-0.2-0.7-0.3-1l-0.2-0.8L75.4,82
		l-0.2-1.6l-0.1-0.9l0-0.8C75,74.4,76,70,78.1,66c1.1-2,2.3-3.8,3.7-5.3c1.5-1.7,3.2-3.1,4.9-4.2c3.7-2.4,7.8-4,12.1-4.7
		c4.1-0.7,8.5-0.6,12.6,0.3c4,0.9,7.8,2.6,11.1,4.8c1.6,1.1,3.2,2.4,4.5,3.7l1,1l1,1.1c0.2,0.2,0.4,0.5,0.6,0.7
		c0.1,0.1,0.2,0.3,0.3,0.4l0.8,1.1c0.1,0.1,0.1,0.2,0.2,0.2c0.1,0.1,0.1,0.2,0.2,0.3l0.8,1.3l0.8,1.4l1.2,2.3l0.8,1.9l0.7,1.9
		l0.5,1.6l0.4,1.5l0.6,2.7c0.3,1.6,0.6,3.4,0.6,5.1c0.1,0.6,0.1,1.3,0.1,1.9l0,0.6c0,0.3,0,0.5,0,0.8c0,0.1,0,0.3,0,0.4l0,0.5
		c0,0.3,0,0.5,0,0.7c-0.1,1.4-0.2,3-0.5,4.7c-0.5,2.9-1.3,5.6-2.3,8.3c-0.9,2.3-2.1,4.6-3.5,6.7c-1.1,1.8-2.4,3.4-3.8,5.1
		c0,0.1-0.1,0.1-0.1,0.2c-9.7,6.6-18.6,14.7-26,24c-1,1.3-2,2.6-3,3.9c0-0.6-0.1-1.2-0.2-1.7c0-0.1,0-0.2,0-0.3c-0.4-3-1-6.1-2-9
		c-0.4-1.4-1-2.8-1.9-4.7c-0.1-0.3-0.3-0.5-0.4-0.8l-0.4-0.7c-0.1-0.3-0.3-0.6-0.4-0.8l-0.3-0.5c-0.3-0.6-0.7-1.2-1.1-1.8
		c-1-1.6-2.2-3.2-3.2-4.5l-1.4-1.6l-1.1-1.1l-2-1.9l-1.7-1.4l-1.7-1.3l-1-0.7c-0.3-0.2-0.5-0.4-0.8-0.6l-1.2-0.8l-1.9-1.1
		c-0.1-0.1-0.3-0.2-0.5-0.3l-0.2-0.1c-1-0.5-2-0.9-2.9-1.3l-1.5-0.6l-1.5-0.5c-2.1-0.6-4.2-1-6.3-1.2c-4.4-0.4-8.9,0-13.1,1.2
		c-4.4,1.2-8.5,3.4-12.1,6.2c-3.6,2.8-6.7,6.5-8.9,10.6c-1.1,2-2,4.3-2.6,6.7c-0.6,2.2-0.8,4.6-0.8,7.1c0.1,4.9,1.4,9.6,3.8,13.7
		l1,1.5l0.5,0.7l1.1,1.5l0.6,0.6c0.3,0.3,0.6,0.6,0.8,0.9c0.1,0.1,0.2,0.3,0.4,0.4c0.7,0.7,1.6,1.6,2.7,2.3c0.4,0.3,0.9,0.7,1.3,1
		l0.1,0.1c0.2,0.2,0.4,0.3,0.7,0.4l0.9,0.6l0.7,0.4l1.9,0.9c0.2,0.1,0.4,0.2,0.6,0.2c1.1,0.4,2.2,0.8,3.5,1c0.6,0.1,1.1,0.2,1.7,0.3
		l0.3,0c0.5,0.1,1.1,0.1,1.7,0.1c1.2,0.1,2.4,0,3.6-0.1c9.6-1,18-8.4,19.4-17.4c0.7-4.4-0.3-9.1-2.8-12.8c-1.2-1.8-2.7-3.4-4.5-4.7
		l-0.7-0.5l-0.6-0.4l0,0c0,0-0.2-0.1-0.2-0.1l-1.1-0.6l-0.2-0.1c-0.4-0.2-0.9-0.4-1.3-0.5l-0.8-0.2c-0.1,0-0.1,0-0.2-0.1
		c-0.2-0.1-0.4-0.1-0.6-0.1c-2-0.4-4.1-0.4-6.2,0c-2,0.4-3.9,1.2-5.5,2.4c-1.6,1.1-2.9,2.6-3.9,4.2l-0.1,0.1c0,0,0,0-0.1,0.2l-0.5,1
		c-0.1,0.1-0.1,0.3-0.2,0.4l-0.2,0.4c-0.1,0.2-0.1,0.4-0.2,0.5c0,0.1-0.1,0.2-0.1,0.3c-0.1,0.3-0.2,0.7-0.2,1l-0.1,0.6l-0.1,0.7
		c0,0.4,0,0.8,0,1.1l0,0.3c0,0.2,0,0.4,0,0.6l0.3,1.6c0,0.2,0.1,0.4,0.1,0.6l0.1,0.3c0.1,0.3,0.2,0.6,0.3,0.9
		c0.7,1.6,1.7,3.1,2.9,4.2c0.2,0.2,0.4,0.4,0.6,0.5c0.1,0.1,0.2,0.2,0.3,0.2l0.1,0c0.2,0.1,0.4,0.3,0.6,0.4l0.3,0.2
		c0,0,0.2,0.1,0.2,0.1l0.5,0.3c0.2,0.1,0.3,0.2,0.5,0.2l0.5,0.2c0.1,0.1,0.3,0.1,0.5,0.1l0.2,0c0.9,0.3,1.8,0.3,2.4,0.4l0.6,0
		c0.1,0,0.2,0,0.3,0l0.8-0.1l0.6-0.1c0.3-0.1,0.6-0.1,0.9-0.2l0.3-0.1c0.3-0.1,0.5-0.2,0.8-0.3l0.3-0.1c0.8-0.4,1.3-0.8,1.8-1.2
		c1.1-0.8,1.9-1.9,2.6-3.2c0.5-1,0.7-2.1,0.8-3.3l0-0.1c0,0,0-0.1,0-0.1c0-0.6-0.5-1.1-1.1-1.1c-0.6,0-1.1,0.5-1.1,1.1c0,0,0,0,0,0
		l0,0c0,0.9-0.2,1.7-0.6,2.4c-0.5,0.9-1.2,1.8-2,2.4c-0.4,0.3-0.8,0.5-1.4,0.8l-0.2,0.1c-0.2,0.1-0.4,0.2-0.6,0.2l-0.3,0.1
		c-0.2,0.1-0.4,0.1-0.6,0.1l-0.4,0.1l-0.7,0.1c0,0-0.1,0-0.1,0l-0.6,0c-0.7-0.1-1.3-0.2-1.7-0.3c-0.1,0-0.1,0-0.2-0.1
		c-0.1,0-0.1,0-0.2-0.1l-0.5-0.2c-0.1,0-0.2-0.1-0.3-0.1l-0.8-0.5c-0.2-0.1-0.3-0.2-0.5-0.3c-0.1-0.1-0.2-0.2-0.3-0.2
		c-0.2-0.1-0.3-0.3-0.5-0.4c-1-0.9-1.7-2.1-2.2-3.4c-0.1-0.2-0.1-0.4-0.2-0.7c0-0.1-0.1-0.2-0.1-0.3c0-0.1,0-0.2-0.1-0.3l-0.1-0.7
		l-0.1-0.7c0-0.1,0-0.2,0-0.3l0-0.3c0-0.3,0-0.5,0-0.8l0.2-1.1c0-0.2,0.1-0.4,0.2-0.7c0-0.1,0.1-0.2,0.1-0.4c0-0.1,0.1-0.2,0.1-0.2
		c0-0.1,0.1-0.1,0.1-0.2l0.1-0.2c0-0.1,0.1-0.2,0.1-0.3L46,133l0.1-0.2c0.8-1.3,2-2.5,3.2-3.3c1.3-0.9,2.8-1.5,4.4-1.8
		c1.6-0.3,3.3-0.3,4.9,0.1l0.1,0c0.1,0,0.2,0.1,0.3,0.1c0.1,0,0.2,0.1,0.2,0.1l0.6,0.2c0.3,0.1,0.6,0.2,0.8,0.3l0.3,0.1l0.6,0.3
		l1.1,0.7l0.5,0.4c1.4,1.1,2.6,2.4,3.6,3.9c1.9,3.1,2.7,6.9,2.1,10.4c-0.3,1.8-1,3.6-2,5.2c-0.5,0.8-1.1,1.6-1.7,2.3
		c-0.6,0.7-1.3,1.4-2,2c-2.9,2.5-6.7,4.1-10.6,4.4c-0.9,0.1-1.9,0.1-2.9,0c-0.4,0-0.8-0.1-1.3-0.1l-0.3,0c-0.4-0.1-0.9-0.2-1.3-0.3
		c-1-0.3-2-0.5-2.8-0.9c-0.1-0.1-0.3-0.1-0.4-0.2c-0.1,0-0.2-0.1-0.3-0.1l-0.3-0.1l-1.6-0.9l-0.8-0.5c-0.2-0.1-0.3-0.2-0.5-0.3
		l-0.2-0.1c-0.4-0.3-0.7-0.5-1.1-0.8c-0.8-0.7-1.6-1.4-2.2-2c-0.1-0.1-0.2-0.3-0.4-0.4c-0.2-0.2-0.4-0.5-0.6-0.7l-0.5-0.6l-0.5-0.6
		l-0.8-1.2l-0.4-0.7l-0.4-0.6c-1.9-3.4-2.9-7.4-2.9-11.5c0-2.1,0.3-4,0.8-5.9c0.5-2,1.3-3.8,2.2-5.4c2-3.4,4.7-6.5,7.8-8.8
		c3-2.3,6.6-4,10.3-5c3.6-0.9,7.4-1.2,11-0.8c1.8,0.2,3.5,0.6,5.2,1.1l1.2,0.4l1.2,0.5c0.2,0.1,0.5,0.2,0.7,0.3
		c0.2,0.1,0.3,0.1,0.5,0.2l1.1,0.6c0.1,0,0.2,0.1,0.2,0.1c0.1,0,0.2,0.1,0.3,0.2l1.2,0.7l1.2,0.8l1.9,1.4l1.5,1.2l1.4,1.2l1.1,1.1
		l1,1l1.6,1.9c0.9,1.2,1.9,2.5,2.7,3.9c0.3,0.5,0.6,1,0.8,1.5l0.3,0.5c0.1,0.2,0.2,0.4,0.3,0.6c0.1,0.1,0.1,0.2,0.2,0.3l0.2,0.4
		c0.1,0.2,0.2,0.4,0.3,0.6c0.5,1.2,1.1,2.6,1.5,4c0.8,2.5,1.3,5.1,1.6,7.7c0.2,2.3,0.2,4.6,0,6.9c-0.2,1.9-0.5,3.8-1,5.7
		c-0.1,0.3-0.2,0.6-0.2,0.8c-0.2,0.6-0.3,1.1-0.5,1.6l-0.3,0.8l0,0c-1.2,2.3-2.3,4.6-3.4,7l0,0.1c-0.1,0.2-0.2,0.5-0.3,0.7
		c-2.1,4.9-3.9,9.9-5.3,15c-0.7,2.6-1.3,5.2-1.8,7.8c-0.4-0.6-0.7-1.2-1.1-1.8c0-0.1-0.1-0.1-0.1-0.2c-1.6-2.4-3.5-4.6-5.5-6.6
		c-0.9-0.9-2-1.9-3.5-3.1c-0.2-0.2-0.4-0.3-0.6-0.5l-0.6-0.4c-0.2-0.2-0.5-0.3-0.7-0.5l-0.4-0.3c-0.5-0.3-1.1-0.7-1.7-1
		c-1.5-0.9-3.2-1.7-4.6-2.3l-1.8-0.7l-1.4-0.5l-2.4-0.7l-2-0.5l-2-0.4l-1.1-0.1c-0.3,0-0.6-0.1-0.9-0.1l-1.4-0.1l-2.1-0.1
		c-0.2,0-0.3,0-0.5,0l-0.2,0c-1,0-2,0.1-3,0.2l-1.5,0.2l-1.4,0.2c-2,0.4-3.9,1-5.8,1.7c-3.8,1.5-7.4,3.8-10.4,6.6
		c-3.1,2.9-5.6,6.4-7.4,10.3c-1.8,3.9-2.8,8.3-2.9,12.6c-0.1,2.1,0.2,4.4,0.7,6.6c0.5,2.1,1.3,4.2,2.4,6.3c2.2,4,5.3,7.4,9,9.7
		l1.5,0.9l0.7,0.4l1.5,0.7l0.7,0.3c0.4,0.2,0.7,0.3,1.1,0.4c0.2,0.1,0.3,0.1,0.5,0.2c0.9,0.3,2,0.6,3.2,0.8c0.5,0.1,1,0.2,1.5,0.2
		l0.1,0c0.2,0,0.5,0.1,0.7,0.1l1,0.1l0.8,0l2-0.1c0.2,0,0.4,0,0.6,0c1.1-0.1,2.1-0.3,3.3-0.6c0.5-0.1,1-0.3,1.5-0.5l0.2-0.1
		c0.5-0.2,1-0.4,1.4-0.6c1.1-0.5,2-1,2.9-1.6c7.6-4.9,11.3-14.7,8.6-22.8c-1.3-4-4.2-7.4-7.8-9.4c-1.8-1-3.7-1.6-5.7-1.9l-0.7-0.1
		l-0.7-0.1l0,0c0,0-0.2,0-0.2,0l-1.2,0l-0.2,0c-0.4,0-0.9,0.1-1.3,0.1l-0.8,0.1c-0.1,0-0.1,0-0.2,0c-0.2,0-0.4,0.1-0.6,0.1
		c-1.9,0.5-3.6,1.4-5.1,2.6c-1.5,1.2-2.7,2.7-3.5,4.3c-0.8,1.6-1.3,3.4-1.4,5.2l0,0.2c0,0,0,0,0,0.2l0,1c0,0.1,0,0.3,0,0.4l0,0.4
		c0,0.2,0,0.4,0.1,0.5c0,0.1,0,0.2,0.1,0.3c0.1,0.3,0.1,0.6,0.2,0.9l0.2,0.6l0.2,0.6c0.1,0.3,0.3,0.6,0.4,0.9l0.1,0.2
		c0.1,0.2,0.2,0.3,0.3,0.5l0.9,1.2c0.1,0.1,0.2,0.3,0.4,0.4l0.2,0.2c0.2,0.2,0.4,0.4,0.7,0.6c1.2,1.1,2.7,1.8,4.2,2.3
		c0.2,0.1,0.5,0.1,0.7,0.2c0.1,0,0.2,0,0.3,0.1l0.1,0c0.2,0,0.5,0.1,0.7,0.1l0.3,0c0,0,0.2,0,0.2,0l0.5,0c0.2,0,0.3,0,0.5,0l0.5,0
		c0.2,0,0.3,0,0.4-0.1l0.1,0c0.9-0.2,1.6-0.5,2.2-0.7l0.5-0.3c0.1,0,0.1-0.1,0.2-0.1l0.6-0.4l0.4-0.3c0.2-0.2,0.4-0.4,0.6-0.6
		l0.2-0.2c0.2-0.2,0.4-0.4,0.5-0.6l0.2-0.2c0.5-0.7,0.8-1.2,1-1.7c0.5-1.2,0.8-2.4,0.8-3.7c0-1-0.3-2.1-0.8-3.1l-0.2-0.3l0,0
		c-0.2-0.3-0.5-0.5-0.8-0.5c-0.5,0-1,0.4-1,1c0,0.2,0,0.3,0.1,0.4l0.1,0.2c0.4,0.7,0.5,1.5,0.5,2.3c0,1-0.2,2-0.6,2.9
		c-0.2,0.4-0.4,0.8-0.8,1.3l-0.1,0.2c-0.1,0.1-0.3,0.3-0.4,0.4l-0.2,0.2c-0.1,0.1-0.3,0.3-0.4,0.4l-0.3,0.3l-0.5,0.3
		c0,0-0.1,0-0.1,0l-0.5,0.2c-0.6,0.3-1.1,0.4-1.6,0.5c-0.1,0-0.1,0-0.2,0c-0.1,0-0.1,0-0.2,0l-0.5,0c-0.1,0-0.2,0-0.3,0l-0.9-0.1
		c-0.2,0-0.4,0-0.6-0.1c-0.1,0-0.2-0.1-0.3-0.1c-0.2,0-0.4-0.1-0.6-0.1c-1.2-0.4-2.3-1-3.3-1.9c-0.2-0.1-0.3-0.3-0.5-0.5
		c-0.1-0.1-0.1-0.2-0.2-0.2c-0.1-0.1-0.1-0.1-0.2-0.2l-0.4-0.5l-0.4-0.6c-0.1-0.1-0.1-0.2-0.2-0.3l-0.1-0.3
		c-0.1-0.2-0.2-0.4-0.3-0.7l-0.3-1c-0.1-0.2-0.1-0.4-0.1-0.7c0-0.1,0-0.2-0.1-0.4c0-0.1,0-0.2,0-0.2c0-0.1,0-0.1,0-0.2l0-0.2
		c0-0.1,0-0.2,0-0.3l0-0.9l0-0.2c0.1-1.4,0.6-2.9,1.2-4.2c0.7-1.3,1.7-2.5,2.9-3.4c1.2-1,2.6-1.7,4.1-2l0.1,0c0.1,0,0.2,0,0.3-0.1
		c0.1,0,0.2,0,0.2,0l0.6-0.1c0.3,0,0.6,0,0.8-0.1l0.3,0l0.6,0l1.2,0.1l0.6,0.1c1.6,0.3,3.2,0.9,4.6,1.7c2.9,1.7,5.2,4.5,6.2,7.8
		c0.5,1.7,0.7,3.4,0.6,5.1c-0.1,0.9-0.2,1.8-0.4,2.6c-0.2,0.9-0.5,1.7-0.8,2.6c-1.3,3.4-3.8,6.3-6.9,8.2c-0.7,0.5-1.5,0.9-2.4,1.3
		c-0.4,0.2-0.7,0.3-1.1,0.4l-0.3,0.1c-0.4,0.1-0.8,0.2-1.2,0.3c-1,0.2-1.9,0.4-2.7,0.5c-0.1,0-0.3,0-0.4,0c-0.1,0-0.2,0-0.3,0
		l-0.3,0l-1.7,0l-0.8-0.1c-0.2,0-0.4,0-0.5-0.1l-0.2,0c-0.4-0.1-0.8-0.1-1.2-0.2c-1-0.2-1.9-0.5-2.7-0.7c-0.2-0.1-0.3-0.1-0.5-0.2
		c-0.3-0.1-0.6-0.2-0.9-0.3l-0.6-0.3l-0.7-0.3l-1.2-0.6l-0.6-0.4l-0.6-0.4c-3.1-2-5.6-4.9-7.4-8.3c-0.9-1.7-1.5-3.5-1.9-5.2
		c-0.4-1.9-0.6-3.7-0.5-5.4c0.2-3.7,1.1-7.4,2.7-10.6c1.5-3.2,3.7-6.2,6.4-8.5c2.5-2.3,5.6-4.1,8.8-5.3c1.6-0.6,3.2-1,4.8-1.3
		l1.2-0.2l1.2-0.1c0.3,0,0.5,0,0.8,0c0.2,0,0.3,0,0.5,0l1.1,0c0.1,0,0.2,0,0.2,0c0.1,0,0.2,0,0.3,0l1.3,0.1l1.3,0.1l2.2,0.3l1.7,0.4
		l1.7,0.4l1.4,0.4l1.2,0.4l2.2,0.9c1.3,0.6,2.6,1.3,3.9,2.1c0.5,0.3,0.9,0.6,1.3,0.9l0.4,0.3c0.2,0.1,0.4,0.2,0.5,0.4
		c0.1,0.1,0.2,0.1,0.3,0.2l0.3,0.2c0.2,0.1,0.3,0.3,0.5,0.4c0.9,0.7,2,1.7,3,2.7c1.7,1.7,3.3,3.6,4.6,5.7c1.2,1.8,2.1,3.7,2.9,5.7
		c0.7,1.6,1.2,3.3,1.6,5.1c0.1,0.3,0.1,0.5,0.2,0.8c0.1,0.5,0.2,1,0.3,1.5l0.1,0.5c0,0.2,0,0.4,0,0.6c-0.1,7.9,0.9,15.9,2.8,23.6
		c0.4,1.7,0.9,3.4,1.4,5c-0.6-0.4-1.2-0.7-1.8-1.1c-0.1,0-0.1-0.1-0.2-0.1c-2.3-1.3-4.8-2.3-7.4-3.1c-1.2-0.4-2.5-0.7-4.2-1
		c-0.2,0-0.5-0.1-0.7-0.1l-0.7-0.1c-0.3,0-0.5-0.1-0.8-0.1l-0.5,0c-0.6-0.1-1.2-0.1-1.8-0.1c-1.7-0.1-3.3,0-4.8,0l-1.8,0.2l-1.3,0.2
		l-2.3,0.4l-1.8,0.5l-1.8,0.6l-1,0.4c-0.3,0.1-0.5,0.2-0.8,0.3l-1.2,0.5l-1.8,0.8c-0.1,0.1-0.3,0.1-0.4,0.2l-0.2,0.1
		c-0.9,0.4-1.6,0.9-2.4,1.4l-1.1,0.8l-1.1,0.8c-1.5,1.2-2.8,2.4-4,3.8c-2.5,2.9-4.5,6.3-5.7,9.8c-1.3,3.7-1.9,7.7-1.7,11.6
		c0.2,4,1.2,8,3,11.6c0.9,1.8,2,3.5,3.4,5.2c1.3,1.5,2.9,2.9,4.6,4.2c3.5,2.4,7.5,3.8,11.6,4.2l1.6,0.1l0.8,0l1.6-0.1l0.7-0.1
		c0.4,0,0.7-0.1,1.1-0.1c0.2,0,0.3,0,0.5-0.1c0.8-0.2,1.9-0.4,3-0.7c0.5-0.1,0.9-0.3,1.3-0.5l0.1,0c0.2-0.1,0.4-0.2,0.6-0.2l0.9-0.4
		l0.6-0.3l1.6-0.9c0.2-0.1,0.3-0.2,0.4-0.3c0.8-0.5,1.6-1.2,2.5-1.9c0.4-0.3,0.7-0.7,1-1l0.1-0.2c0.3-0.4,0.6-0.7,0.9-1.1
		c0.7-0.8,1.2-1.7,1.7-2.6c4.1-7.3,3-16.9-2.6-22.4c-2.8-2.7-6.6-4.3-10.5-4.4c-1.9-0.1-3.7,0.2-5.5,0.8l-0.7,0.2l-0.6,0.3l0,0
		c0,0-0.2,0.1-0.2,0.1l-1,0.5l-0.2,0.1c-0.3,0.2-0.7,0.4-1,0.7l-0.6,0.4c0,0-0.1,0.1-0.1,0.1c-0.1,0.1-0.3,0.2-0.4,0.3
		c-1.3,1.2-2.4,2.7-3.1,4.4c-0.7,1.6-1.1,3.4-1,5.1c0,1.7,0.4,3.4,1,4.9l0.1,0.1c0,0,0,0,0.1,0.2l0.4,0.8c0.1,0.1,0.1,0.2,0.2,0.4
		l0.2,0.3c0.1,0.1,0.2,0.3,0.3,0.4c0.1,0.1,0.1,0.2,0.2,0.2c0.2,0.2,0.4,0.5,0.6,0.7l0.4,0.4l0.5,0.4c0.3,0.2,0.5,0.4,0.8,0.6
		l0.2,0.1c0.2,0.1,0.3,0.2,0.4,0.3l1.3,0.6c0.2,0.1,0.3,0.1,0.5,0.2l0.3,0.1c0.3,0.1,0.5,0.2,0.8,0.2c1.5,0.3,3,0.4,4.5,0.1
		c0.2,0,0.5-0.1,0.7-0.2c0.1,0,0.2-0.1,0.3-0.1l0.1,0c0.2-0.1,0.4-0.2,0.6-0.2l0.3-0.1c0,0,0.2-0.1,0.2-0.1l0.4-0.2
		c0.1-0.1,0.3-0.1,0.4-0.2l0.4-0.3c0.1-0.1,0.2-0.2,0.3-0.2l0.1-0.1c0.6-0.5,1.1-1.1,1.5-1.5l0.3-0.4c0-0.1,0.1-0.1,0.1-0.2l0.3-0.6
		l0.2-0.5c0.1-0.2,0.2-0.5,0.3-0.7l0.1-0.2c0.1-0.2,0.1-0.5,0.2-0.7l0.1-0.3c0.1-0.7,0.1-1.3,0.1-1.9c-0.1-1.2-0.4-2.3-1-3.4
		c-0.5-0.9-1.1-1.6-1.9-2.2l-0.2-0.1l0,0c-0.1-0.1-0.3-0.1-0.4-0.1c-0.5,0-0.9,0.4-0.9,0.9c0,0.3,0.2,0.6,0.4,0.7l0,0
		c0.6,0.5,1.1,1,1.4,1.6c0.4,0.8,0.6,1.7,0.7,2.6c0,0.4,0,0.8-0.1,1.4l0,0.2c0,0.2-0.1,0.4-0.1,0.5l-0.1,0.2
		c-0.1,0.2-0.1,0.3-0.2,0.5l-0.2,0.4L61,266c0,0,0,0,0,0.1l-0.3,0.4c-0.4,0.5-0.7,0.8-1.1,1.1c-0.1,0-0.1,0.1-0.2,0.1
		c0,0-0.1,0.1-0.2,0.1l-0.4,0.3c-0.1,0-0.2,0.1-0.2,0.1l-0.7,0.3c-0.2,0.1-0.3,0.1-0.5,0.2c-0.1,0-0.2,0.1-0.3,0.1
		c-0.2,0-0.4,0.1-0.5,0.1c-1.1,0.2-2.4,0.2-3.5-0.1c-0.2,0-0.4-0.1-0.6-0.2c-0.1,0-0.2-0.1-0.3-0.1c-0.1,0-0.2-0.1-0.2-0.1l-0.5-0.3
		l-0.5-0.3c-0.1,0-0.2-0.1-0.2-0.2l-0.2-0.2c-0.2-0.1-0.4-0.3-0.5-0.4l-0.7-0.7c-0.1-0.1-0.3-0.3-0.4-0.5c-0.1-0.1-0.1-0.2-0.2-0.3
		c0-0.1-0.1-0.1-0.1-0.2c0-0.1-0.1-0.1-0.1-0.2l-0.1-0.2c0-0.1-0.1-0.2-0.1-0.2l-0.4-0.7l-0.1-0.2c-0.5-1.2-0.8-2.6-0.7-4
		c0-1.4,0.3-2.8,0.9-4c0.6-1.3,1.5-2.5,2.5-3.4l0,0c0.1-0.1,0.1-0.1,0.2-0.2c0.1,0,0.1-0.1,0.2-0.1l0.4-0.3c0.2-0.1,0.4-0.3,0.7-0.4
		l0.2-0.1l0.5-0.3l1-0.4l0.6-0.2c1.5-0.5,3-0.7,4.5-0.6c3.1,0.2,6.2,1.5,8.4,3.8c1.1,1.1,2,2.5,2.7,4c0.3,0.8,0.6,1.6,0.8,2.4
		c0.2,0.8,0.3,1.6,0.4,2.5c0.3,3.3-0.4,6.8-2.2,9.7c-0.4,0.7-0.9,1.4-1.5,2.1c-0.2,0.3-0.5,0.5-0.7,0.8l-0.2,0.2
		c-0.3,0.3-0.5,0.5-0.8,0.8c-0.7,0.6-1.4,1.1-2.1,1.5c-0.1,0.1-0.2,0.1-0.3,0.2c-0.1,0-0.1,0.1-0.2,0.1l-0.3,0.1l-1.5,0.7l-0.7,0.3
		c-0.2,0.1-0.3,0.1-0.5,0.2l-0.2,0.1c-0.4,0.1-0.7,0.2-1.1,0.3c-0.9,0.3-1.8,0.4-2.5,0.5c-0.2,0-0.3,0-0.5,0.1
		c-0.3,0-0.6,0.1-0.8,0.1l-0.6,0l-0.7,0l-1.3,0l-0.7,0l-0.6-0.1c-3.4-0.4-6.7-1.6-9.6-3.7c-1.5-1.1-2.7-2.2-3.8-3.5
		c-1.1-1.4-2-2.8-2.7-4.3c-1.4-3.1-2.2-6.5-2.3-9.9c-0.1-3.3,0.5-6.7,1.6-9.8c1.1-3,2.8-5.8,5-8.1c1-1.1,2.2-2.2,3.4-3.1l0.9-0.7
		l1-0.6c0.2-0.1,0.4-0.2,0.6-0.4c0.1-0.1,0.3-0.1,0.4-0.2l0.9-0.5c0.1,0,0.1-0.1,0.2-0.1c0.1,0,0.2-0.1,0.3-0.1l1.1-0.5l1.1-0.5
		l1.9-0.7l1.6-0.4l1.6-0.4l1.3-0.2l1.2-0.2l2.2-0.2c1.3,0,2.7-0.1,4.1,0.1c0.5,0,1,0.1,1.5,0.1l0.5,0.1c0.2,0,0.4,0.1,0.6,0.1
		c0.1,0,0.2,0,0.3,0.1l0.4,0.1c0.2,0,0.4,0.1,0.6,0.1c1.1,0.2,2.3,0.5,3.6,0.9c2.2,0.7,4.2,1.6,6.2,2.7c1.7,1,3.4,2.1,4.9,3.4
		c1.2,1.1,2.4,2.2,3.5,3.5c0.2,0.2,0.3,0.4,0.5,0.6c0.3,0.4,0.6,0.7,0.9,1.1l0.4,0.6l0.2,0.3c4.1,8.3,9.4,16.1,15.8,22.8l1,1.1
		l1,0.9c-0.7-0.1-1.4-0.1-2.1-0.1c-0.1,0-0.1,0-0.2,0c-2.4-0.1-4.9,0.1-7.3,0.6c-1.1,0.2-2.3,0.5-3.8,1c-0.2,0.1-0.4,0.1-0.6,0.2
		l-0.6,0.2c-0.2,0.1-0.5,0.2-0.7,0.3L89,273c-0.5,0.2-1,0.4-1.5,0.6c-1.4,0.6-2.7,1.4-3.8,2l-1.4,0.9l-1,0.7l-1.7,1.3l-1.3,1.1
		L77,281l-0.6,0.7c-0.2,0.2-0.4,0.4-0.5,0.6l-0.7,0.9l-1.1,1.4c-0.1,0.1-0.2,0.2-0.3,0.4l-0.1,0.2c-0.5,0.7-0.9,1.4-1.3,2.1
		l-0.6,1.1l-0.5,1.1c-0.7,1.5-1.3,3.2-1.7,4.8c-0.8,3.4-1,6.9-0.5,10.4c0.5,3.5,1.7,7,3.5,10.1c1.8,3.1,4.3,6,7.3,8.1
		c1.5,1.1,3.1,2,4.9,2.8c1.7,0.7,3.5,1.2,5.5,1.4c3.8,0.5,7.7,0,11.1-1.5l1.3-0.6l0.6-0.3l1.3-0.7l0.6-0.4c0.3-0.2,0.6-0.4,0.8-0.6
		c0.1-0.1,0.2-0.2,0.4-0.3c0.6-0.5,1.4-1.1,2.1-1.8c0.3-0.3,0.6-0.6,0.9-0.9l0.1-0.1c0.1-0.1,0.3-0.3,0.4-0.5l0.5-0.7l0.4-0.5
		l0.9-1.4c0.1-0.1,0.2-0.3,0.2-0.4c0.4-0.8,0.8-1.6,1.2-2.6c0.2-0.4,0.3-0.9,0.4-1.3l0.1-0.2c0.1-0.4,0.2-0.8,0.3-1.3
		c0.2-1,0.3-1.9,0.3-2.8c0.3-7.6-4.6-15-11.5-17.1c-3.4-1-7.2-0.7-10.3,0.8c-1.5,0.7-2.9,1.7-4.1,3l-0.4,0.5l-0.4,0.5l0,0
		c0,0-0.1,0.1-0.1,0.1l-0.6,0.8l-0.1,0.2c-0.2,0.3-0.4,0.7-0.6,1l-0.3,0.6c0,0,0,0.1-0.1,0.1c-0.1,0.1-0.1,0.3-0.2,0.4
		c-0.6,1.5-0.8,3.2-0.7,4.8c0.1,1.6,0.6,3.2,1.3,4.5c0.7,1.4,1.7,2.6,2.9,3.5l0.1,0.1c0,0,0,0,0.1,0.1l0.7,0.5
		c0.1,0.1,0.2,0.1,0.3,0.2l0.3,0.2c0.1,0.1,0.3,0.2,0.4,0.2c0.1,0,0.2,0.1,0.2,0.1c0.2,0.1,0.5,0.2,0.8,0.3l0.5,0.2l0.5,0.1
		c0.3,0.1,0.6,0.1,0.9,0.1l0.2,0c0.2,0,0.3,0,0.5,0l1.3,0c0.2,0,0.3,0,0.4,0l0.2,0c0.3,0,0.5-0.1,0.8-0.2c1.3-0.3,2.6-1,3.6-1.8
		c0.2-0.1,0.3-0.3,0.5-0.4c0.1-0.1,0.1-0.1,0.2-0.2l0,0c0.1-0.1,0.3-0.3,0.4-0.5l0.2-0.2c0,0,0.1-0.1,0.1-0.1l0.3-0.4
		c0.1-0.1,0.2-0.2,0.2-0.4l0.2-0.4c0.1-0.1,0.1-0.2,0.2-0.3l0.1-0.1c0.3-0.7,0.5-1.4,0.6-1.9l0.1-0.5c0-0.1,0-0.1,0-0.2l0-0.6l0-0.4
		c0-0.3,0-0.5-0.1-0.7l0-0.2c0-0.2-0.1-0.4-0.2-0.6l-0.1-0.2c-0.2-0.6-0.4-1.1-0.7-1.5c-0.5-0.9-1.3-1.7-2.2-2.3
		c-0.7-0.5-1.6-0.8-2.5-1c-0.1,0-0.1,0-0.2,0c-0.5,0-0.8,0.4-0.8,0.8c0,0.4,0.3,0.8,0.7,0.8c0.7,0.1,1.3,0.4,1.8,0.7
		c0.7,0.5,1.2,1.1,1.7,1.8c0.2,0.3,0.3,0.7,0.5,1.2l0,0.2c0,0.2,0.1,0.3,0.1,0.5l0,0.2c0,0.2,0,0.3,0,0.5l0,0.4l0,0.5c0,0,0,0,0,0.1
		L102,307c-0.1,0.6-0.3,1-0.4,1.3c0,0.1-0.1,0.1-0.1,0.2c0,0.1,0,0.1-0.1,0.2l-0.2,0.4c0,0.1-0.1,0.1-0.1,0.2l-0.5,0.6
		c-0.1,0.1-0.2,0.2-0.3,0.4c-0.1,0.1-0.1,0.1-0.2,0.2c-0.1,0.1-0.2,0.2-0.4,0.3c-0.8,0.7-1.8,1.1-2.9,1.4c-0.2,0-0.3,0.1-0.5,0.1
		c-0.1,0-0.2,0-0.3,0c-0.1,0-0.2,0-0.2,0l-0.5,0l-0.6,0c-0.1,0-0.2,0-0.3,0l-0.2,0c-0.2,0-0.4-0.1-0.6-0.1l-0.9-0.3
		c-0.2,0-0.3-0.1-0.5-0.2c-0.1,0-0.2-0.1-0.3-0.1c-0.1,0-0.1-0.1-0.2-0.1c-0.1,0-0.1-0.1-0.1-0.1l-0.2-0.1c-0.1,0-0.1-0.1-0.2-0.1
		l-0.6-0.4l-0.1-0.1c-0.9-0.8-1.7-1.8-2.3-2.9c-0.6-1.1-0.9-2.4-1-3.7c-0.1-1.3,0.1-2.6,0.6-3.8l0-0.1c0-0.1,0.1-0.1,0.1-0.2
		c0-0.1,0.1-0.1,0.1-0.2l0.2-0.5c0.1-0.2,0.2-0.4,0.4-0.6l0.1-0.2L89,298l0.6-0.8l0.4-0.4c1-1,2.2-1.8,3.4-2.4
		c2.6-1.2,5.7-1.4,8.4-0.5c1.4,0.4,2.7,1.2,3.8,2.1c0.6,0.5,1.1,1,1.6,1.6c0.5,0.6,1,1.2,1.4,1.8c1.7,2.6,2.5,5.7,2.3,8.7
		c0,0.7-0.1,1.5-0.3,2.3c-0.1,0.3-0.2,0.6-0.2,1l-0.1,0.2c-0.1,0.3-0.2,0.7-0.3,1c-0.3,0.8-0.6,1.5-1,2.1c-0.1,0.1-0.1,0.2-0.2,0.3
		c0,0.1-0.1,0.1-0.1,0.2l-0.1,0.2l-0.9,1.2l-0.5,0.5c-0.1,0.1-0.2,0.2-0.3,0.3l-0.1,0.1c-0.2,0.3-0.5,0.5-0.8,0.7
		c-0.6,0.6-1.3,1.1-1.8,1.5c-0.1,0.1-0.2,0.2-0.4,0.2c-0.2,0.2-0.4,0.3-0.6,0.4l-0.5,0.3l-0.5,0.3l-1,0.5l-0.6,0.2l-0.5,0.2
		c-2.9,1.1-6.1,1.5-9.3,1c-1.6-0.3-3.1-0.7-4.5-1.3c-1.5-0.6-2.8-1.4-4-2.3c-2.5-1.9-4.6-4.3-6.1-7c-1.5-2.6-2.4-5.6-2.8-8.6
		c-0.3-2.9-0.1-5.9,0.6-8.7c0.4-1.4,0.8-2.7,1.4-3.9l0.5-0.9l0.5-0.9c0.1-0.2,0.2-0.4,0.3-0.5c0.1-0.1,0.1-0.2,0.2-0.3l0.5-0.8
		c0-0.1,0.1-0.1,0.1-0.2c0-0.1,0.1-0.1,0.2-0.2l0.7-0.9l0.7-0.8l1.3-1.3l1.1-1l1.1-1l1-0.7l0.9-0.6l1.7-1.1c1-0.6,2.1-1.2,3.3-1.7
		c0.4-0.2,0.8-0.3,1.2-0.5l0.4-0.2c0.2-0.1,0.3-0.1,0.5-0.2c0.1,0,0.2-0.1,0.3-0.1l0.3-0.1c0.2-0.1,0.3-0.1,0.5-0.2
		c1-0.3,2.1-0.6,3.3-0.7c2-0.3,4.1-0.5,6.2-0.4c1.8,0.1,3.6,0.3,5.4,0.7c1.5,0.3,2.9,0.8,4.3,1.4c0.2,0.1,0.4,0.2,0.6,0.3
		c0.4,0.2,0.8,0.4,1.2,0.5l0.6,0.3l1,0.5c0.1,0,0.1,0.1,0.2,0.1l0.7,0.5c1,0.7,2,1.4,3,2.1l0.3,0.2c0.2,0.1,0.4,0.2,0.6,0.3
		c0.4,0.2,0.7,0.5,1.1,0.7c3.4,2,6.9,4,10.5,5.6c1.8,0.9,3.6,1.6,5.5,2.3c0.6,0.2,1.2,0.5,1.8,0.7c-0.9,0.3-1.8,0.7-2.7,1.2
		c-0.1,0-0.1,0.1-0.2,0.1c-2.1,1-4.1,2.3-5.9,3.7c-0.9,0.7-1.7,1.4-2.8,2.5c-0.2,0.2-0.3,0.3-0.5,0.5l-0.4,0.4
		c-0.2,0.2-0.3,0.3-0.5,0.5l-0.3,0.3c-0.3,0.4-0.7,0.8-1,1.2c-0.9,1.1-1.7,2.3-2.4,3.4l-0.8,1.4l-0.5,1l-0.9,1.9l-0.6,1.5l-0.5,1.6
		l-0.2,0.9c-0.1,0.2-0.1,0.5-0.2,0.7l-0.2,1.1l-0.3,1.7c0,0.1,0,0.3-0.1,0.4l0,0.2c-0.1,0.8-0.2,1.6-0.2,2.4l0,1.2l0,1.2
		c0.1,1.6,0.3,3.2,0.7,4.8c0.8,3.2,2.2,6.3,4.1,9c2,2.8,4.5,5.2,7.4,7.1c2.9,1.9,6.3,3.1,9.7,3.7c1.7,0.3,3.5,0.3,5.4,0.2
		c1.7-0.2,3.5-0.6,5.3-1.2c3.5-1.3,6.5-3.4,8.8-6.1l0.9-1.1l0.4-0.5l0.8-1.2l0.3-0.6c0.2-0.3,0.3-0.6,0.4-0.8
		c0.1-0.1,0.1-0.2,0.2-0.4c0.3-0.7,0.7-1.6,1-2.5c0.1-0.4,0.3-0.8,0.4-1.2l0-0.1c0.1-0.2,0.1-0.4,0.1-0.6l0.2-0.8l0.1-0.6l0.2-1.6
		c0-0.2,0-0.3,0-0.5c0-0.9,0-1.7-0.1-2.7c0-0.4-0.1-0.9-0.2-1.3l0-0.2c-0.1-0.4-0.2-0.8-0.3-1.2c-0.3-0.9-0.6-1.7-1-2.5
		c-3.1-6.6-10.5-10.7-17.3-9.4c-3.3,0.6-6.4,2.5-8.4,5.2c-1,1.3-1.7,2.8-2.2,4.4l-0.2,0.6l-0.1,0.6l0,0c0,0,0,0.2,0,0.2l-0.1,0.9
		l0,0.2c0,0.4,0,0.7,0,1.1l0,0.6c0,0.1,0,0.1,0,0.2c0,0.1,0,0.3,0,0.5c0.2,1.5,0.7,3.1,1.5,4.4c0.8,1.3,1.9,2.4,3.1,3.3
		c1.2,0.8,2.6,1.4,4,1.7l0.1,0c0,0,0,0,0.1,0l0.8,0.1c0.1,0,0.2,0,0.4,0l0.3,0c0.1,0,0.3,0,0.4,0c0.1,0,0.2,0,0.3,0
		c0.3,0,0.5,0,0.8-0.1l0.5-0.1l0.5-0.1c0.3-0.1,0.5-0.2,0.8-0.3l0.2-0.1c0.2-0.1,0.3-0.1,0.4-0.2l1.1-0.6c0.1-0.1,0.3-0.2,0.4-0.2
		l0.2-0.1c0.2-0.1,0.4-0.3,0.6-0.5c1-0.9,1.8-2,2.3-3.1c0.1-0.2,0.2-0.4,0.2-0.6c0-0.1,0.1-0.2,0.1-0.3l0-0.1
		c0.1-0.2,0.1-0.4,0.1-0.6l0.1-0.3c0,0,0-0.1,0-0.2l0.1-0.4c0-0.1,0-0.3,0-0.4l0-0.4c0-0.1,0-0.2,0-0.4l0-0.1c0-0.7-0.2-1.4-0.3-1.8
		l-0.2-0.4c0-0.1,0-0.1-0.1-0.2l-0.3-0.5l-0.2-0.4c-0.1-0.2-0.3-0.4-0.4-0.6l-0.1-0.2c-0.1-0.2-0.3-0.3-0.4-0.5l-0.2-0.2
		c-0.5-0.4-0.9-0.8-1.3-1c-0.9-0.5-1.9-0.9-2.9-1c-0.8-0.1-1.7,0-2.5,0.3l0,0c-0.4,0.1-0.6,0.4-0.6,0.8c0,0.4,0.4,0.8,0.8,0.8
		c0.1,0,0.2,0,0.3-0.1l0,0c0.6-0.2,1.3-0.3,1.9-0.2c0.8,0.1,1.5,0.4,2.2,0.8c0.3,0.2,0.6,0.4,0.9,0.8l0.1,0.1
		c0.1,0.1,0.2,0.2,0.3,0.3l0.1,0.2c0.1,0.1,0.2,0.2,0.3,0.4l0.2,0.3l0.2,0.5c0,0,0,0,0,0.1l0.1,0.4c0.1,0.5,0.2,0.9,0.2,1.3
		c0,0.1,0,0.1,0,0.2c0,0.1,0,0.1,0,0.2l0,0.4c0,0.1,0,0.2,0,0.2l-0.1,0.7c0,0.1-0.1,0.3-0.1,0.4c0,0.1-0.1,0.2-0.1,0.3
		c-0.1,0.1-0.1,0.3-0.2,0.4c-0.4,0.9-1.1,1.8-1.9,2.5c-0.1,0.1-0.3,0.2-0.4,0.3c-0.1,0-0.1,0.1-0.2,0.2c-0.1,0-0.1,0.1-0.2,0.1
		l-0.5,0.3l-0.5,0.2c-0.1,0-0.1,0.1-0.2,0.1l-0.2,0.1c-0.2,0.1-0.4,0.1-0.6,0.2l-0.9,0.2c-0.2,0-0.3,0-0.5,0c-0.1,0-0.2,0-0.3,0
		c-0.1,0-0.1,0-0.2,0c-0.1,0-0.1,0-0.2,0l-0.2,0c-0.1,0-0.2,0-0.2,0l-0.7-0.1l-0.2,0c-1.1-0.3-2.2-0.8-3.2-1.5
		c-1-0.7-1.8-1.6-2.4-2.7c-0.6-1.1-1-2.3-1.2-3.5l0-0.1c0-0.1,0-0.2,0-0.2c0-0.1,0-0.1,0-0.2l0-0.5c0-0.2,0-0.5,0-0.7l0-0.2l0.1-0.5
		l0.2-0.9l0.1-0.5c0.4-1.3,1-2.5,1.9-3.5c1.7-2.2,4.2-3.6,6.9-4.1c1.4-0.2,2.8-0.2,4.2,0.1c0.7,0.2,1.4,0.4,2.1,0.6
		c0.7,0.3,1.3,0.6,2,0.9c2.5,1.5,4.6,3.7,5.8,6.4c0.3,0.6,0.5,1.3,0.7,2.1c0.1,0.3,0.2,0.6,0.2,0.9l0,0.2c0.1,0.3,0.1,0.7,0.1,1
		c0.1,0.8,0.1,1.5,0.1,2.2c0,0.1,0,0.2,0,0.3c0,0.1,0,0.1,0,0.2l0,0.3l-0.2,1.4l-0.2,0.7c0,0.1-0.1,0.3-0.1,0.4l0,0.1
		c-0.1,0.3-0.2,0.6-0.3,1c-0.3,0.8-0.6,1.5-0.9,2.1c-0.1,0.1-0.1,0.2-0.2,0.4c-0.1,0.2-0.2,0.4-0.4,0.6l-0.3,0.5l-0.3,0.5l-0.7,0.9
		l-0.4,0.5l-0.4,0.4c-2,2.2-4.5,4-7.4,5c-1.5,0.5-3,0.8-4.4,0.9c-1.5,0.1-3,0-4.4-0.2c-2.9-0.5-5.8-1.7-8.2-3.3
		c-2.4-1.6-4.5-3.7-6.1-6.1c-1.6-2.3-2.7-4.9-3.3-7.6c-0.3-1.3-0.5-2.7-0.5-4l0-1l0-1c0-0.2,0-0.4,0-0.6c0-0.1,0-0.3,0-0.4l0.1-0.9
		c0-0.1,0-0.1,0-0.2c0-0.1,0-0.2,0-0.3l0.2-1l0.3-1l0.5-1.7l0.5-1.3l0.5-1.3l0.5-1l0.5-0.9l0.9-1.6c0.6-0.9,1.3-1.9,2.1-2.9
		c0.3-0.3,0.6-0.7,0.8-1l0.3-0.3c0.1-0.1,0.2-0.3,0.4-0.4c0.1-0.1,0.1-0.1,0.2-0.2l0.2-0.2c0.1-0.1,0.2-0.2,0.4-0.4
		c0.7-0.6,1.5-1.4,2.5-2.1c1.6-1.2,3.3-2.2,5.1-3c1.6-0.7,3.2-1.3,4.9-1.7c1.4-0.3,2.8-0.6,4.3-0.7c0.2,0,0.4,0,0.7,0
		c0.4,0,0.8-0.1,1.2,0l0.6,0l1.1,0c0.3,0,0.5,0,0.8,0c0.9,0.2,1.7,0.3,2.6,0.4c3.9,0.6,7.9,0.8,11.9,0.7c2,0,3.9-0.2,5.9-0.3
		c1.1-0.1,2.3-0.3,3.4-0.4c-0.5,0.6-1,1.2-1.5,1.8c0,0.1-0.1,0.1-0.1,0.2c-1.3,1.8-2.4,3.7-3.4,5.7c-0.4,0.9-0.8,1.9-1.3,3.3
		c-0.1,0.2-0.1,0.4-0.2,0.6l-0.2,0.6c-0.1,0.2-0.1,0.4-0.2,0.6l-0.1,0.4c-0.1,0.5-0.2,1-0.3,1.5c-0.3,1.3-0.4,2.7-0.5,3.9l-0.1,1.5
		l0,1.1l0.1,1.9l0.2,1.5l0.2,1.6l0.2,0.8c0,0.2,0.1,0.5,0.2,0.7l0.3,1l0.5,1.5c0,0.1,0.1,0.3,0.1,0.4l0.1,0.2
		c0.3,0.8,0.6,1.4,0.9,2.1l0.5,1l0.5,1c0.8,1.3,1.7,2.6,2.7,3.7c2,2.4,4.6,4.4,7.4,5.8c2.9,1.5,6.1,2.4,9.3,2.7
		c3.3,0.3,6.7-0.1,9.8-1.1c1.6-0.5,3.1-1.2,4.6-2.2c1.4-0.9,2.7-2,3.9-3.3c2.3-2.6,4-5.7,4.7-9l0.3-1.3l0.1-0.6l0.1-1.3l0-0.6
		c0-0.3,0-0.6,0-0.9c0-0.1,0-0.3,0-0.4c0-0.7-0.1-1.6-0.2-2.5c-0.1-0.4-0.1-0.8-0.2-1.1l0-0.1c0-0.2-0.1-0.4-0.1-0.5l-0.2-0.7
		l-0.2-0.6l-0.6-1.4c-0.1-0.1-0.1-0.3-0.2-0.4c-0.3-0.7-0.8-1.5-1.3-2.2c-0.2-0.3-0.5-0.7-0.7-1l-0.1-0.1c-0.3-0.3-0.5-0.6-0.8-0.9
		c-0.6-0.6-1.3-1.2-1.9-1.7c-5.5-4.2-13.5-4.4-18.6-0.4c-2.5,2-4.3,4.9-4.8,8c-0.3,1.5-0.2,3.1,0,4.6l0.1,0.6l0.1,0.5l0,0
		c0,0,0,0.2,0,0.2l0.3,0.9l0.1,0.2c0.1,0.3,0.3,0.6,0.4,0.9l0.3,0.5c0,0,0.1,0.1,0.1,0.1c0.1,0.1,0.1,0.2,0.2,0.4
		c0.8,1.2,1.9,2.3,3.2,3c1.2,0.7,2.6,1.2,4,1.4c1.4,0.2,2.8,0.1,4.1-0.3l0.1,0c0,0,0,0,0.1,0l0.7-0.3c0.1,0,0.2-0.1,0.3-0.1l0.3-0.1
		c0.1-0.1,0.2-0.1,0.4-0.2c0.1,0,0.1-0.1,0.2-0.1c0.2-0.1,0.4-0.3,0.6-0.4l0.4-0.3l0.4-0.3c0.2-0.2,0.4-0.4,0.6-0.6l0.1-0.1
		c0.1-0.1,0.2-0.2,0.3-0.3l0.7-1c0.1-0.1,0.1-0.2,0.2-0.4l0.1-0.2c0.1-0.2,0.2-0.4,0.3-0.6c0.4-1.2,0.6-2.4,0.6-3.6
		c0-0.2,0-0.4-0.1-0.6c0-0.1,0-0.2,0-0.3l0-0.1c0-0.2-0.1-0.4-0.1-0.5l-0.1-0.2c0,0,0-0.1,0-0.2l-0.1-0.4c0-0.1-0.1-0.3-0.2-0.4
		L203,318c0-0.1-0.1-0.2-0.2-0.3l-0.1-0.1c-0.3-0.6-0.8-1-1.1-1.4l-0.3-0.3c0,0-0.1-0.1-0.1-0.1l-0.4-0.3l-0.3-0.2
		c-0.2-0.1-0.4-0.2-0.6-0.3l-0.2-0.1c-0.2-0.1-0.4-0.2-0.6-0.2l-0.2-0.1c-0.6-0.2-1.1-0.3-1.5-0.3c-1-0.1-2,0.1-2.9,0.4
		c-0.7,0.3-1.4,0.7-2,1.4c-0.2,0.1-0.3,0.3-0.3,0.6c0,0.4,0.3,0.8,0.8,0.8c0.2,0,0.4-0.1,0.6-0.3c0.4-0.4,1-0.8,1.5-1
		c0.7-0.2,1.5-0.3,2.2-0.3c0.3,0,0.7,0.1,1.1,0.2l0.1,0.1c0.1,0.1,0.3,0.1,0.4,0.2l0.2,0.1c0.1,0.1,0.3,0.1,0.4,0.2l0.3,0.2l0.4,0.3
		c0,0,0,0,0,0l0.3,0.3c0.4,0.4,0.6,0.7,0.8,1c0,0,0.1,0.1,0.1,0.1c0,0,0.1,0.1,0.1,0.1l0.2,0.4c0,0.1,0.1,0.1,0.1,0.2l0.2,0.6
		c0,0.1,0.1,0.3,0.1,0.4c0,0.1,0,0.2,0,0.3c0,0.1,0,0.3,0,0.4c0,1-0.1,1.9-0.5,2.9c0,0.1-0.1,0.3-0.2,0.5c0,0.1-0.1,0.1-0.1,0.2
		c0,0.1-0.1,0.1-0.1,0.2l-0.3,0.4l-0.3,0.4c0,0.1-0.1,0.1-0.2,0.2l-0.2,0.2c-0.1,0.1-0.3,0.3-0.4,0.4l-0.6,0.5
		c-0.1,0.1-0.3,0.2-0.4,0.3c-0.1,0-0.2,0.1-0.2,0.1c-0.1,0-0.1,0.1-0.2,0.1c-0.1,0-0.1,0-0.1,0.1l-0.2,0.1c-0.1,0-0.1,0.1-0.2,0.1
		l-0.6,0.2l-0.2,0c-1.1,0.3-2.2,0.3-3.3,0.2c-1.1-0.2-2.2-0.6-3.2-1.2c-1-0.6-1.9-1.5-2.5-2.5l0,0c0-0.1-0.1-0.1-0.1-0.2
		c0-0.1-0.1-0.1-0.1-0.1l-0.2-0.4c-0.1-0.2-0.2-0.4-0.3-0.6l-0.1-0.2l-0.1-0.5l-0.2-0.9l-0.1-0.5c-0.2-1.3-0.2-2.5,0-3.8
		c0.5-2.5,2-4.9,4-6.4c1.1-0.8,2.3-1.4,3.5-1.7c0.7-0.2,1.3-0.3,2-0.4c0.7-0.1,1.4-0.1,2.1-0.1c2.8,0.1,5.5,1.1,7.7,2.9
		c0.5,0.4,1,0.9,1.5,1.4c0.2,0.2,0.4,0.4,0.6,0.7l0.1,0.2c0.2,0.3,0.4,0.5,0.5,0.8c0.4,0.6,0.7,1.2,1,1.9c0,0.1,0.1,0.2,0.1,0.3
		c0,0.1,0.1,0.1,0.1,0.2l0.1,0.2l0.4,1.3l0.2,0.6c0,0.1,0.1,0.3,0.1,0.4l0,0.1c0.1,0.3,0.1,0.6,0.2,0.9c0.1,0.7,0.1,1.5,0.2,2.1
		c0,0.1,0,0.3,0,0.4c0,0.2,0,0.5,0,0.7l0,0.5l-0.1,0.6l-0.2,1l-0.1,0.5l-0.1,0.5c-0.7,2.7-2.1,5.3-4.1,7.4c-1,1.1-2.1,2-3.3,2.7
		c-1.2,0.8-2.5,1.3-3.8,1.7c-2.7,0.8-5.6,1.1-8.3,0.8c-2.7-0.3-5.4-1.1-7.8-2.4c-2.3-1.3-4.4-3-6.1-5c-0.8-1-1.5-2-2.2-3.1l-0.4-0.8
		l-0.4-0.9c-0.1-0.2-0.2-0.4-0.2-0.5c0-0.1-0.1-0.2-0.1-0.3l-0.3-0.8c0-0.1,0-0.1-0.1-0.2c0-0.1-0.1-0.1-0.1-0.2l-0.3-1l-0.2-1
		l-0.3-1.6l-0.2-1.3l-0.1-1.3l0-1.1l0-1l0.1-1.8c0.1-1.1,0.3-2.2,0.5-3.3c0.1-0.4,0.2-0.8,0.3-1.2l0.1-0.4c0-0.2,0.1-0.3,0.1-0.5
		c0-0.1,0.1-0.2,0.1-0.2l0.1-0.3c0-0.2,0.1-0.3,0.1-0.5c0.3-0.8,0.7-1.8,1.2-2.8c0.8-1.7,1.8-3.3,2.9-4.7c1-1.3,2.1-2.5,3.3-3.6
		c1-0.9,2.1-1.7,3.3-2.5c0.2-0.1,0.4-0.2,0.5-0.3c0.4-0.2,0.7-0.4,1-0.6l0.5-0.3l0.9-0.4c0.1,0,0.1-0.1,0.2-0.1
		c0.6-0.2,1.2-0.4,1.7-0.6c7.1-2.4,13.7-6,19.6-10.4c-0.2,0.6-0.3,1.3-0.4,1.9c0,0.1,0,0.1,0,0.2c-0.3,2-0.5,4.2-0.4,6.2
		c0,1,0.1,2,0.4,3.4c0,0.2,0.1,0.4,0.1,0.6l0.1,0.5c0,0.2,0.1,0.4,0.1,0.6l0.1,0.3c0.1,0.5,0.2,0.9,0.4,1.4c0.3,1.3,0.8,2.5,1.3,3.5
		l0.6,1.3l0.5,0.9l0.9,1.6l0.8,1.2l0.9,1.2l0.5,0.6c0.1,0.2,0.3,0.3,0.4,0.5l0.7,0.7l1,1.1c0.1,0.1,0.2,0.2,0.3,0.3l0.1,0.1
		c0.6,0.5,1.1,1,1.7,1.4l0.9,0.6l0.9,0.6c1.2,0.8,2.5,1.4,3.9,2c2.8,1.1,5.8,1.7,8.8,1.7c3.1,0,6.2-0.6,9-1.8c2.9-1.2,5.6-3,7.8-5.2
		c1.1-1.1,2.1-2.4,2.9-3.9c0.8-1.4,1.4-2.9,1.9-4.5c0.9-3.2,0.9-6.5,0.1-9.6l-0.3-1.2l-0.2-0.6l-0.5-1.2l-0.2-0.5
		c-0.1-0.3-0.2-0.5-0.4-0.8c-0.1-0.1-0.1-0.2-0.2-0.4c-0.3-0.6-0.8-1.3-1.3-2c-0.2-0.3-0.5-0.6-0.7-0.9l-0.1-0.1
		c-0.1-0.1-0.2-0.3-0.3-0.4l-0.5-0.5L250,283l-1.1-1c-0.1-0.1-0.2-0.2-0.3-0.3c-0.6-0.5-1.3-0.9-2.1-1.3c-0.3-0.2-0.7-0.4-1-0.5
		l-0.2-0.1c-0.3-0.1-0.7-0.3-1.1-0.4c-0.8-0.3-1.6-0.5-2.3-0.6c-6.4-1.2-13.3,2.2-15.9,7.7c-1.3,2.8-1.5,6-0.6,8.9
		c0.4,1.4,1.1,2.7,2,3.9l0.3,0.4l0.3,0.4l0,0c0,0,0.1,0.1,0.1,0.1l0.6,0.6l0.1,0.1c0.3,0.2,0.5,0.4,0.8,0.6l0.5,0.3
		c0,0,0.1,0.1,0.1,0.1c0.1,0.1,0.2,0.1,0.4,0.2c1.2,0.7,2.6,1.1,4,1.1c1.4,0.1,2.7-0.1,4-0.5c1.2-0.4,2.4-1.1,3.3-2l0.1-0.1
		c0,0,0,0,0.1-0.1l0.5-0.5c0.1-0.1,0.1-0.2,0.2-0.3l0.2-0.2c0.1-0.1,0.2-0.2,0.2-0.3c0-0.1,0.1-0.1,0.1-0.2c0.1-0.2,0.3-0.4,0.4-0.6
		l0.2-0.4l0.2-0.4c0.1-0.2,0.2-0.5,0.2-0.7l0-0.2c0-0.1,0.1-0.3,0.1-0.4l0.1-1.1c0-0.1,0-0.3,0-0.4l0-0.2c0-0.2,0-0.5,0-0.7
		c-0.1-1.2-0.5-2.3-1.1-3.3c-0.1-0.2-0.2-0.3-0.3-0.5c0-0.1-0.1-0.1-0.1-0.2l0,0c-0.1-0.1-0.2-0.3-0.3-0.4l-0.2-0.2
		c0,0-0.1-0.1-0.1-0.1l-0.3-0.3c-0.1-0.1-0.2-0.2-0.3-0.3l-0.3-0.2c-0.1-0.1-0.2-0.1-0.3-0.2l-0.1-0.1c-0.5-0.3-1.1-0.6-1.5-0.7
		l-0.4-0.1c-0.1,0-0.1,0-0.2,0l-0.5-0.1l-0.4,0c-0.2,0-0.4,0-0.6,0l-0.2,0c-0.2,0-0.4,0-0.6,0.1l-0.2,0c-0.6,0.1-1,0.2-1.4,0.4
		c-0.8,0.4-1.6,0.9-2.3,1.6c-0.5,0.6-0.9,1.2-1.1,2h0c0,0.1-0.1,0.2-0.1,0.3c0,0.4,0.3,0.7,0.7,0.7c0.3,0,0.6-0.2,0.7-0.6l0,0
		c0.2-0.6,0.5-1.1,0.8-1.5c0.5-0.5,1.1-0.9,1.8-1.2c0.3-0.1,0.6-0.2,1.1-0.3l0.1,0c0.1,0,0.3,0,0.4,0h0.2c0.1,0,0.3,0,0.4,0l0.3,0
		l0.4,0.1c0,0,0,0,0.1,0l0.4,0.1c0.5,0.2,0.8,0.3,1.1,0.5c0,0,0.1,0.1,0.1,0.1c0,0,0.1,0.1,0.1,0.1l0.3,0.2c0.1,0,0.1,0.1,0.2,0.1
		l0.4,0.5c0.1,0.1,0.2,0.2,0.3,0.3c0,0.1,0.1,0.1,0.1,0.2c0.1,0.1,0.2,0.2,0.2,0.4c0.5,0.8,0.7,1.7,0.8,2.6c0,0.1,0,0.3,0,0.5
		c0,0.1,0,0.2,0,0.2c0,0.1,0,0.1,0,0.2l0,0.5L243,296c0,0.1,0,0.1-0.1,0.2l-0.1,0.2c0,0.2-0.1,0.3-0.2,0.5l-0.3,0.7
		c-0.1,0.1-0.2,0.3-0.2,0.4c0,0.1-0.1,0.1-0.1,0.2c0,0-0.1,0.1-0.1,0.1c0,0-0.1,0.1-0.1,0.1l-0.1,0.1c0,0.1-0.1,0.1-0.1,0.2
		l-0.4,0.4l-0.1,0.1c-0.8,0.7-1.7,1.2-2.7,1.6c-1,0.3-2.1,0.5-3.2,0.4c-1.1-0.1-2.2-0.4-3.2-1l0,0c-0.1,0-0.1-0.1-0.2-0.1
		c0,0-0.1-0.1-0.1-0.1l-0.4-0.2c-0.2-0.1-0.3-0.3-0.5-0.4l-0.2-0.1l-0.3-0.3l-0.6-0.6l-0.3-0.4c-0.7-1-1.3-2-1.6-3.2
		c-0.7-2.4-0.5-5,0.6-7.2c0.5-1.1,1.3-2.1,2.2-3c0.5-0.4,1-0.8,1.5-1.2c0.5-0.4,1.1-0.7,1.7-1c2.4-1.1,5.1-1.4,7.7-0.9
		c0.6,0.1,1.3,0.3,1.9,0.5c0.3,0.1,0.5,0.2,0.8,0.3l0.2,0.1c0.3,0.1,0.5,0.3,0.8,0.4c0.6,0.4,1.2,0.7,1.7,1.1
		c0.1,0.1,0.2,0.1,0.2,0.2c0.1,0,0.1,0.1,0.1,0.1l0.2,0.1l0.9,0.9l0.4,0.5c0.1,0.1,0.2,0.2,0.3,0.3l0.1,0.1c0.2,0.2,0.4,0.5,0.5,0.7
		c0.4,0.6,0.8,1.2,1.1,1.7c0.1,0.1,0.1,0.2,0.2,0.3c0.1,0.2,0.2,0.4,0.3,0.6l0.2,0.5l0.2,0.5l0.3,0.9l0.1,0.5l0.1,0.5
		c0.6,2.6,0.5,5.4-0.2,8c-0.4,1.3-0.9,2.6-1.6,3.7c-0.7,1.2-1.5,2.2-2.5,3.1c-1.9,1.9-4.2,3.4-6.7,4.3c-2.4,0.9-5,1.4-7.6,1.3
		c-2.5-0.1-5-0.6-7.3-1.6c-1.1-0.5-2.2-1-3.2-1.7l-0.7-0.5l-0.7-0.6c-0.1-0.1-0.3-0.2-0.4-0.3c-0.1-0.1-0.2-0.1-0.3-0.2l-0.6-0.6
		c0,0-0.1-0.1-0.1-0.1c-0.1-0.1-0.1-0.1-0.2-0.2l-0.7-0.7l-0.6-0.7l-1-1.2l-0.7-1l-0.7-1.1l-0.5-0.9l-0.4-0.8l-0.7-1.5
		c-0.4-0.9-0.7-2-1-3c-0.1-0.4-0.2-0.7-0.3-1.1l-0.1-0.4c0-0.2-0.1-0.3-0.1-0.5c0-0.1,0-0.2,0-0.2l0-0.3c0-0.2-0.1-0.3-0.1-0.4
		c-0.1-0.9-0.2-1.9-0.2-2.9c-0.1-1.8,0.1-3.5,0.4-5.3c0.3-1.5,0.7-3,1.3-4.5c0.5-1.2,1-2.4,1.7-3.5c0.1-0.2,0.2-0.3,0.3-0.5
		c0.2-0.3,0.4-0.6,0.6-0.9l0.3-0.4l0.6-0.8c0.1-0.1,0.1-0.2,0.2-0.3c0.9-0.9,1.7-1.8,2.5-2.7l0.2-0.2c0.1-0.1,0.3-0.3,0.4-0.5
		c4.1-4.8,7.6-10,10.3-15.5c0.1,0.5,0.3,1,0.4,1.5c0,0.1,0,0.1,0.1,0.2c0.6,1.9,1.4,3.7,2.4,5.5c0.5,0.8,1,1.6,1.8,2.7
		c0.1,0.1,0.2,0.3,0.3,0.4l0.3,0.4c0.1,0.2,0.3,0.3,0.4,0.5l0.2,0.3c0.3,0.3,0.6,0.7,0.9,1c0.8,0.9,1.8,1.7,2.6,2.4l1.1,0.8l0.8,0.6
		l1.5,0.9l1.2,0.7l1.3,0.6l0.7,0.3c0.2,0.1,0.4,0.2,0.6,0.3l0.9,0.3l1.4,0.5c0.1,0,0.2,0.1,0.3,0.1l0.2,0c0.7,0.2,1.4,0.3,2,0.5
		l1,0.2l1,0.1c1.4,0.1,2.8,0.1,4.2,0c2.8-0.3,5.6-1.1,8.2-2.4c2.6-1.3,5-3.2,6.9-5.4c1.9-2.3,3.4-5,4.3-7.8c0.4-1.4,0.7-3,0.8-4.6
		c0.1-1.5-0.1-3-0.4-4.6c-0.7-3.1-2.1-5.9-4.2-8.2l-0.8-0.9l-0.4-0.4l-0.9-0.8l-0.4-0.3c-0.2-0.2-0.4-0.3-0.7-0.5
		c-0.1-0.1-0.2-0.1-0.3-0.2c-0.5-0.3-1.2-0.8-2-1.1c-0.3-0.2-0.6-0.3-1-0.4l-0.1,0c-0.2-0.1-0.3-0.1-0.5-0.2l-0.7-0.2l-0.5-0.2
		l-1.3-0.3c-0.1,0-0.3-0.1-0.4-0.1c-0.7-0.1-1.5-0.2-2.3-0.2c-0.4,0-0.7,0-1.1,0l-0.2,0c-0.4,0-0.7,0.1-1.1,0.1
		c-0.8,0.1-1.5,0.3-2.2,0.5c-6,1.8-10.3,7.6-10,13.5c0.1,2.9,1.4,5.7,3.4,7.8c1,1,2.1,1.8,3.4,2.4l0.5,0.2l0.5,0.2l0,0
		c0,0,0.1,0,0.1,0l0.8,0.2l0.1,0c0.3,0.1,0.6,0.1,0.9,0.2l0.5,0c0,0,0.1,0,0.1,0c0.1,0,0.2,0,0.4,0c1.3,0,2.7-0.3,3.9-0.8
		c1.2-0.5,2.3-1.3,3.2-2.2c0.9-0.9,1.5-2,1.9-3.2l0-0.1c0,0,0,0,0-0.1l0.2-0.7c0-0.1,0-0.2,0.1-0.3l0.1-0.3c0-0.1,0-0.2,0.1-0.4
		c0-0.1,0-0.1,0-0.2c0-0.2,0-0.5,0-0.7l0-0.4l0-0.5c0-0.3-0.1-0.5-0.1-0.7l0-0.2c0-0.1-0.1-0.3-0.1-0.4l-0.4-1
		c0-0.1-0.1-0.2-0.2-0.3l-0.1-0.2c-0.1-0.2-0.2-0.4-0.3-0.5c-0.6-0.9-1.4-1.7-2.4-2.3c-0.2-0.1-0.3-0.2-0.5-0.3
		c-0.1,0-0.1-0.1-0.2-0.1l0,0c-0.2-0.1-0.3-0.1-0.5-0.2l-0.2-0.1c0,0-0.1,0-0.1,0l-0.3-0.1c-0.1,0-0.2-0.1-0.4-0.1l-0.4-0.1
		c-0.1,0-0.2,0-0.3,0l-0.1,0c-0.6-0.1-1.2,0-1.6,0.1l-0.4,0.1c0,0-0.1,0-0.2,0l-0.5,0.2l-0.3,0.1c-0.2,0.1-0.4,0.2-0.5,0.3l-0.2,0.1
		c-0.2,0.1-0.3,0.2-0.5,0.3l-0.2,0.1c-0.4,0.3-0.8,0.7-1,1c-0.6,0.7-1,1.5-1.2,2.3c-0.2,0.7-0.2,1.4-0.1,2.2c0,0.3,0.3,0.6,0.7,0.6
		c0.4,0,0.7-0.3,0.7-0.7c0,0,0-0.1,0-0.1c-0.1-0.6-0.1-1.1,0.1-1.6c0.2-0.7,0.5-1.3,1-1.8c0.2-0.2,0.4-0.4,0.8-0.7l0.1-0.1
		c0.1-0.1,0.2-0.1,0.3-0.2l0.2-0.1c0.1-0.1,0.2-0.1,0.4-0.2l0.3-0.1l0.4-0.1c0,0,0,0,0.1,0l0.4-0.1c0.5-0.1,0.8-0.1,1.1,0
		c0,0,0.1,0,0.1,0c0,0,0.1,0,0.1,0l0.4,0.1c0.1,0,0.1,0,0.2,0.1l0.6,0.2c0.1,0,0.2,0.1,0.4,0.2c0.1,0,0.1,0.1,0.2,0.1
		c0.1,0.1,0.2,0.1,0.4,0.2c0.7,0.5,1.4,1.1,1.9,1.9c0.1,0.1,0.1,0.2,0.2,0.4c0,0.1,0.1,0.1,0.1,0.2c0,0.1,0.1,0.1,0.1,0.2l0.2,0.4
		l0.1,0.4c0,0.1,0,0.1,0.1,0.2l0,0.2c0,0.2,0.1,0.3,0.1,0.5l0,0.7c0,0.1,0,0.3,0,0.5c0,0.1,0,0.2,0,0.3c0,0.1,0,0.1,0,0.2
		c0,0.1,0,0.1,0,0.1l0,0.1c0,0.1,0,0.1,0,0.2l-0.2,0.6l-0.1,0.1c-0.4,0.9-0.9,1.8-1.6,2.5c-0.7,0.7-1.6,1.3-2.6,1.7
		c-1,0.4-2.1,0.6-3.1,0.6h0c-0.1,0-0.1,0-0.2,0c-0.1,0-0.1,0-0.1,0l-0.4,0c-0.2,0-0.4-0.1-0.6-0.1l-0.2,0l-0.4-0.1l-0.8-0.3
		l-0.4-0.2c-1-0.5-2-1.2-2.8-2c-1.6-1.7-2.6-4-2.6-6.3c0-1.2,0.2-2.4,0.6-3.5c0.2-0.6,0.5-1.2,0.8-1.7c0.3-0.5,0.6-1.1,1-1.6
		c1.5-2,3.7-3.5,6.1-4.2c0.6-0.2,1.2-0.3,1.9-0.4c0.3,0,0.5-0.1,0.8-0.1l0.2,0c0.3,0,0.6,0,0.8,0c0.7,0,1.3,0.1,1.9,0.2
		c0.1,0,0.2,0,0.3,0.1c0.1,0,0.1,0,0.2,0l0.2,0.1l1.2,0.4l0.5,0.2c0.1,0,0.2,0.1,0.4,0.1l0.1,0.1c0.3,0.1,0.5,0.2,0.8,0.4
		c0.6,0.3,1.2,0.7,1.6,1c0.1,0.1,0.2,0.1,0.3,0.2c0.2,0.1,0.3,0.2,0.5,0.4l0.4,0.3l0.4,0.3l0.7,0.7l0.3,0.4l0.3,0.4
		c1.7,1.9,2.8,4.3,3.3,6.9c0.2,1.3,0.3,2.6,0.2,3.8c-0.1,1.3-0.3,2.6-0.7,3.7c-0.8,2.4-2.1,4.7-3.8,6.6c-1.6,1.8-3.7,3.4-5.9,4.5
		c-2.1,1-4.5,1.7-6.9,1.9c-1.1,0.1-2.3,0.1-3.4,0l-0.8-0.1l-0.8-0.2c-0.2,0-0.3-0.1-0.5-0.1c-0.1,0-0.2-0.1-0.3-0.1l-0.8-0.2
		c-0.1,0-0.1,0-0.2,0c-0.1,0-0.1,0-0.2-0.1l-0.9-0.3l-0.9-0.3l-1.4-0.6l-1.1-0.6l-1-0.6l-0.8-0.5l-0.7-0.5l-1.3-1
		c-0.7-0.6-1.5-1.3-2.2-2.1c-0.3-0.3-0.5-0.5-0.7-0.8l-0.2-0.3c-0.1-0.1-0.2-0.2-0.3-0.4c0-0.1-0.1-0.1-0.1-0.2l-0.2-0.2
		c-0.1-0.1-0.2-0.2-0.3-0.3c-0.5-0.7-1-1.5-1.5-2.3c-0.8-1.5-1.5-3-2-4.6c-0.4-1.4-0.7-2.9-0.9-4.3c-0.1-1.2-0.2-2.4-0.1-3.7
		c0-0.2,0-0.4,0-0.6c0-0.4,0.1-0.7,0.1-1.1l0.1-0.5l0,0c2.1-6.8,3.1-13.9,2.8-21.1c0.2,0.3,0.4,0.5,0.7,0.8c0,0,0.1,0.1,0.1,0.1
		c1.3,1.3,2.8,2.5,4.4,3.5c0.7,0.5,1.6,0.9,2.7,1.5c0.2,0.1,0.3,0.2,0.5,0.2l0.5,0.2c0.2,0.1,0.4,0.2,0.5,0.2l0.3,0.1
		c0.4,0.2,0.8,0.3,1.2,0.4c1.1,0.4,2.3,0.7,3.2,0.9l1.3,0.2l1,0.1l1.7,0.2l1.3,0l1.4,0l0.7,0c0.2,0,0.4,0,0.6,0l0.9-0.1l1.4-0.2
		c0.1,0,0.2,0,0.3-0.1l0.1,0c0.7-0.1,1.3-0.3,1.9-0.5l0.9-0.3l0.9-0.3c1.2-0.5,2.4-1.1,3.5-1.8c2.3-1.5,4.3-3.4,5.8-5.6
		c1.6-2.3,2.8-4.9,3.4-7.6c0.6-2.7,0.7-5.7,0.2-8.5c-0.2-1.4-0.7-2.8-1.3-4.2c-0.6-1.3-1.4-2.5-2.3-3.7c-1.9-2.3-4.4-4.1-7.1-5.1
		l-1.1-0.4l-0.5-0.1l-1.1-0.3l-0.5-0.1c-0.3-0.1-0.5-0.1-0.8-0.1c-0.1,0-0.2,0-0.4,0c-0.6-0.1-1.4-0.1-2.2-0.1c-0.3,0-0.7,0-1,0
		l-0.1,0c-0.2,0-0.3,0-0.5,0l-0.7,0.1l-0.5,0.1l-1.3,0.3c-0.1,0-0.2,0.1-0.4,0.1c-0.7,0.2-1.3,0.5-2.1,0.8c-0.3,0.2-0.6,0.3-0.9,0.5
		l-0.1,0.1c-0.3,0.2-0.6,0.4-0.9,0.6c-0.6,0.4-1.2,0.9-1.7,1.4c-4.2,4.2-5.3,10.9-2.6,15.8c1.4,2.4,3.7,4.2,6.3,5.1
		c1.3,0.4,2.6,0.6,3.9,0.5l0.5,0l0.5-0.1l0,0c0,0,0.1,0,0.1,0l0.8-0.1l0.1,0c0.3-0.1,0.6-0.2,0.8-0.3l0.5-0.2c0,0,0.1,0,0.1,0
		c0.1,0,0.2-0.1,0.3-0.2c1.1-0.6,2.1-1.4,3-2.4c0.8-1,1.4-2.1,1.7-3.3c0.3-1.1,0.4-2.4,0.3-3.5l0-0.1c0,0,0,0,0-0.1l-0.1-0.7
		c0-0.1-0.1-0.2-0.1-0.3l-0.1-0.3c0-0.1-0.1-0.2-0.1-0.3c0-0.1-0.1-0.1-0.1-0.2c-0.1-0.2-0.2-0.4-0.3-0.6l-0.2-0.4l-0.2-0.4
		c-0.1-0.2-0.3-0.4-0.4-0.5l-0.1-0.1c-0.1-0.1-0.2-0.2-0.2-0.3l-0.8-0.7c-0.1-0.1-0.2-0.2-0.3-0.2l-0.2-0.1
		c-0.2-0.1-0.3-0.2-0.5-0.3c-0.9-0.5-2-0.8-3-0.9c-0.2,0-0.3,0-0.5,0c-0.1,0-0.2,0-0.2,0l0,0c-0.2,0-0.3,0-0.5,0l-0.2,0
		c0,0-0.1,0-0.1,0l-0.3,0.1c-0.1,0-0.2,0-0.3,0.1l-0.3,0.1c-0.1,0-0.2,0.1-0.3,0.1l-0.1,0c-0.5,0.2-1,0.5-1.3,0.8l-0.3,0.2
		c0,0-0.1,0.1-0.1,0.1l-0.3,0.3l-0.2,0.3c-0.1,0.1-0.2,0.3-0.3,0.4l-0.1,0.1c-0.1,0.1-0.2,0.3-0.3,0.5l-0.1,0.2
		c-0.2,0.5-0.4,0.9-0.4,1.2c-0.2,0.8-0.2,1.7,0,2.5c0.2,0.7,0.5,1.3,0.9,1.9c0.1,0.2,0.3,0.3,0.6,0.3c0.4,0,0.7-0.3,0.7-0.6
		c0-0.2-0.1-0.3-0.2-0.4c-0.3-0.4-0.5-0.9-0.6-1.4c-0.1-0.6-0.1-1.3,0-1.9c0.1-0.3,0.2-0.6,0.3-0.9l0.1-0.1c0.1-0.1,0.1-0.2,0.2-0.3
		l0.1-0.1c0.1-0.1,0.1-0.2,0.2-0.3l0.2-0.2l0.3-0.3c0,0,0,0,0,0l0.3-0.2c0.4-0.3,0.7-0.4,1-0.5c0,0,0.1,0,0.1,0c0,0,0.1,0,0.1,0
		l0.3-0.1c0.1,0,0.1,0,0.2,0l0.6-0.1c0.1,0,0.2,0,0.4,0c0.1,0,0.2,0,0.2,0c0.1,0,0.3,0,0.4,0c0.8,0.1,1.6,0.3,2.4,0.8
		c0.1,0.1,0.2,0.1,0.4,0.2c0.1,0,0.1,0.1,0.2,0.1c0.1,0,0.1,0.1,0.1,0.1l0.3,0.3l0.3,0.3c0,0,0.1,0.1,0.1,0.1l0.1,0.2
		c0.1,0.1,0.2,0.3,0.3,0.4l0.4,0.6c0.1,0.1,0.1,0.3,0.2,0.4c0,0.1,0.1,0.1,0.1,0.2c0,0,0,0.1,0,0.1c0,0,0,0.1,0,0.1l0,0.1
		c0,0.1,0,0.1,0.1,0.2l0.1,0.6l0,0.1c0.1,1,0,1.9-0.3,2.8c-0.3,0.9-0.8,1.8-1.4,2.6c-0.7,0.8-1.5,1.4-2.4,1.8l0,0
		c-0.1,0-0.1,0.1-0.2,0.1c0,0-0.1,0-0.1,0.1l-0.4,0.1c-0.2,0.1-0.4,0.1-0.5,0.2l-0.2,0.1l-0.4,0.1l-0.8,0.1l-0.4,0
		c-1.1,0-2.2-0.1-3.2-0.5c-2.1-0.7-3.9-2.2-5-4.2c-0.5-1-0.9-2.1-1-3.2c-0.1-0.6-0.1-1.2-0.1-1.8c0-0.6,0.1-1.2,0.2-1.8
		c0.4-2.3,1.6-4.5,3.4-6.2c0.4-0.4,0.9-0.8,1.4-1.1c0.2-0.1,0.4-0.3,0.7-0.4l0.2-0.1c0.2-0.1,0.5-0.3,0.7-0.4
		c0.6-0.3,1.1-0.5,1.7-0.6c0.1,0,0.2,0,0.3-0.1c0.1,0,0.1,0,0.2,0l0.2-0.1l1.1-0.2l0.5-0.1c0.1,0,0.2,0,0.4,0l0.1,0
		c0.3,0,0.5,0,0.8,0c0.6,0,1.3,0.1,1.8,0.1c0.1,0,0.2,0,0.3,0.1c0.2,0,0.4,0.1,0.6,0.1l0.4,0.1l0.5,0.1l0.9,0.3l0.5,0.2l0.4,0.2
		c2.3,0.9,4.3,2.4,5.8,4.4c0.8,1,1.4,2.1,1.9,3.1c0.5,1.2,0.8,2.3,1,3.4c0.4,2.4,0.3,4.9-0.3,7.2c-0.6,2.3-1.6,4.5-3,6.3
		c-1.3,1.8-3.1,3.4-5,4.6c-0.9,0.6-1.9,1.1-2.9,1.5l-0.8,0.3l-0.8,0.2c-0.2,0-0.3,0.1-0.5,0.1c-0.1,0-0.2,0-0.3,0.1l-0.7,0.2
		c-0.1,0-0.1,0-0.2,0c-0.1,0-0.1,0-0.2,0l-0.9,0.1l-0.9,0.1l-1.4,0.1l-1.2,0l-1.1-0.1l-0.9-0.1l-0.9-0.1l-1.5-0.3
		c-0.9-0.2-1.8-0.5-2.8-0.8c-0.3-0.1-0.7-0.2-1-0.4l-0.3-0.1c-0.1-0.1-0.3-0.1-0.4-0.2c-0.1,0-0.1-0.1-0.2-0.1l-0.2-0.1
		c-0.1-0.1-0.3-0.1-0.4-0.2c-0.7-0.4-1.5-0.8-2.3-1.3c-1.3-0.9-2.6-1.9-3.7-3.1c-1-1-1.9-2.1-2.6-3.3c-0.6-1-1.2-2-1.7-3.1
		c-0.1-0.2-0.1-0.3-0.2-0.5c-0.1-0.3-0.3-0.6-0.4-0.9l-0.2-0.5l-0.3-0.8c-0.1-0.2-0.1-0.5-0.2-0.7c-0.1-0.3-0.2-0.7-0.2-1
		c0,0-0.3-0.9-1.1-3.5c-1.3-3.9-3-7.6-5.1-11c0.1,0,0.2,0.1,0.3,0.1c0.1,0,0.1,0,0.2,0c1.7,0.5,3.5,0.9,5.3,1
		c0.8,0.1,1.7,0.1,2.9,0.1c0.2,0,0.3,0,0.5,0l0.5,0c0.2,0,0.4,0,0.5,0l0.3,0c0.4,0,0.8-0.1,1.2-0.1c1.1-0.1,2.2-0.4,3.1-0.7l1.2-0.4
		l0.9-0.3l1.5-0.6l1.1-0.5l1.1-0.6l0.6-0.4c0.2-0.1,0.3-0.2,0.5-0.3l0.7-0.5l1-0.8c0.1-0.1,0.2-0.1,0.3-0.2l0.1-0.1
		c0.5-0.4,1-0.8,1.4-1.2l0.6-0.7l0.6-0.7c0.8-1,1.5-2,2.1-3.1c1.3-2.2,2.1-4.7,2.5-7.3c0.4-2.6,0.2-5.3-0.4-7.9
		c-0.7-2.6-1.9-5.1-3.5-7.3c-0.8-1.1-1.8-2.1-2.9-3c-1.1-0.8-2.3-1.5-3.6-2.1c-2.6-1.1-5.5-1.5-8.2-1.2l-1.1,0.1l-0.5,0.1l-1,0.2
		l-0.5,0.1c-0.2,0.1-0.5,0.2-0.7,0.2c-0.1,0-0.2,0.1-0.3,0.1c-0.5,0.2-1.2,0.5-1.9,0.9c-0.3,0.1-0.6,0.3-0.8,0.5l-0.1,0
		c-0.1,0.1-0.3,0.2-0.4,0.2l-0.5,0.4l-0.4,0.3l-0.9,0.8c-0.1,0.1-0.2,0.2-0.3,0.2c-0.5,0.5-0.9,1-1.4,1.6c-0.2,0.3-0.4,0.5-0.6,0.8
		l-0.1,0.1c-0.2,0.3-0.3,0.6-0.5,0.9c-0.3,0.6-0.6,1.3-0.8,1.9c-1.8,5.4,0.3,11.6,4.7,14.5c2.2,1.4,4.9,2,7.5,1.5
		c1.2-0.2,2.4-0.6,3.5-1.3l0.4-0.2l0.4-0.2l0,0c0,0,0.1-0.1,0.1-0.1l0.6-0.5l0.1-0.1c0.2-0.2,0.4-0.4,0.6-0.6l0.3-0.4
		c0,0,0.1-0.1,0.1-0.1c0.1-0.1,0.1-0.2,0.2-0.3c0.7-1,1.2-2.1,1.5-3.3c0.2-1.1,0.2-2.4,0-3.5c-0.2-1.1-0.7-2.2-1.3-3.1l-0.1-0.1
		c0,0,0,0-0.1-0.1l-0.4-0.5c-0.1-0.1-0.1-0.1-0.2-0.2l-0.2-0.2c-0.1-0.1-0.2-0.2-0.2-0.2c-0.1,0-0.1-0.1-0.2-0.1
		c-0.2-0.1-0.3-0.3-0.5-0.4l-0.3-0.2l-0.4-0.2c-0.2-0.1-0.4-0.2-0.6-0.3l-0.1-0.1c-0.1-0.1-0.2-0.1-0.3-0.1l-0.9-0.2
		c-0.1,0-0.2,0-0.3-0.1l-0.2,0c-0.2,0-0.4,0-0.6,0c-1,0-2,0.2-2.9,0.6c-0.1,0.1-0.3,0.1-0.4,0.2c-0.1,0-0.1,0.1-0.2,0.1l0,0
		c-0.1,0.1-0.3,0.2-0.4,0.2l-0.2,0.1c0,0-0.1,0.1-0.1,0.1l-0.3,0.2c-0.1,0.1-0.2,0.1-0.3,0.2l-0.2,0.2c-0.1,0.1-0.1,0.1-0.2,0.2
		l-0.1,0.1c-0.4,0.4-0.6,0.9-0.8,1.2l-0.1,0.3c0,0,0,0.1-0.1,0.1l-0.1,0.4l-0.1,0.3c0,0.2-0.1,0.4-0.1,0.5l0,0.2c0,0.2,0,0.3,0,0.5
		l0,0.2c0,0.5,0.1,0.9,0.2,1.2c0.2,0.8,0.6,1.5,1.1,2.1c0.4,0.5,1,0.9,1.6,1.2c0.1,0.1,0.2,0.1,0.3,0.1c0.3,0,0.6-0.3,0.6-0.6
		c0-0.3-0.2-0.5-0.4-0.6v0c-0.5-0.2-0.9-0.5-1.2-0.9c-0.4-0.5-0.7-1-0.8-1.6c-0.1-0.3-0.1-0.5-0.1-0.9l0-0.1c0-0.1,0-0.2,0-0.3
		l0-0.2c0-0.1,0-0.2,0.1-0.3l0.1-0.3l0.1-0.4c0,0,0,0,0,0l0.1-0.3c0.2-0.4,0.4-0.6,0.6-0.9c0,0,0.1-0.1,0.1-0.1c0,0,0.1-0.1,0.1-0.1
		l0.2-0.2c0,0,0.1-0.1,0.1-0.1l0.4-0.3c0.1-0.1,0.2-0.1,0.3-0.2c0.1,0,0.1-0.1,0.2-0.1c0.1-0.1,0.2-0.1,0.3-0.2
		c0.7-0.3,1.5-0.4,2.4-0.4c0.1,0,0.3,0,0.4,0c0.1,0,0.1,0,0.2,0c0.1,0,0.1,0,0.2,0l0.4,0.1l0.4,0.1c0.1,0,0.1,0,0.2,0.1l0.2,0.1
		c0.1,0.1,0.3,0.1,0.4,0.2l0.6,0.4c0.1,0.1,0.2,0.2,0.3,0.3c0.1,0,0.1,0.1,0.2,0.2c0,0,0.1,0.1,0.1,0.1c0,0,0.1,0.1,0.1,0.1l0.1,0.1
		c0,0,0.1,0.1,0.1,0.1l0.3,0.4l0.1,0.1c0.5,0.8,0.9,1.6,1,2.5c0.2,0.9,0.1,1.9-0.1,2.8c-0.2,0.9-0.6,1.8-1.2,2.6l0,0
		c0,0-0.1,0.1-0.1,0.1c0,0-0.1,0.1-0.1,0.1l-0.2,0.3c-0.1,0.1-0.3,0.2-0.4,0.4l-0.1,0.1l-0.3,0.2l-0.6,0.4l-0.3,0.2
		c-0.9,0.5-1.9,0.8-2.9,1c-2.1,0.3-4.3-0.2-6.1-1.4c-0.9-0.6-1.7-1.4-2.3-2.3c-0.3-0.5-0.6-1-0.8-1.4c-0.2-0.5-0.4-1-0.6-1.6
		c-0.7-2.2-0.6-4.5,0.1-6.7c0.2-0.5,0.4-1,0.7-1.6c0.1-0.2,0.2-0.4,0.4-0.6l0.1-0.2c0.1-0.2,0.3-0.4,0.4-0.6
		c0.4-0.5,0.8-0.9,1.2-1.3c0.1-0.1,0.1-0.1,0.2-0.2c0,0,0.1-0.1,0.1-0.1l0.1-0.1l0.9-0.7l0.4-0.3c0.1-0.1,0.2-0.1,0.3-0.2l0.1-0.1
		c0.2-0.1,0.4-0.3,0.7-0.4c0.5-0.3,1.1-0.5,1.6-0.7c0.1,0,0.2-0.1,0.3-0.1c0.2-0.1,0.4-0.1,0.5-0.2l0.4-0.1l0.4-0.1l0.8-0.2l0.5-0.1
		l0.4,0c2.3-0.2,4.7,0.2,6.8,1.1c1.1,0.5,2.1,1.1,2.9,1.8c0.9,0.8,1.7,1.6,2.4,2.5c1.4,1.9,2.4,4,2.9,6.2c0.5,2.2,0.6,4.5,0.2,6.7
		c-0.3,2.1-1.1,4.2-2.2,6c-0.5,0.9-1.1,1.7-1.8,2.5l-0.5,0.6l-0.6,0.5c-0.1,0.1-0.2,0.2-0.4,0.3c-0.1,0.1-0.1,0.1-0.2,0.2l-0.6,0.5
		c0,0-0.1,0.1-0.1,0.1c0,0-0.1,0.1-0.2,0.1l-0.7,0.5L250,191l-1.2,0.7l-1,0.5l-1,0.5L246,193l-0.8,0.3l-1.4,0.4
		c-0.9,0.2-1.8,0.4-2.7,0.5c-0.3,0.1-0.7,0.1-1,0.1l-0.3,0c-0.1,0-0.3,0-0.4,0c-0.1,0-0.1,0-0.2,0l-0.2,0c-0.1,0-0.3,0-0.4,0
		c-0.7,0-1.6,0-2.5-0.1c-1.5-0.2-3-0.5-4.5-1c-1.3-0.4-2.5-1-3.7-1.6c-1-0.5-1.9-1.2-2.8-1.9c-0.1-0.1-0.3-0.2-0.4-0.3
		c0,0,0,0-0.1-0.1c-1.2-1.5-2.5-2.9-3.9-4.3l-0.1-0.1c-0.2-0.2-0.3-0.4-0.5-0.5c-0.2-0.2-0.4-0.4-0.6-0.6c-2.8-2.7-5.9-5-9.2-7
		c0.2,0,0.4,0,0.6-0.1c0.1,0,0.1,0,0.2,0c1.6-0.3,3.2-0.8,4.8-1.4c0.7-0.3,1.5-0.6,2.4-1.2c0.1-0.1,0.3-0.2,0.4-0.2l0.4-0.2
		c0.1-0.1,0.3-0.2,0.4-0.3l0.2-0.2c0.3-0.2,0.6-0.4,0.9-0.6c0.9-0.6,1.6-1.3,2.3-1.9l0.8-0.8l0.6-0.6l1-1.1l0.7-0.9l0.7-1l0.3-0.6
		c0.1-0.2,0.2-0.3,0.3-0.5l0.4-0.7l0.5-1.1c0-0.1,0.1-0.2,0.1-0.3l0.1-0.1c0.2-0.6,0.4-1.1,0.6-1.6l0.2-0.8l0.2-0.8
		c0.3-1.1,0.4-2.3,0.5-3.4c0.1-2.4-0.3-4.8-1-7c-0.8-2.3-2.1-4.5-3.7-6.3c-1.6-1.9-3.7-3.4-6-4.5c-1.1-0.5-2.4-0.9-3.7-1.2
		c-1.2-0.2-2.5-0.3-3.9-0.2c-2.6,0.2-5.1,1.1-7.3,2.5l-0.8,0.6l-0.4,0.3l-0.7,0.6l-0.3,0.3c-0.2,0.2-0.3,0.3-0.5,0.5
		c-0.1,0.1-0.1,0.1-0.2,0.2c-0.3,0.4-0.8,0.9-1.2,1.5c-0.2,0.2-0.3,0.5-0.5,0.7l0,0.1c-0.1,0.1-0.1,0.2-0.2,0.4l-0.3,0.5l-0.2,0.4
		l-0.4,1.1c0,0.1-0.1,0.2-0.1,0.3c-0.2,0.6-0.3,1.2-0.4,1.9c-0.1,0.3-0.1,0.6-0.1,0.9l0,0.1c0,0.3,0,0.6,0,0.9
		c0,0.7,0.1,1.3,0.2,1.9c0.8,5.2,5.1,9.4,10,9.9c2.4,0.2,4.9-0.5,6.8-1.9c0.9-0.7,1.7-1.6,2.4-2.6l0.2-0.4l0.2-0.4l0,0
		c0,0,0.1-0.1,0.1-0.1l0.3-0.6l0-0.1c0.1-0.2,0.2-0.5,0.2-0.7l0.1-0.4c0,0,0-0.1,0-0.1c0-0.1,0-0.2,0.1-0.3c0.2-1.1,0.1-2.2-0.2-3.3
		c-0.3-1-0.8-2-1.5-2.9c-0.7-0.8-1.5-1.5-2.4-2l-0.1,0c0,0,0,0-0.1,0l-0.5-0.2c-0.1,0-0.2-0.1-0.2-0.1l-0.2-0.1
		c-0.1,0-0.2-0.1-0.3-0.1c-0.1,0-0.1,0-0.2,0c-0.2,0-0.4-0.1-0.6-0.1l-0.3,0l-0.4,0c-0.2,0-0.4,0-0.6,0l-0.1,0c-0.1,0-0.2,0-0.3,0
		l-0.9,0.2c-0.1,0-0.2,0.1-0.3,0.1l-0.2,0.1c-0.2,0.1-0.3,0.1-0.5,0.2c-0.8,0.4-1.6,1-2.2,1.7c-0.1,0.1-0.2,0.2-0.3,0.4
		c0,0.1-0.1,0.1-0.1,0.2l0,0c-0.1,0.1-0.1,0.2-0.2,0.4l-0.1,0.2c0,0-0.1,0.1-0.1,0.1l-0.1,0.3c0,0.1-0.1,0.2-0.1,0.3l-0.1,0.3
		c0,0.1,0,0.2-0.1,0.2l0,0.1c-0.1,0.5-0.1,1-0.1,1.3l0,0.3c0,0,0,0.1,0,0.1l0.1,0.4l0.1,0.3c0,0.2,0.1,0.3,0.1,0.5l0.1,0.1
		c0.1,0.1,0.1,0.3,0.2,0.4l0.1,0.1c0.2,0.4,0.5,0.7,0.7,0.9c0.5,0.5,1.1,1,1.8,1.3c0.6,0.2,1.2,0.3,1.8,0.3l0.3,0c0,0,0,0,0,0
		c0,0,0,0,0,0c0.3,0,0.5-0.3,0.5-0.6c0-0.3-0.3-0.6-0.6-0.6l-0.3,0c-0.5,0-0.9-0.1-1.3-0.2c-0.5-0.2-1-0.6-1.4-1
		c-0.2-0.2-0.3-0.4-0.5-0.7l-0.1-0.1c0-0.1-0.1-0.2-0.1-0.3l-0.1-0.1c0-0.1-0.1-0.2-0.1-0.3l-0.1-0.2l-0.1-0.4c0,0,0,0,0-0.1l0-0.3
		c0-0.4,0-0.7,0.1-0.9c0,0,0-0.1,0-0.1c0,0,0-0.1,0-0.1l0.1-0.3c0-0.1,0-0.1,0.1-0.2l0.2-0.4c0.1-0.1,0.1-0.2,0.2-0.3
		c0-0.1,0.1-0.1,0.1-0.2c0.1-0.1,0.1-0.2,0.2-0.3c0.5-0.6,1.1-1,1.8-1.3c0.1-0.1,0.2-0.1,0.3-0.1c0.1,0,0.1,0,0.2-0.1
		c0.1,0,0.1,0,0.2,0l0.4-0.1l0.4-0.1c0.1,0,0.1,0,0.2,0l0.2,0c0.1,0,0.3,0,0.4,0l0.6,0.1c0.1,0,0.2,0,0.4,0.1c0.1,0,0.1,0,0.2,0.1
		c0,0,0.1,0,0.1,0c0,0,0.1,0,0.1,0l0.1,0c0.1,0,0.1,0,0.2,0.1l0.5,0.2l0.1,0.1c0.7,0.4,1.4,1,1.9,1.6c0.5,0.7,0.9,1.5,1.1,2.3
		c0.2,0.9,0.3,1.8,0.1,2.6l0,0c0,0.1,0,0.1,0,0.2c0,0,0,0.1,0,0.1l-0.1,0.3c-0.1,0.2-0.1,0.3-0.2,0.5l-0.1,0.2l-0.2,0.3l-0.3,0.6
		l-0.2,0.3c-0.5,0.8-1.2,1.5-2,2.1c-1.6,1.1-3.6,1.7-5.6,1.5c-1-0.1-2-0.4-2.8-0.9c-0.5-0.3-0.9-0.5-1.3-0.8c-0.4-0.3-0.8-0.7-1.2-1
		c-1.5-1.5-2.4-3.5-2.7-5.5c-0.1-0.5-0.1-1-0.1-1.6c0-0.2,0-0.5,0-0.7l0-0.2c0-0.2,0.1-0.5,0.1-0.7c0.1-0.6,0.2-1.1,0.4-1.5
		c0-0.1,0.1-0.1,0.1-0.2c0,0,0-0.1,0.1-0.1l0.1-0.2l0.4-0.9l0.2-0.4c0.1-0.1,0.1-0.2,0.2-0.3l0.1-0.1c0.1-0.2,0.3-0.4,0.4-0.6
		c0.3-0.5,0.7-0.9,1-1.2c0.1-0.1,0.1-0.1,0.2-0.2c0.1-0.1,0.2-0.3,0.4-0.4l0.3-0.3l0.3-0.3l0.6-0.5l0.3-0.2l0.3-0.2
		c1.8-1.2,3.9-1.8,6.1-2c1.1-0.1,2.2,0,3.2,0.2c1.1,0.2,2.1,0.6,3,1c1.9,0.9,3.6,2.3,5,3.9c1.3,1.6,2.4,3.4,3,5.4
		c0.6,1.9,0.9,3.9,0.8,5.9c-0.1,1-0.2,1.9-0.4,2.8l-0.2,0.7l-0.2,0.7c0,0.1-0.1,0.3-0.2,0.4c0,0.1-0.1,0.2-0.1,0.3l-0.3,0.6
		c0,0,0,0.1-0.1,0.1c0,0.1,0,0.1-0.1,0.2l-0.3,0.7l-0.4,0.7l-0.7,1.1l-0.6,0.8l-0.6,0.8l-0.5,0.6l-0.5,0.6l-1,0.9
		c-0.6,0.5-1.3,1.1-2,1.6c-0.2,0.2-0.5,0.3-0.8,0.5l-0.3,0.2c-0.1,0.1-0.2,0.1-0.3,0.2c-0.1,0-0.1,0.1-0.2,0.1l-0.2,0.1
		c-0.1,0.1-0.2,0.1-0.3,0.2c-0.6,0.3-1.3,0.7-2.1,0.9c-1.3,0.5-2.7,0.9-4.1,1.1c-1.2,0.2-2.5,0.3-3.7,0.2c-1,0-2-0.1-3.1-0.3
		c-0.2,0-0.3-0.1-0.5-0.1c-0.3-0.1-0.5-0.1-0.8-0.2c-0.2-0.1-0.4-0.2-0.5-0.2l-2.4-1l-1.2-0.4l-0.3-0.1c-0.2-0.1-0.4-0.2-0.7-0.2
		l-0.3-0.1l-0.3-0.1c-0.1,0-0.4-0.1-0.4-0.1l-0.6-0.2l-1.2-0.3l-2.4-0.6c-1.7-0.3-3.5-0.6-5.2-0.8l-0.8,0c0,0,0,0,0,0
		c1.2-0.9,2.4-2,3.4-3.2c0.5-0.5,0.9-1.2,1.5-2c0.1-0.1,0.2-0.2,0.2-0.4l0.2-0.3c0.1-0.1,0.2-0.3,0.2-0.4l0.1-0.2
		c0.2-0.3,0.3-0.6,0.5-0.9c0.4-0.8,0.8-1.7,1.1-2.5l0.3-1l0.2-0.8l0.3-1.3l0.2-1.1l0.1-1.1l0-0.6c0-0.2,0-0.3,0-0.5l0-0.7l0-1.1
		c0-0.1,0-0.2,0-0.3l0-0.1c0-0.6-0.1-1.1-0.2-1.6l-0.1-0.8l-0.2-0.8c-0.3-1-0.6-2.1-1.1-3c-0.9-2-2.3-3.8-3.9-5.3
		c-1.6-1.6-3.6-2.8-5.7-3.6c-2.1-0.8-4.5-1.2-6.8-1.1c-1.2,0-2.3,0.2-3.5,0.6c-1.1,0.3-2.2,0.8-3.3,1.5c-2.1,1.3-3.8,3.1-4.9,5.1
		l-0.4,0.8l-0.2,0.4l-0.3,0.8l-0.1,0.4c-0.1,0.2-0.1,0.4-0.2,0.6c0,0.1,0,0.2-0.1,0.3c-0.1,0.5-0.3,1.1-0.3,1.7
		c0,0.3-0.1,0.5-0.1,0.8l0,0.1c0,0.1,0,0.3,0,0.4l0,0.5l0,0.4l0.1,1.1c0,0.1,0,0.2,0,0.3c0.1,0.6,0.2,1.1,0.4,1.8
		c0.1,0.3,0.2,0.5,0.3,0.8l0,0.1c0.1,0.3,0.2,0.5,0.4,0.8c0.3,0.5,0.6,1.1,1,1.5c2.9,3.9,8.2,5.6,12.5,3.9c2.1-0.8,3.8-2.5,4.8-4.5
		c0.5-1,0.8-2,0.9-3.1l0-0.4l0-0.4v0c0,0,0-0.1,0-0.1l0-0.6l0-0.1c0-0.2-0.1-0.5-0.1-0.7l-0.1-0.4c0,0,0-0.1,0-0.1
		c0-0.1,0-0.2-0.1-0.3c-0.3-1-0.9-1.9-1.6-2.7c-0.7-0.7-1.5-1.3-2.4-1.7c-0.9-0.4-1.9-0.6-2.8-0.6l-0.1,0c0,0,0,0-0.1,0l-0.6,0
		c-0.1,0-0.2,0-0.2,0l-0.2,0c-0.1,0-0.2,0-0.3,0.1c-0.1,0-0.1,0-0.2,0c-0.2,0-0.3,0.1-0.5,0.2l-0.3,0.1l-0.3,0.2
		c-0.2,0.1-0.3,0.2-0.5,0.3l-0.1,0.1c-0.1,0.1-0.2,0.1-0.2,0.2l-0.6,0.5c-0.1,0.1-0.1,0.1-0.2,0.2l-0.1,0.1
		c-0.1,0.1-0.2,0.2-0.3,0.4c-0.5,0.7-0.9,1.5-1.1,2.3c0,0.1,0,0.3-0.1,0.4c0,0.1,0,0.1,0,0.2l0,0c0,0.1,0,0.3,0,0.4l0,0.2
		c0,0,0,0.1,0,0.1l0,0.3c0,0.1,0,0.2,0,0.3l0,0.3c0,0.1,0,0.2,0.1,0.2l0,0.1c0.1,0.5,0.3,0.9,0.5,1.1l0.2,0.3c0,0,0,0.1,0.1,0.1
		l0.2,0.3l0.2,0.2c0.1,0.1,0.2,0.2,0.3,0.3l0.1,0.1c0.1,0.1,0.2,0.2,0.3,0.3l0.1,0.1c0.4,0.2,0.7,0.4,1,0.5c0.6,0.2,1.3,0.3,2,0.3
		c0.6,0,1.1-0.2,1.6-0.5l0.1-0.1c0.1-0.1,0.2-0.2,0.2-0.4c0-0.3-0.2-0.5-0.5-0.5c-0.1,0-0.2,0-0.2,0.1h0c-0.4,0.2-0.8,0.3-1.2,0.4
		c-0.5,0-1.1-0.1-1.6-0.3c-0.2-0.1-0.4-0.2-0.7-0.4l-0.1-0.1c-0.1-0.1-0.2-0.1-0.2-0.2l-0.1-0.1c-0.1-0.1-0.1-0.1-0.2-0.2l-0.1-0.2
		l-0.2-0.3c0,0,0,0,0,0l-0.1-0.2c-0.2-0.3-0.3-0.6-0.3-0.8c0,0,0-0.1,0-0.1c0,0,0-0.1,0-0.1l0-0.3c0-0.1,0-0.1,0-0.2l0-0.5
		c0-0.1,0-0.2,0-0.3c0-0.1,0-0.1,0-0.2c0-0.1,0-0.2,0.1-0.3c0.2-0.7,0.5-1.3,0.9-1.8c0.1-0.1,0.1-0.2,0.2-0.3c0,0,0.1-0.1,0.1-0.1
		c0,0,0.1-0.1,0.1-0.1l0.3-0.2l0.3-0.2c0,0,0.1-0.1,0.1-0.1l0.1-0.1c0.1-0.1,0.2-0.1,0.3-0.2l0.5-0.2c0.1,0,0.2-0.1,0.3-0.1
		c0.1,0,0.1,0,0.2,0c0,0,0.1,0,0.1,0c0,0,0.1,0,0.1,0l0.1,0c0.1,0,0.1,0,0.2,0l0.5,0l0.1,0c0.8,0,1.6,0.2,2.3,0.5
		c0.7,0.3,1.4,0.8,1.9,1.4c0.5,0.6,1,1.4,1.2,2.1l0,0c0,0,0,0.1,0,0.1c0,0,0,0.1,0,0.1l0.1,0.3c0,0.1,0,0.3,0.1,0.4l0,0.2l0,0.3
		l0,0.6l0,0.3c-0.1,0.9-0.4,1.7-0.8,2.5c-0.8,1.6-2.3,2.9-4,3.6c-0.9,0.3-1.8,0.5-2.7,0.5c-0.5,0-1-0.1-1.4-0.1
		c-0.5-0.1-0.9-0.2-1.4-0.4c-1.8-0.6-3.5-1.8-4.6-3.4c-0.3-0.4-0.5-0.8-0.8-1.3c-0.1-0.2-0.2-0.4-0.3-0.6l-0.1-0.2
		c-0.1-0.2-0.2-0.4-0.2-0.6c-0.2-0.5-0.3-1-0.3-1.4c0-0.1,0-0.1,0-0.2c0-0.1,0-0.1,0-0.1l0-0.2l0-0.9l0-0.5c0-0.1,0-0.2,0-0.3l0-0.1
		c0-0.2,0-0.4,0.1-0.7c0.1-0.5,0.2-1,0.3-1.5c0-0.1,0.1-0.2,0.1-0.3c0-0.2,0.1-0.3,0.2-0.5l0.1-0.3l0.1-0.4l0.3-0.7l0.2-0.3l0.2-0.3
		c1-1.7,2.4-3.2,4.2-4.2c0.9-0.5,1.8-0.9,2.7-1.2c1-0.3,2-0.4,2.9-0.4c2,0,4,0.3,5.8,1.1c1.8,0.7,3.4,1.8,4.8,3.1
		c1.3,1.3,2.4,2.9,3.1,4.5c0.4,0.8,0.6,1.7,0.9,2.5l0.1,0.6l0.1,0.7c0,0.1,0,0.3,0,0.4c0,0.1,0,0.2,0,0.3l0,0.6c0,0,0,0.1,0,0.1
		c0,0.1,0,0.1,0,0.2l0,0.7l0,0.7l-0.1,1.2l-0.1,0.9l-0.2,0.9l-0.2,0.7l-0.2,0.7l-0.4,1.2c-0.3,0.7-0.6,1.4-1,2.1
		c-0.1,0.2-0.3,0.5-0.4,0.7l-0.1,0.2c-0.1,0.1-0.1,0.2-0.2,0.3c0,0.1-0.1,0.1-0.1,0.2l-0.1,0.2c-0.1,0.1-0.1,0.2-0.2,0.3
		c-0.4,0.5-0.8,1.1-1.3,1.7c-0.9,1-1.8,1.9-2.9,2.6c-0.9,0.7-1.9,1.3-2.9,1.8c-0.9,0.4-1.7,0.8-2.7,1c0,0-0.1,0-0.1,0
		c-1.6,0.2-3.2,0.4-4.8,0.7c0,0-0.7,0.1-1.6,0.3c-3.2,0.8-6.4,1.9-9.3,3.3c0.5-1.1,0.9-2.2,1.1-3.4c0.2-0.6,0.3-1.3,0.4-2.2
		c0-0.1,0-0.3,0-0.4l0-0.4c0-0.1,0-0.3,0-0.4l0-0.2c0-0.3,0-0.6,0-0.9c0-0.9-0.1-1.7-0.2-2.4l-0.1-0.9l-0.1-0.7l-0.3-1.2l-0.3-0.9
		l-0.3-0.9l-0.2-0.5c-0.1-0.1-0.1-0.3-0.2-0.4l-0.3-0.6l-0.5-0.9c0-0.1-0.1-0.1-0.1-0.2l-0.1-0.1c-0.3-0.4-0.5-0.8-0.8-1.2l-0.4-0.6
		l-0.5-0.5c-0.6-0.7-1.3-1.4-2.1-1.9c-1.5-1.2-3.4-2.1-5.2-2.6c-1.9-0.6-4-0.7-6-0.5c-2,0.2-4.1,0.9-5.9,1.9
		c-0.9,0.5-1.8,1.1-2.6,1.9c-0.7,0.7-1.4,1.6-2,2.5c-1.1,1.9-1.7,4-1.8,6.1l0,0.8l0,0.4l0.1,0.8l0.1,0.4c0,0.2,0.1,0.4,0.1,0.5
		c0,0.1,0,0.2,0.1,0.3c0.1,0.4,0.3,1,0.5,1.5c0.1,0.2,0.2,0.5,0.3,0.7l0,0.1c0,0.1,0.1,0.2,0.1,0.3l0.2,0.4l0.2,0.3l0.5,0.8
		c0.1,0.1,0.1,0.2,0.2,0.2c0.3,0.4,0.6,0.8,1.1,1.2c0.2,0.2,0.4,0.3,0.6,0.5l0.1,0.1c0.2,0.2,0.4,0.3,0.6,0.4
		c0.5,0.3,0.9,0.6,1.4,0.8c3.9,1.9,8.8,1,11.4-2c1.3-1.5,2-3.5,2-5.5c0-1-0.2-1.9-0.6-2.8l-0.1-0.3l-0.1-0.3l0,0c0,0,0-0.1,0-0.1
		l-0.3-0.5l-0.1-0.1c-0.1-0.2-0.2-0.3-0.4-0.5l-0.2-0.3c0,0,0,0-0.1-0.1c-0.1-0.1-0.1-0.1-0.2-0.2c-0.7-0.6-1.5-1.1-2.3-1.5
		c-0.8-0.3-1.8-0.4-2.6-0.4c-0.9,0.1-1.7,0.3-2.5,0.7l-0.1,0c0,0,0,0-0.1,0l-0.4,0.3c-0.1,0-0.1,0.1-0.2,0.1l-0.2,0.1
		c-0.1,0-0.1,0.1-0.2,0.2c0,0-0.1,0.1-0.1,0.1c-0.1,0.1-0.2,0.2-0.3,0.3l-0.2,0.2l-0.2,0.3c-0.1,0.1-0.2,0.3-0.3,0.4l-0.1,0.1
		c-0.1,0.1-0.1,0.2-0.1,0.2l-0.3,0.7c0,0.1-0.1,0.2-0.1,0.2l0,0.1c0,0.1-0.1,0.3-0.1,0.4c-0.1,0.8-0.1,1.6,0.1,2.3
		c0,0.1,0.1,0.2,0.1,0.4c0,0.1,0,0.1,0.1,0.2l0,0c0,0.1,0.1,0.2,0.1,0.3l0.1,0.1c0,0,0,0.1,0,0.1l0.1,0.2c0,0.1,0.1,0.1,0.1,0.2
		l0.1,0.2c0,0.1,0.1,0.1,0.1,0.2l0,0.1c0.3,0.3,0.6,0.5,0.8,0.7l0.2,0.1c0,0,0.1,0,0.1,0.1l0.3,0.2l0.2,0.1c0.1,0.1,0.3,0.1,0.4,0.1
		l0.1,0c0.1,0,0.2,0,0.4,0.1l0.1,0c0.4,0,0.7,0,1,0c0.6-0.1,1.2-0.3,1.7-0.6c0.4-0.3,0.7-0.6,1-1c0,0,0,0,0,0c0,0,0,0,0,0v0
		c0.1-0.1,0.1-0.2,0.1-0.3c0-0.3-0.2-0.5-0.5-0.5c0,0,0,0,0,0c0,0,0,0,0,0l0,0c-0.1,0-0.3,0.1-0.4,0.2h0c-0.2,0.3-0.5,0.6-0.8,0.8
		c-0.4,0.2-0.9,0.4-1.3,0.4c-0.2,0-0.4,0-0.7,0l-0.1,0c-0.1,0-0.2,0-0.3,0l-0.1,0c-0.1,0-0.2,0-0.3-0.1l-0.2-0.1l-0.3-0.1
		c0,0,0,0,0,0l-0.2-0.1c-0.3-0.2-0.4-0.4-0.6-0.5c0,0,0-0.1-0.1-0.1c0,0,0,0-0.1-0.1l-0.1-0.2c0,0,0-0.1-0.1-0.1l-0.2-0.4
		c0-0.1-0.1-0.2-0.1-0.2c0-0.1,0-0.1-0.1-0.2c0-0.1-0.1-0.2-0.1-0.3c-0.1-0.6-0.2-1.2,0-1.8c0-0.1,0-0.2,0.1-0.3c0,0,0-0.1,0-0.2
		c0,0,0-0.1,0-0.1l0.1-0.3l0.1-0.3c0,0,0-0.1,0.1-0.1l0.1-0.1c0.1-0.1,0.1-0.2,0.2-0.3l0.3-0.4c0.1-0.1,0.1-0.1,0.2-0.2
		c0,0,0.1-0.1,0.1-0.1c0,0,0.1,0,0.1-0.1c0,0,0.1,0,0.1-0.1l0.1-0.1c0,0,0.1-0.1,0.1-0.1l0.4-0.2l0.1,0c0.6-0.3,1.3-0.5,2-0.5
		c0.7,0,1.4,0.1,2.1,0.3c0.7,0.3,1.3,0.7,1.8,1.2l0,0c0,0,0.1,0.1,0.1,0.1c0,0,0,0.1,0.1,0.1l0.2,0.2c0.1,0.1,0.2,0.2,0.2,0.3
		l0.1,0.1l0.1,0.3l0.3,0.5l0.1,0.3c0.3,0.7,0.4,1.5,0.4,2.3c0,1.6-0.6,3.2-1.7,4.4c-0.6,0.6-1.2,1.1-2,1.5c-0.4,0.2-0.8,0.3-1.2,0.5
		c-0.4,0.1-0.8,0.2-1.3,0.3c-1.7,0.3-3.5,0-5-0.8c-0.4-0.2-0.7-0.4-1.1-0.7c-0.2-0.1-0.3-0.2-0.4-0.3l-0.1-0.1
		c-0.2-0.1-0.3-0.3-0.4-0.4c-0.3-0.3-0.6-0.7-0.9-1c0-0.1-0.1-0.1-0.1-0.2c0,0,0-0.1-0.1-0.1l-0.1-0.1l-0.4-0.7l-0.2-0.4
		c0-0.1-0.1-0.2-0.1-0.2l0-0.1c-0.1-0.2-0.1-0.4-0.2-0.6c-0.2-0.4-0.3-0.9-0.4-1.3c0-0.1,0-0.2,0-0.2c0-0.1-0.1-0.3-0.1-0.4l0-0.3
		l0-0.3l0-0.7l0-0.3l0-0.3c0.1-1.8,0.6-3.5,1.6-5c0.5-0.8,1.1-1.5,1.7-2c0.7-0.6,1.4-1.1,2.1-1.5c1.6-0.8,3.3-1.4,5-1.5
		c1.7-0.2,3.4,0,5.1,0.5c1.6,0.5,3.1,1.3,4.3,2.3c0.6,0.5,1.2,1.1,1.7,1.6l0.4,0.5l0.4,0.5c0.1,0.1,0.1,0.2,0.2,0.3
		c0,0.1,0.1,0.1,0.1,0.2l0.3,0.5c0,0,0,0.1,0.1,0.1c0,0,0.1,0.1,0.1,0.1l0.3,0.6l0.3,0.6l0.4,1l0.3,0.8l0.2,0.8l0.2,0.7l0.1,0.6
		l0.2,1.1c0.1,0.7,0.1,1.4,0.1,2.1c0,0.3,0,0.5,0,0.8l0,0.3c0,0.1,0,0.2,0,0.3c0,0.1,0,0.1,0,0.2l0,0.2c0,0.1,0,0.2,0,0.3
		c-0.1,0.6-0.2,1.2-0.4,1.9c-0.3,1.1-0.7,2.2-1.2,3.3c-0.5,0.9-1,1.8-1.6,2.6c-0.4,0.5-0.8,1-1.3,1.5c-1.5,1-2.9,2-4.3,3.2l-0.2,0.1
		c-0.3,0.1-0.4,0.3-0.6,0.6c-1.6,1.4-3.1,2.9-4.5,4.5c-0.8,0.9-1.5,1.8-2.2,2.7c-0.1-1-0.2-2-0.5-3c-0.1-0.6-0.3-1.2-0.6-1.9
		c0-0.1-0.1-0.2-0.1-0.3l-0.1-0.3c0-0.1-0.1-0.2-0.2-0.3l-0.1-0.2c-0.1-0.3-0.2-0.5-0.4-0.8c-0.4-0.7-0.8-1.3-1.2-1.9l-0.5-0.7
		l-0.4-0.5l-0.7-0.8l-0.6-0.6l-0.7-0.6l-0.4-0.3c-0.1-0.1-0.2-0.2-0.3-0.3l-0.5-0.4l-0.7-0.5c-0.1,0-0.1-0.1-0.2-0.1l-0.1-0.1
		c-0.4-0.2-0.8-0.4-1.1-0.6l-0.6-0.3l-0.6-0.2c-0.8-0.3-1.7-0.5-2.5-0.7c-1.7-0.3-3.6-0.3-5.3,0c-1.8,0.4-3.6,1.1-5.1,2.1
		c-1.6,1-2.9,2.4-4,4c-0.5,0.8-0.9,1.7-1.3,2.6c-0.3,0.9-0.5,1.8-0.6,2.9c-0.1,2,0.3,3.9,1.1,5.7l0.3,0.7l0.2,0.3l0.4,0.6l0.2,0.3
		c0.1,0.1,0.2,0.3,0.3,0.4c0,0.1,0.1,0.1,0.1,0.2c0.3,0.3,0.6,0.7,1,1c0.2,0.2,0.3,0.3,0.5,0.4l0,0c0.1,0.1,0.2,0.1,0.2,0.2l0.4,0.3
		l0.3,0.2l0.7,0.4c0.1,0,0.2,0.1,0.2,0.1c0.4,0.2,0.9,0.4,1.4,0.5c0.2,0.1,0.4,0.1,0.7,0.2l0.1,0c0.2,0,0.4,0.1,0.7,0.1
		c0.5,0.1,1,0.1,1.4,0.1c3.9-0.1,7.5-2.8,8.4-6.4c0.4-1.8,0.2-3.7-0.7-5.3c-0.4-0.8-1-1.4-1.7-2l-0.3-0.2l-0.2-0.2l0,0
		c0,0-0.1-0.1-0.1-0.1l-0.4-0.3l-0.1,0c-0.2-0.1-0.3-0.2-0.5-0.3l-0.3-0.1c0,0-0.1,0-0.1,0c-0.1,0-0.1-0.1-0.2-0.1
		c-0.8-0.2-1.7-0.3-2.5-0.2c-0.8,0.1-1.6,0.4-2.3,0.8c-0.7,0.4-1.3,0.9-1.7,1.6l0,0.1c0,0,0,0,0,0.1l-0.2,0.4c0,0.1-0.1,0.1-0.1,0.2
		l-0.1,0.2c0,0.1-0.1,0.1-0.1,0.2c0,0,0,0.1,0,0.1c-0.1,0.1-0.1,0.3-0.1,0.4l-0.1,0.3l0,0.3c0,0.2,0,0.3,0,0.4l0,0.1
		c0,0.1,0,0.2,0,0.2l0.1,0.7c0,0.1,0,0.2,0,0.2l0,0.1c0,0.1,0.1,0.3,0.1,0.4c0.2,0.7,0.6,1.3,1,1.8c0.1,0.1,0.2,0.2,0.2,0.2
		c0,0,0.1,0.1,0.1,0.1l0,0c0.1,0.1,0.2,0.1,0.2,0.2l0.1,0.1c0,0,0.1,0,0.1,0.1l0.2,0.1c0.1,0,0.1,0.1,0.2,0.1l0.2,0.1
		c0.1,0,0.1,0.1,0.2,0.1l0.1,0c0.3,0.1,0.7,0.2,1,0.2l0.3,0c0,0,0.1,0,0.1,0l0.3,0l0.2,0c0.1,0,0.2,0,0.4-0.1l0.1,0
		c0.1,0,0.2-0.1,0.3-0.1l0.1,0c0,0,0,0,0,0c0.2-0.1,0.3-0.2,0.3-0.4c0-0.3-0.2-0.5-0.5-0.5c-0.1,0-0.1,0-0.2,0l-0.1,0
		c-0.1,0-0.2,0.1-0.2,0.1l-0.1,0c-0.1,0-0.2,0-0.2,0l-0.2,0l-0.3,0c0,0,0,0,0,0l-0.2,0c-0.3,0-0.5-0.1-0.7-0.2c0,0-0.1,0-0.1,0
		c0,0-0.1,0-0.1,0l-0.2-0.1c0,0-0.1,0-0.1-0.1l-0.3-0.2c-0.1-0.1-0.1-0.1-0.2-0.2c0,0-0.1-0.1-0.1-0.1c-0.1-0.1-0.1-0.1-0.2-0.2
		c-0.4-0.4-0.6-0.9-0.8-1.5c0-0.1,0-0.2-0.1-0.3c0,0,0-0.1,0-0.1c0,0,0-0.1,0-0.1l0-0.3l0-0.3c0,0,0-0.1,0-0.1l0-0.1
		c0-0.1,0-0.2,0-0.3l0.1-0.5c0-0.1,0.1-0.2,0.1-0.3c0,0,0-0.1,0.1-0.2c0,0,0-0.1,0-0.1c0,0,0-0.1,0-0.1l0-0.1c0,0,0-0.1,0.1-0.1
		l0.2-0.3l0.1-0.1c0.4-0.5,0.9-0.9,1.4-1.2c0.6-0.3,1.2-0.5,1.8-0.6c0.7-0.1,1.3,0,2,0.2l0,0c0,0,0.1,0,0.1,0c0,0,0.1,0,0.1,0
		l0.2,0.1c0.1,0.1,0.2,0.1,0.3,0.2l0.1,0.1l0.2,0.2l0.4,0.3l0.2,0.2c0.5,0.5,1,1.1,1.3,1.7c0.7,1.3,0.9,2.9,0.5,4.3
		c-0.2,0.7-0.5,1.4-1,2c-0.2,0.3-0.5,0.6-0.8,0.9c-0.3,0.3-0.6,0.5-0.9,0.8c-1.3,0.9-2.8,1.4-4.4,1.5c-0.4,0-0.8,0-1.2-0.1
		c-0.2,0-0.3-0.1-0.5-0.1l-0.1,0c-0.2,0-0.3-0.1-0.5-0.1c-0.4-0.1-0.8-0.3-1.1-0.5c-0.1,0-0.1-0.1-0.2-0.1c0,0-0.1,0-0.1-0.1
		l-0.1-0.1l-0.6-0.4l-0.3-0.2c-0.1,0-0.1-0.1-0.2-0.2l-0.1-0.1c-0.1-0.1-0.3-0.2-0.4-0.4c-0.3-0.3-0.6-0.6-0.8-0.9
		c0-0.1-0.1-0.1-0.1-0.2c-0.1-0.1-0.2-0.2-0.2-0.3l-0.2-0.2l-0.2-0.3l-0.3-0.5l-0.1-0.3l-0.1-0.3c-0.7-1.5-1-3.1-0.8-4.7
		c0.1-0.8,0.2-1.6,0.5-2.3c0.3-0.8,0.6-1.5,1.1-2.1c0.9-1.3,2.1-2.5,3.4-3.3c1.3-0.8,2.8-1.4,4.3-1.7c1.5-0.3,3-0.2,4.5,0
		c0.7,0.1,1.4,0.4,2.1,0.6l0.5,0.2l0.5,0.2c0.1,0,0.2,0.1,0.3,0.2c0.1,0,0.1,0.1,0.2,0.1l0.4,0.3c0,0,0.1,0,0.1,0.1
		c0,0,0.1,0,0.1,0.1l0.5,0.3l0.5,0.4l0.7,0.6l0.6,0.5l0.5,0.5l0.4,0.5l0.4,0.4l0.6,0.8c0.3,0.5,0.7,1.1,0.9,1.6
		c0.1,0.2,0.2,0.4,0.3,0.6l0.1,0.2c0,0.1,0.1,0.2,0.1,0.3c0,0,0,0.1,0.1,0.1l0.1,0.2c0,0.1,0.1,0.2,0.1,0.3c0.2,0.5,0.4,1.1,0.5,1.7
		c0.2,1,0.4,2.1,0.4,3.1c0,0.9-0.1,1.9-0.2,2.8c-0.1,0.5-0.2,1-0.3,1.4c-0.9,1.6-1.7,3.3-2.4,5c0,0.1-0.1,0.2-0.1,0.2
		c-0.4,1.1-0.8,2.1-1.2,3.2l-0.2,0.5c0,0.1,0,0.1-0.1,0.3l-0.1,0.3l-0.3,1.1c-0.2,0.7-0.4,1.4-0.5,2.1c0,0.2,0,0.3-0.1,0.5
		c-0.4-0.6-0.8-1.2-1.3-1.8c-0.3-0.3-0.6-0.7-1.1-1.1c-0.1-0.1-0.1-0.1-0.2-0.2l-0.2-0.2c-0.1-0.1-0.1-0.1-0.2-0.2l-0.1-0.1
		c-0.2-0.1-0.3-0.3-0.5-0.4c-0.5-0.3-1-0.6-1.4-0.9l-0.6-0.3l-0.4-0.2l-0.8-0.3l-0.6-0.2l-0.6-0.2l-0.4-0.1c-0.1,0-0.2,0-0.3-0.1
		l-0.4-0.1l-0.7-0.1c-0.1,0-0.1,0-0.2,0l-0.1,0c-0.3,0-0.7,0-1,0l-0.5,0l-0.5,0c-0.6,0.1-1.3,0.2-1.9,0.4c-1.3,0.4-2.5,1-3.5,1.9
		c-1.1,0.9-2,1.9-2.7,3.1c-0.7,1.2-1.1,2.6-1.3,4c-0.1,0.7-0.1,1.4,0.1,2.2c0.1,0.7,0.3,1.4,0.6,2.1c0.6,1.4,1.5,2.5,2.7,3.4
		l0.5,0.3l0.2,0.1l0.5,0.3l0.2,0.1c0.1,0.1,0.2,0.1,0.3,0.2c0.1,0,0.1,0,0.2,0.1c0.3,0.1,0.6,0.2,1,0.3c0.2,0,0.3,0.1,0.5,0.1l0,0
		c0.1,0,0.2,0,0.2,0l0.3,0.1l0.2,0l0.6,0c0.1,0,0.1,0,0.2,0c0.3,0,0.7,0,1.1-0.1c0.2,0,0.3-0.1,0.5-0.1l0.1,0c0.2,0,0.3-0.1,0.5-0.2
		c0.4-0.1,0.7-0.3,1-0.4c2.6-1.4,4-4.5,3.4-7.2c-0.3-1.3-1.2-2.5-2.3-3.3c-0.5-0.4-1.1-0.6-1.8-0.8l-0.2,0l-0.2,0l0,0
		c0,0-0.1,0-0.1,0l-0.4,0h-0.1c0,0,0,0-0.1,0h0h0c0,0,0,0,0,0v0c-0.2,0-0.4,0.2-0.4,0.5c0,0.3,0.2,0.5,0.5,0.5l0,0l0.3,0l0.4,0.1
		l0.2,0c0.5,0.1,1,0.4,1.5,0.7c0.9,0.6,1.6,1.6,1.8,2.7c0.1,0.5,0.1,1.1,0.1,1.7c0,0.3-0.1,0.6-0.2,0.9c-0.1,0.3-0.2,0.5-0.3,0.8
		c-0.5,1.1-1.4,1.9-2.4,2.5c-0.2,0.1-0.5,0.3-0.8,0.4c-0.1,0-0.2,0.1-0.4,0.1l-0.1,0c-0.1,0-0.3,0.1-0.4,0.1
		c-0.3,0.1-0.6,0.1-0.9,0.1c0,0-0.1,0-0.1,0c0,0-0.1,0-0.1,0l-0.1,0l-0.6-0.1l-0.3,0c-0.1,0-0.1,0-0.2,0l-0.1,0
		c-0.1,0-0.3-0.1-0.4-0.1c-0.3-0.1-0.6-0.2-0.8-0.3c-0.1,0-0.1,0-0.2-0.1c-0.1,0-0.2-0.1-0.3-0.1l-0.2-0.1l-0.2-0.1l-0.4-0.2
		l-0.2-0.1l-0.2-0.1c-0.9-0.7-1.7-1.7-2.2-2.9c-0.2-0.6-0.4-1.2-0.5-1.7c-0.1-0.6-0.1-1.2,0-1.8c0.1-1.2,0.5-2.4,1.1-3.4
		c0.6-1,1.4-1.9,2.3-2.6c0.9-0.7,1.9-1.2,3-1.5c0.5-0.1,1.1-0.2,1.6-0.3l0.4,0l0.4,0c0.1,0,0.2,0,0.2,0c0.1,0,0.1,0,0.2,0l0.4,0
		c0,0,0.1,0,0.1,0c0,0,0.1,0,0.1,0l0.4,0.1l0.4,0.1l0.7,0.2l0.6,0.2l0.5,0.2l0.4,0.2l0.4,0.2l0.7,0.3c0.4,0.2,0.8,0.5,1.2,0.8
		c0.1,0.1,0.3,0.2,0.4,0.3l0.1,0.1c0.1,0,0.1,0.1,0.2,0.1c0,0,0.1,0.1,0.1,0.1l0.1,0.1c0.1,0,0.1,0.1,0.2,0.1
		c0.3,0.3,0.6,0.6,0.9,0.9c0.5,0.6,1,1.3,1.3,2c0.3,0.6,0.6,1.3,0.8,1.9c0.1,0.2,0.1,0.4,0.1,0.5c0,0.1,0,0.1,0,0.2
		c-0.1,1.5-0.2,3-0.1,4.5c0,0.7,0.1,1.5,0.1,2.2c0.1,0.7,0.2,1.5,0.3,2.2c0.2,1.5,0.6,2.9,0.9,4.3c0,0.1,0.1,0.3,0.1,0.4
		c-0.7-0.4-1.4-0.8-2.1-1c-0.4-0.2-0.8-0.3-1.4-0.5c-0.1,0-0.2,0-0.2-0.1l-0.2-0.1c-0.1,0-0.2,0-0.3-0.1l-0.2,0
		c-0.2,0-0.4-0.1-0.6-0.1c-0.6-0.1-1.1-0.1-1.6-0.1l-0.6,0l-0.5,0l-0.8,0.1l-0.6,0.1l-0.6,0.1l-0.3,0.1c-0.1,0-0.2,0.1-0.3,0.1
		l-0.4,0.1l-0.6,0.2c0,0-0.1,0-0.2,0.1l-0.1,0c-0.3,0.1-0.6,0.3-0.8,0.4l-0.4,0.2l-0.4,0.2c0,0,0,0-0.1,0c-0.2,0.2-0.4,0.4-0.4,0.7
		c0,0.5,0.4,0.9,0.9,0.9c0.2,0,0.4-0.1,0.5-0.2c0,0,0,0,0,0l0.3-0.2l0.3-0.2c0.1,0,0.1-0.1,0.2-0.1c0,0,0.1,0,0.1-0.1l0.3-0.1
		c0,0,0,0,0.1,0c0,0,0.1,0,0.1,0l0.4-0.1l0.4-0.1l0.7-0.2l0.5-0.1l0.5-0.1l0.4,0l0.4,0l0.7,0c0.4,0,0.9,0,1.4,0.1
		c0.2,0,0.3,0.1,0.5,0.1l0.2,0c0.1,0,0.1,0,0.2,0c0,0,0.1,0,0.1,0l0.1,0c0.1,0,0.1,0,0.2,0c0.4,0.1,0.8,0.2,1.2,0.4
		c0.7,0.3,1.4,0.7,2,1.1c0.6,0.4,1.1,0.8,1.5,1.3c0.2,0.2,0.4,0.4,0.5,0.6l0,0c0.3,0.7,0.6,1.3,0.9,1.9c0.3,0.6,0.6,1.3,1,1.9
		c0.7,1.2,1.4,2.5,2.3,3.6c0.2,0.2,0.4,0.5,0.5,0.7c0.2,0.4,0.6,0.6,1.1,0.6c0.7,0,1.3-0.6,1.3-1.3c0-0.3-0.1-0.5-0.2-0.7l0,0
		c0,0,0,0,0,0c0,0,0,0,0-0.1c-0.2-0.3-0.3-0.4-0.5-0.7c-0.8-1-1.4-2.2-2-3.4c-0.3-0.6-0.6-1.2-0.9-1.8c-0.3-0.6-0.5-1.2-0.8-1.8
		c-0.2-0.6-0.4-1.3-0.6-1.9c-0.2-0.6-0.5-1.3-0.6-1.9c-0.3-1.3-0.7-2.6-0.8-4c-0.1-0.7-0.2-1.3-0.3-2c0-0.7,0-1.4-0.1-2
		c-0.1-1.4,0.1-2.7,0.2-4.1c0-0.7,0.2-1.3,0.3-2c0.1-0.7,0.2-1.3,0.3-2c0.2-0.7,0.4-1.4,0.6-2.1l0.3-1.1l0.1-0.3
		c0,0.1,0.1-0.1,0.1-0.2l0.2-0.5c1.9-5.4,4.8-10.4,8.8-14.7c3.9-4.3,8.8-7.9,14.3-10.4c5.5-2.5,11.6-3.8,17.7-3.8
		c0.8-0.1,1.5,0.1,2.3,0.1l2.3,0.2c1.5,0.2,3,0.5,4.5,0.7l2.4,0.7l1.2,0.3l0.6,0.2c0.2,0.1,0.1,0,0.2,0.1l0.3,0.1l2.2,0.8l2.2,0.9
		c5.8,2.6,11.2,6.2,15.9,10.7c9.3,9,15.3,21.8,16.1,35.2c0.4,6.7-0.5,13.4-2.6,19.9c-1.1,3.2-2.4,6.4-4,9.5c-1.6,3.1-3.4,6-5.4,8.8
		c-8.1,11.2-19.9,19.9-33.3,24.2c-3.3,1.1-6.8,1.9-10.2,2.5c-1.7,0.3-3.5,0.5-5.2,0.6c-1.8,0.1-3.5,0.2-5.3,0.2
		c-3.5,0-7-0.3-10.5-0.8c-0.9-0.1-1.7-0.3-2.6-0.5l-1.3-0.3l-1.2-0.3l-1.2-0.3l-0.6-0.2l-0.7-0.2l-2.7-0.8l-2.4-0.9
		c-0.8-0.3-1.7-0.6-2.5-1c-1.6-0.7-3.3-1.4-4.9-2.2c-3.2-1.5-6.3-3.3-9.4-5.2c-1.5-1-3-2-4.4-3.1l-2.1-1.6l-2.1-1.7l-1-0.9l-1-0.9
		l-2-1.8l-1.9-1.9l-0.9-1l-0.9-1c-9.6-10.5-16.4-23.6-19.6-37.3c-1.5-6.9-2.3-13.9-2.1-21c0.2-7,1.3-14,3.3-20.6
		c4-13.6,10.7-26,19.5-36.6c8.8-10.6,19.5-19.2,31.3-25.5c11.7-6.3,24.5-10.1,37.1-11.5c6.3-0.7,12.7-0.8,18.9-0.4
		c1.5,0.1,3.1,0.3,4.6,0.4c1.5,0.2,3.1,0.4,4.6,0.7c1.5,0.2,3,0.6,4.5,0.9l1.1,0.2l1.1,0.3l2.1,0.5c0.7,0.2,1.4,0.3,2.2,0.6l2.3,0.7
		l2.3,0.7l0.3,0.1c-0.3-0.1,0.1,0,0.1,0l0.5,0.2l1.1,0.4c1.4,0.5,2.8,1,4.3,1.5c1.4,0.6,2.8,1.1,4.1,1.7l2.1,0.9l2,1
		c1.3,0.6,2.7,1.3,4,1.9c1.3,0.7,2.6,1.4,3.8,2.1l1.9,1l1.8,1.1c1.2,0.7,2.5,1.5,3.7,2.2c1.2,0.8,2.4,1.6,3.5,2.4l1.7,1.2l1.7,1.3
		c1.1,0.8,2.2,1.7,3.3,2.5c4.3,3.5,8.4,7.1,12.1,10.9c1.9,1.9,3.6,3.9,5.4,5.8c0.9,1,1.7,2,2.5,3c0.8,1,1.6,2,2.4,3
		c3,4.1,5.9,8.2,8.3,12.3c5,8.3,8.8,16.7,11.5,24.9c2.8,8.2,4.5,16,5.6,23.4c1,7.4,1.3,14.2,1.3,20.4c-0.2,3.1-0.2,6-0.5,8.7
		c-0.1,1.4-0.3,2.7-0.4,4c-0.2,1.3-0.4,2.5-0.5,3.7c-0.3,2.4-0.8,4.5-1.1,6.5c-0.2,1-0.4,2-0.6,2.8c-0.2,0.9-0.4,1.7-0.6,2.4
		c-0.2,0.8-0.4,1.5-0.5,2.2c-0.1,0.3-0.2,0.7-0.2,1c-0.1,0.3-0.2,0.7-0.3,1c-0.4,1.3-0.7,2.4-1,3.2c-0.5,1.7-0.8,2.7-0.8,2.7
		c0,0,0,0.1-0.1,0.2c-1.4,5.1,1.5,10.3,6.6,11.7c5.1,1.4,10.3-1.5,11.7-6.6c0,0,0.3-0.9,0.8-2.7c0.2-0.9,0.6-2,0.9-3.3
		c0.1-0.3,0.2-0.6,0.3-1c0.1-0.4,0.2-0.8,0.3-1.2c0.2-0.8,0.4-1.7,0.6-2.7c0.2-1,0.4-2,0.7-3c0.2-1.1,0.4-2.1,0.6-3.3
		c0.4-2.3,0.9-4.8,1.2-7.5c0.2-1.4,0.3-2.8,0.5-4.2c0.1-1.5,0.2-3,0.3-4.5c0.3-3.1,0.3-6.5,0.4-10c-0.1-7-0.6-14.8-1.9-23.2
		c-1.3-8.4-3.5-17.3-6.8-26.5c-3.3-9.2-7.8-18.6-13.6-27.9c-0.2-0.3-0.4-0.6-0.6-0.9c1.3,0.4,2.6,0.8,3.9,1.1c0.1,0,0.3,0.1,0.4,0.1
		c4.1,0.9,8.3,1.4,12.6,1.5c2,0,4.1,0,6.9-0.3c0.4,0,0.8-0.1,1.2-0.1l1.1-0.1c0.4-0.1,0.9-0.1,1.3-0.2l0.7-0.1
		c0.9-0.2,1.9-0.3,2.8-0.6c2.6-0.5,5.1-1.4,7.2-2.1l2.7-1.1l1.9-0.9l3.3-1.7l2.6-1.5l2.5-1.6l1.3-1c0.4-0.3,0.7-0.5,1.1-0.8l1.6-1.3
		l2.3-2c0.2-0.2,0.4-0.3,0.6-0.5l0.2-0.2c1.1-1.1,2.1-2.1,3-3.2l1.4-1.7l1.3-1.7c1.7-2.4,3.2-4.9,4.5-7.6c2.6-5.4,4.1-11.5,4.5-17.4
		C380.4,110.1,379.6,103.7,377.6,97.9"/>
</g>
</svg>
